<svg width="168" height="179" viewBox="0 0 168 179" fill="none" xmlns="http://www.w3.org/2000/svg">
<path d="M163 56H166L166.5 54L165.5 49L164.5 46L160 41L155 37L154 35.5L151 33L148.5 32L147 31.5L144 29.5L141 28V26L139 25H137.5V23L135.5 22L133.5 21.5L132.5 20L131 19.5L129.5 21L130 22L132 23L132.5 25.5L134 26.5L136.5 27L138 28.5L140 29L142.5 31.5L148.5 38L150.5 41H151.5L154 47.5L155.5 51.5L156.5 53.5L160 54.5L163 56Z" fill="white"/>
<ellipse cx="78.5" cy="104.5" rx="74.5" ry="72.5" fill="white"/>
<path d="M75.31 178.57C34.23 178.57 4.12002 152.9 0.380022 114.7C-1.66998 93.77 4.56002 73.29 17.91 57.04C31.26 40.79 50.14 30.71 71.08 28.66C73.66 28.41 76.27 28.28 78.84 28.28C98.29 28.28 116.99 35.48 131.5 48.56C146.1 61.73 155.2 79.76 157.12 99.35C161.15 140.48 130.8 173.59 84.95 178.08C81.73 178.4 78.49 178.56 75.31 178.56V178.57ZM78.84 32.34C76.4 32.34 73.92 32.46 71.47 32.7C51.61 34.64 33.7 44.2 21.03 59.62C8.36002 75.04 2.46002 94.46 4.40002 114.32C7.93002 150.34 36.42 174.54 75.3 174.54C78.34 174.54 81.45 174.39 84.54 174.08C128.05 169.82 156.88 138.57 153.08 99.76C149.32 61.32 117.4 32.34 78.83 32.34H78.84Z" fill="black"/>
<path d="M36 21.37L40.02 40.79L86.19 30.85L82.31 9.27002L36 21.37Z" fill="black"/>
<path d="M88.84 9.07C89.37 12.17 76.1 17.01 59.22 19.86C42.33 22.71 28.22 22.51 27.69 19.41C27.16 16.31 40.43 11.47 57.32 8.62C74.21 5.76 88.32 5.97 88.85 9.07H88.84Z" fill="black"/>
<path d="M79.22 6.61001L79.05 15.11L78.94 20.82L78.89 23.33L78.57 38.5C78.56 39.03 78.48 39.57 78.31 40.07C78.18 40.62 77.94 41.16 77.67 41.66C76.71 43.25 75.11 44.42 73.16 44.75L56.11 47.63C54.33 47.93 52.57 47.48 51.25 46.47C50.6 46.03 50.05 45.47 49.65 44.84C49.35 44.39 49.09 43.88 48.9 43.34L41.52 21.81L38.61 13.33C38.57 13.24 38.56 13.16 38.54 13.07C37.98 11.24 38.29 9.35001 39.23 7.84001C40.17 6.30001 41.73 5.16001 43.69 4.83001L71.66 0.0900057C73.73 -0.259994 75.67 0.410006 77.09 1.70001C78.42 2.90001 79.24 4.65001 79.22 6.60001V6.61001Z" fill="white"/>
<path d="M77.09 1.70001C73.22 3.43001 66.62 5.25001 58.99 6.54001C50.68 7.95001 43.31 8.36001 39.24 7.83001C40.18 6.29001 41.74 5.15001 43.7 4.82001L71.66 0.0900057C73.73 -0.259994 75.67 0.410006 77.09 1.70001Z" fill="black"/>
<path d="M67.61 22.8C68.67 23.65 69.18 24.78 68.74 25.32C68.31 25.87 67.09 25.62 66.03 24.78C64.97 23.93 64.46 22.8 64.9 22.26C65.33 21.71 66.55 21.96 67.61 22.8Z" fill="black"/>
<path d="M68.96 32.61C70.02 33.45 70.53 34.59 70.09 35.13C69.66 35.68 68.44 35.43 67.38 34.59C66.32 33.74 65.81 32.61 66.25 32.07C66.68 31.52 67.9 31.77 68.96 32.61Z" fill="black"/>
<path d="M78.94 20.81L78.89 23.32C78.33 23.29 77.65 22.98 77.02 22.48C75.97 21.63 75.46 20.51 75.89 19.97C76.32 19.42 77.54 19.66 78.61 20.51C78.73 20.61 78.84 20.7 78.94 20.81Z" fill="black"/>
<path d="M78.32 40.06C78.19 40.61 77.95 41.15 77.68 41.65C77.11 41.67 76.38 41.34 75.68 40.81C74.61 39.97 74.12 38.84 74.55 38.29C74.98 37.74 76.21 37.99 77.25 38.84C77.75 39.23 78.09 39.65 78.31 40.06H78.32Z" fill="black"/>
<path d="M46.81 12.37C47.87 13.22 48.38 14.34 47.94 14.89C47.5 15.44 46.29 15.19 45.23 14.35C44.17 13.51 43.66 12.38 44.1 11.83C44.54 11.28 45.75 11.52 46.81 12.37Z" fill="black"/>
<path d="M56.45 35.18C55.29 35.88 54.05 35.96 53.69 35.36C53.33 34.76 53.98 33.71 55.14 33.01C56.3 32.31 57.54 32.23 57.9 32.83C58.26 33.43 57.61 34.48 56.44 35.18H56.45Z" fill="black"/>
<path d="M53.48 43.76C53.83 44.35 53.18 45.41 52.02 46.11C51.77 46.25 51.51 46.37 51.25 46.46C50.6 46.02 50.05 45.46 49.65 44.83C49.92 44.51 50.29 44.2 50.73 43.95C51.89 43.25 53.13 43.17 53.48 43.76Z" fill="black"/>
<path d="M63.5 43.08C63.61 44.43 63.14 45.58 62.44 45.63C61.74 45.69 61.09 44.64 60.98 43.29C60.87 41.94 61.34 40.79 62.04 40.74C62.74 40.68 63.39 41.73 63.5 43.08Z" fill="black"/>
<path d="M51.25 27.28C50.53 28.43 49.46 29.06 48.87 28.69C48.28 28.32 48.38 27.08 49.1 25.93C49.82 24.78 50.89 24.15 51.48 24.52C52.07 24.89 51.97 26.12 51.25 27.28Z" fill="black"/>
<path d="M74.29 9.92002C73.57 11.07 72.5 11.7 71.91 11.33C71.32 10.96 71.42 9.72002 72.14 8.58002C72.86 7.43002 73.93 6.80002 74.52 7.17002C75.11 7.54002 75.01 8.77002 74.29 9.93002V9.92002Z" fill="black"/>
<path d="M62.13 11.97C61.41 13.12 60.34 13.75 59.75 13.38C59.16 13.01 59.26 11.78 59.98 10.63C60.7 9.48001 61.77 8.85001 62.36 9.22001C62.95 9.59001 62.85 10.83 62.13 11.97Z" fill="black"/>
<path d="M33.56 19.09C33.56 19.09 34.36 19.05 35.77 18.98C37.18 18.91 39.18 18.75 41.59 18.58C44 18.41 46.8 18.14 49.79 17.83C51.29 17.67 52.84 17.51 54.4 17.29C55.97 17.1 57.56 16.87 59.14 16.62C60.73 16.41 62.31 16.12 63.87 15.85C65.43 15.6 66.94 15.23 68.41 14.93C69.88 14.62 71.28 14.23 72.62 13.91C73.96 13.57 75.19 13.15 76.34 12.81C77.49 12.47 78.5 12.03 79.43 11.71C79.89 11.54 80.32 11.4 80.71 11.23C81.09 11.05 81.44 10.89 81.76 10.74C83.03 10.14 83.76 9.79998 83.76 9.79998H83.77C83.84 9.75998 83.92 9.79998 83.95 9.85998C83.98 9.92998 83.95 9.99998 83.89 10.04C83.89 10.04 83.18 10.42 81.93 11.08C81.62 11.25 81.27 11.43 80.89 11.63C80.51 11.82 80.08 11.98 79.62 12.18C78.71 12.54 77.7 13.04 76.54 13.41C75.39 13.78 74.15 14.24 72.81 14.61C71.47 14.96 70.06 15.4 68.58 15.71C67.1 16.02 65.58 16.41 64.01 16.66C62.45 16.94 60.86 17.25 59.26 17.47C57.66 17.71 56.06 17.92 54.48 18.09C52.9 18.29 51.35 18.43 49.84 18.57C48.34 18.73 46.88 18.8 45.49 18.9C44.11 18.97 42.8 19.04 41.59 19.1C39.17 19.21 37.16 19.22 35.75 19.23C34.34 19.23 33.53 19.23 33.53 19.23C33.49 19.23 33.45 19.2 33.45 19.15C33.45 19.11 33.48 19.08 33.52 19.07L33.56 19.09Z" fill="#0F162D"/>
<path d="M91.24 169.61C91.24 169.61 92 169.54 93.32 169.33C94.64 169.13 96.52 168.76 98.73 168.2C99.84 167.94 101.03 167.59 102.28 167.21C103.53 166.83 104.83 166.34 106.17 165.88C107.49 165.33 108.89 164.86 110.23 164.19C110.91 163.87 111.59 163.55 112.28 163.23C112.96 162.89 113.61 162.51 114.28 162.15C114.94 161.78 115.64 161.46 116.27 161.05C116.91 160.65 117.55 160.25 118.18 159.85C119.48 159.1 120.62 158.16 121.78 157.34C122.96 156.53 123.96 155.58 124.97 154.75C125.46 154.32 125.97 153.93 126.41 153.5C126.84 153.06 127.26 152.64 127.67 152.24C128.46 151.42 129.25 150.72 129.86 150.02C130.46 149.31 130.99 148.69 131.42 148.19C132.3 147.18 132.8 146.6 132.8 146.6H132.81C132.88 146.51 133 146.5 133.08 146.57C133.16 146.64 133.17 146.75 133.11 146.83C133.11 146.83 132.65 147.45 131.86 148.54C131.46 149.08 130.96 149.74 130.4 150.49C129.83 151.24 129.08 152 128.3 152.86C127.91 153.29 127.5 153.73 127.07 154.19C126.64 154.64 126.14 155.06 125.65 155.51C124.65 156.39 123.67 157.41 122.47 158.24C121.3 159.1 120.14 160.07 118.83 160.85C118.19 161.26 117.54 161.68 116.89 162.1C116.24 162.53 115.54 162.86 114.87 163.24C114.18 163.6 113.5 163.98 112.81 164.32C112.11 164.64 111.4 164.95 110.71 165.27C109.34 165.94 107.9 166.4 106.55 166.94C105.18 167.41 103.84 167.84 102.55 168.17C101.26 168.5 100.04 168.82 98.9 169.03C97.77 169.29 96.71 169.43 95.78 169.57C94.85 169.69 94.03 169.79 93.36 169.85C92.01 169.97 91.24 169.96 91.24 169.96C91.14 169.96 91.05 169.87 91.06 169.77C91.06 169.67 91.14 169.59 91.23 169.59L91.24 169.61Z" fill="#0F162D"/>
<path d="M136.72 142.79C136.72 142.79 136.88 142.58 137.16 142.23C137.44 141.87 137.83 141.35 138.29 140.72C138.77 140.1 139.27 139.34 139.84 138.55C140.13 138.16 140.39 137.73 140.68 137.3C140.96 136.87 141.25 136.44 141.53 136C141.8 135.56 142.07 135.11 142.33 134.67C142.59 134.23 142.87 133.81 143.08 133.37C143.31 132.94 143.53 132.52 143.73 132.13C143.93 131.73 144.16 131.37 144.3 131.01C144.93 129.58 145.34 128.63 145.34 128.63C145.37 128.55 145.44 128.53 145.5 128.55C145.56 128.58 145.59 128.64 145.57 128.71C145.57 128.71 145.21 129.7 144.68 131.18C144.55 131.55 144.34 131.93 144.15 132.34C143.95 132.75 143.74 133.17 143.53 133.62C143.32 134.07 143.05 134.5 142.79 134.95C142.53 135.4 142.26 135.85 142 136.3C141.72 136.74 141.42 137.17 141.13 137.6C140.84 138.03 140.57 138.46 140.27 138.85C139.68 139.64 139.14 140.38 138.64 140.98C138.15 141.6 137.72 142.09 137.41 142.43C137.1 142.77 136.93 142.97 136.93 142.97C136.88 143.03 136.79 143.03 136.73 142.98C136.67 142.93 136.67 142.84 136.71 142.78L136.72 142.79Z" fill="#0F162D"/>
<path d="M147.13 126.08C147.2 126.43 146.98 126.77 146.63 126.84C146.28 126.91 145.94 126.69 145.87 126.34C145.8 125.99 146.02 125.65 146.37 125.58C146.72 125.51 147.06 125.73 147.13 126.08Z" fill="black"/>
<path d="M141.91 108.22C140.67 132.91 120.51 154.92 97.37 161.81C91.74 163.49 85.9 164.33 80.02 164.89C73.15 165.58 66.16 165.93 59.32 164.91C39.5 161.97 22.06 146.7 16.5 127.45C15.33 123.31 14.63 119.07 14.23 114.78C13.25 104.55 13.87 94.02 17.27 84.32C19.95 76.6 25.5 66.47 33.2 62.06C33.82 61.7 34.44 61.37 35.1 61.11C35.59 60.88 36.1 60.69 36.63 60.53C36.75 60.49 36.9 60.46 37.01 60.41C48.26 57.03 60.11 62.14 71.46 62.15C77.57 62.15 83.68 60.74 89.13 58.01C92.37 56.41 95.43 54.36 98.9 53.38C103.1 52.17 107.13 52.56 110.91 54.03C111.87 54.39 112.86 54.85 113.8 55.4C114.18 55.56 114.54 55.78 114.9 55.99C123.35 61.05 130.21 70.94 134.44 78.5C139.5 87.54 142.41 97.9 141.9 108.24L141.91 108.22Z" fill="black"/>
<path d="M69.39 161.5C69.39 161.5 70.5 161.46 72.44 161.27C74.38 161.07 77.14 160.71 80.43 160.1C83.72 159.49 87.52 158.62 91.51 157.37C93.51 156.77 95.54 156.03 97.58 155.25C99.61 154.43 101.66 153.56 103.65 152.57C104.66 152.09 105.65 151.59 106.62 151.06C107.61 150.55 108.55 149.98 109.49 149.43C111.37 148.31 113.15 147.1 114.84 145.87C115.68 145.25 116.47 144.6 117.26 143.98C118.03 143.34 118.76 142.68 119.48 142.05C120.88 140.75 122.18 139.49 123.28 138.24C123.86 137.63 124.38 137.03 124.86 136.44C125.35 135.85 125.81 135.3 126.24 134.78C127.04 133.68 127.76 132.74 128.31 131.94C129.37 130.3 129.97 129.36 129.97 129.36C129.99 129.33 130.03 129.32 130.06 129.33C130.09 129.35 130.1 129.39 130.08 129.42C130.08 129.42 129.5 130.37 128.47 132.04C127.94 132.86 127.23 133.82 126.46 134.94C125.6 135.99 124.71 137.26 123.55 138.48C122.45 139.75 121.15 141.03 119.75 142.35C119.03 142.99 118.3 143.66 117.53 144.31C116.74 144.94 115.95 145.6 115.11 146.23C113.42 147.48 111.64 148.72 109.75 149.86C108.8 150.43 107.86 151.01 106.87 151.53C105.9 152.08 104.9 152.59 103.89 153.08C101.88 154.07 99.81 154.93 97.76 155.74C95.69 156.51 93.65 157.24 91.64 157.83C87.63 159.06 83.8 159.91 80.49 160.5C73.87 161.66 69.38 161.71 69.38 161.71C69.33 161.71 69.28 161.67 69.28 161.61C69.28 161.56 69.32 161.51 69.38 161.51L69.39 161.5Z" fill="white"/>
<path d="M114.91 55.98C114.02 59.79 111.82 63.34 109.71 66.3C106.05 71.46 100.35 78.36 92.55 79.68L91.82 79.8C86.07 80.5 80.43 77.92 76.15 75.61L75.54 75.29C73.8 74.35 71.99 73.39 70.08 72.96C67.11 72.28 63.93 72.92 60.85 73.54C57.29 74.24 53.58 75 50.06 73.74C47.18 72.72 45.02 70.58 42.85 68.32L42.57 67.99C40.68 66 38.75 63.95 36.31 62.83C35.41 62.4 34.31 62.12 33.2 62.05C33.82 61.69 34.44 61.36 35.1 61.1C35.72 61.22 36.31 61.45 36.85 61.68C39.49 62.91 41.51 65.08 43.47 67.15L43.77 67.45C45.82 69.61 47.86 71.64 50.5 72.55C53.68 73.69 57.04 73.02 60.63 72.32C63.83 71.68 67.15 70.99 70.35 71.73C72.43 72.2 74.32 73.24 76.13 74.21L76.71 74.54C80.84 76.75 86.25 79.22 91.65 78.58L92.33 78.46C99.66 77.22 105.16 70.58 108.7 65.59C110.78 62.63 112.99 59.1 113.79 55.38C114.17 55.54 114.53 55.76 114.89 55.97L114.91 55.98Z" fill="white"/>
<path d="M29.34 76.78C29.92 76.44 30.57 76.14 31.25 76.17C32.53 76.24 33.44 77.49 33.75 78.73C34.62 82.25 32.19 85.6 30.45 88.78C28.36 92.61 26.92 104.1 22.94 94.82C20.25 88.56 23.54 80.17 29.34 76.77V76.78Z" fill="white"/>
<path d="M103.55 91.48L103 92.68L102.39 91.74C102.05 91.2 101.52 90.81 100.91 90.63L99.2 90.14L101.11 89.19C101.51 88.99 101.83 88.66 102.02 88.26L102.62 86.97L103.36 88.13C103.61 88.53 104 88.83 104.45 88.97L106.69 89.68L104.64 90.48C104.16 90.66 103.78 91.03 103.56 91.49L103.55 91.48Z" fill="white"/>
<path d="M112.65 100.14L112.46 100.54L112.25 100.22C112.13 100.04 111.95 99.9 111.75 99.84L111.17 99.67L111.81 99.35C111.95 99.28 112.05 99.17 112.12 99.03L112.32 98.59L112.57 98.99C112.66 99.12 112.79 99.23 112.94 99.28L113.7 99.52L113 99.79C112.84 99.85 112.71 99.97 112.63 100.13L112.65 100.14Z" fill="white"/>
<path d="M45.52 107.7L45.33 108.11L45.12 107.79C45 107.61 44.83 107.47 44.62 107.41L44.04 107.24L44.69 106.92C44.83 106.85 44.93 106.74 45 106.6L45.2 106.16L45.45 106.56C45.54 106.69 45.67 106.79 45.82 106.84L46.58 107.08L45.88 107.35C45.72 107.41 45.59 107.53 45.52 107.69V107.7Z" fill="white"/>
<path d="M107.31 113.1L107.13 113.51L106.92 113.19C106.8 113.01 106.62 112.88 106.42 112.82L105.84 112.65L106.49 112.33C106.62 112.26 106.73 112.15 106.8 112.02L107 111.58L107.25 111.98C107.34 112.12 107.47 112.22 107.62 112.27L108.38 112.51L107.68 112.78C107.52 112.84 107.39 112.97 107.31 113.12V113.1Z" fill="white"/>
<path d="M121.92 130.17L121.73 130.58L121.53 130.26C121.41 130.08 121.24 129.95 121.03 129.89L120.45 129.72L121.09 129.4C121.23 129.34 121.34 129.22 121.4 129.09L121.6 128.65L121.85 129.05C121.94 129.18 122.07 129.28 122.22 129.33L122.98 129.57L122.28 129.84C122.12 129.9 121.99 130.03 121.91 130.18L121.92 130.17Z" fill="white"/>
<path d="M34.63 137.48L34.44 137.89L34.23 137.57C34.11 137.39 33.93 137.25 33.73 137.19L33.15 137.02L33.8 136.7C33.93 136.63 34.04 136.52 34.11 136.38L34.31 135.94L34.56 136.33C34.65 136.47 34.78 136.56 34.93 136.61L35.69 136.86L34.99 137.13C34.83 137.19 34.7 137.31 34.63 137.47V137.48Z" fill="white"/>
<path d="M35.42 117.11L35.23 117.52L35.03 117.2C34.91 117.02 34.73 116.88 34.53 116.82L33.95 116.65L34.59 116.33C34.73 116.26 34.84 116.15 34.9 116.01L35.1 115.57L35.35 115.97C35.44 116.1 35.57 116.2 35.72 116.26L36.48 116.5L35.78 116.77C35.62 116.83 35.49 116.96 35.41 117.11H35.42Z" fill="white"/>
<path d="M118.96 85.78L118.77 86.19L118.57 85.87C118.45 85.69 118.28 85.56 118.07 85.5L117.49 85.33L118.14 85.01C118.28 84.94 118.38 84.83 118.45 84.69L118.65 84.25L118.9 84.65C118.99 84.78 119.12 84.89 119.27 84.93L120.03 85.17L119.33 85.44C119.17 85.5 119.04 85.63 118.96 85.78Z" fill="white"/>
<path d="M34.28 94.47L34.09 94.87L33.89 94.55C33.77 94.37 33.59 94.23 33.38 94.17L32.8 94L33.44 93.68C33.58 93.62 33.69 93.5 33.75 93.37L33.95 92.93L34.2 93.33C34.29 93.46 34.42 93.57 34.57 93.61L35.33 93.85L34.63 94.12C34.47 94.18 34.34 94.3 34.27 94.46L34.28 94.47Z" fill="white"/>
<path d="M101.95 130.78L101.74 131.61L101.24 131.08C100.96 130.78 100.57 130.59 100.16 130.55L99.01 130.44L100.11 129.6C100.34 129.42 100.51 129.17 100.58 128.89L100.8 127.99L101.42 128.65C101.63 128.87 101.91 129.01 102.22 129.05L103.74 129.23L102.53 129.99C102.25 130.17 102.05 130.44 101.97 130.77L101.95 130.78Z" fill="white"/>
<path d="M58.39 90.88L59.23 91.05L58.72 91.57C58.43 91.87 58.26 92.26 58.24 92.67L58.18 93.83L57.3 92.76C57.12 92.54 56.86 92.38 56.58 92.33L55.67 92.14L56.3 91.5C56.51 91.28 56.64 90.99 56.67 90.69L56.79 89.17L57.6 90.36C57.79 90.63 58.07 90.82 58.4 90.89L58.39 90.88Z" fill="white"/>
<path d="M52.08 144.9L52.91 145.11L52.38 145.61C52.08 145.9 51.89 146.28 51.85 146.69L51.74 147.84L50.9 146.74C50.72 146.51 50.47 146.35 50.19 146.28L49.29 146.06L49.95 145.44C50.17 145.23 50.32 144.95 50.35 144.64L50.53 143.12L51.29 144.33C51.47 144.61 51.75 144.81 52.07 144.89L52.08 144.9Z" fill="white"/>
<path d="M56.65 131.03L57.48 131.24L56.95 131.74C56.65 132.03 56.46 132.41 56.42 132.82L56.31 133.97L55.47 132.87C55.29 132.64 55.04 132.48 54.76 132.41L53.86 132.19L54.52 131.57C54.74 131.36 54.88 131.08 54.92 130.78L55.1 129.26L55.86 130.48C56.04 130.76 56.31 130.96 56.64 131.04L56.65 131.03Z" fill="white"/>
<path d="M117.8 117.54L117.52 118.67L116.84 117.95C116.45 117.54 115.93 117.28 115.37 117.23L113.81 117.09L115.3 115.95C115.61 115.71 115.84 115.37 115.93 114.99L116.23 113.77L117.07 114.65C117.36 114.95 117.74 115.14 118.15 115.2L120.21 115.45L118.56 116.48C118.18 116.72 117.9 117.1 117.8 117.54Z" fill="white"/>
<path d="M78.53 116.53C75.61 116.84 72.99 114.73 72.68 111.81C72.37 108.89 74.48 106.27 77.4 105.96C80.32 105.65 82.94 107.76 83.25 110.68C83.56 113.6 81.45 116.22 78.53 116.53Z" fill="white"/>
<path d="M85.64 110.15L99.01 108.25C99.41 108.2 99.79 108.47 99.84 108.88C99.9 109.28 99.62 109.66 99.21 109.72C99.19 109.72 99.18 109.72 99.16 109.72L85.69 110.7C85.54 110.71 85.4 110.6 85.4 110.45C85.39 110.31 85.49 110.18 85.64 110.16V110.15Z" fill="white"/>
<path d="M56.81 112.78L70.35 111.8C70.5 111.79 70.63 111.9 70.64 112.05C70.65 112.2 70.55 112.32 70.41 112.34L56.97 114.25C56.56 114.31 56.19 114.03 56.13 113.62C56.07 113.21 56.35 112.84 56.76 112.78C56.77 112.78 56.79 112.78 56.81 112.78Z" fill="white"/>
<path d="M79.11 118.85L81.27 131.04C81.34 131.43 81.08 131.8 80.69 131.87C80.3 131.94 79.93 131.68 79.86 131.29C79.86 131.27 79.86 131.25 79.86 131.24L78.57 118.93C78.55 118.78 78.66 118.64 78.81 118.63C78.95 118.61 79.08 118.72 79.11 118.86V118.85Z" fill="white"/>
<path d="M76.74 90.54L77.48 103.58C77.48 103.73 77.37 103.86 77.22 103.87C77.08 103.87 76.96 103.78 76.93 103.64L74.89 90.74C74.81 90.23 75.16 89.76 75.66 89.68C76.17 89.6 76.65 89.95 76.73 90.45C76.73 90.48 76.73 90.51 76.73 90.54H76.74Z" fill="white"/>
<path d="M86.07 113.12L94.5 115.92C94.76 116.01 94.9 116.28 94.81 116.54C94.73 116.8 94.45 116.94 94.19 116.85C94.19 116.85 94.18 116.85 94.17 116.85L85.89 113.64C85.75 113.59 85.68 113.43 85.74 113.29C85.79 113.15 85.94 113.08 86.08 113.13L86.07 113.12Z" fill="white"/>
<path d="M83.68 115.73C83.79 115.68 84.05 115.74 84.09 115.79L84.21 115.87C84.29 115.93 84.36 115.98 84.43 116.04L84.84 116.37L85.63 117.04L87.17 118.42L90.21 121.21C90.42 121.4 90.43 121.72 90.24 121.93C90.05 122.14 89.73 122.15 89.52 121.96C89.52 121.96 89.5 121.94 89.49 121.93L86.62 118.98L85.16 117.53L84.42 116.82L84.05 116.48C83.99 116.42 83.93 116.37 83.87 116.33L83.78 116.26C83.78 116.26 83.92 116.3 83.95 116.21C83.82 116.28 83.65 116.24 83.58 116.11C83.51 115.98 83.55 115.81 83.68 115.74V115.73Z" fill="white"/>
<path d="M81.89 117.64L84.58 123.94C84.68 124.17 84.57 124.45 84.33 124.55C84.09 124.65 83.82 124.55 83.72 124.31V124.29L81.39 117.85C81.34 117.71 81.41 117.55 81.56 117.5C81.7 117.45 81.85 117.52 81.9 117.65L81.89 117.64Z" fill="white"/>
<path d="M74.78 118.74L73.03 127.45C72.98 127.71 72.72 127.89 72.45 127.84C72.19 127.79 72.01 127.53 72.07 127.26V127.24L74.24 118.63C74.28 118.48 74.43 118.4 74.57 118.43C74.71 118.47 74.8 118.61 74.77 118.75L74.78 118.74Z" fill="white"/>
<path d="M71.9 116.68C71.97 116.78 71.93 117.05 71.9 117.09L71.83 117.22C71.79 117.31 71.74 117.39 71.7 117.46L71.42 117.91L70.85 118.78L69.67 120.48L67.27 123.84C67.11 124.07 66.79 124.12 66.56 123.96C66.33 123.8 66.28 123.48 66.44 123.25C66.44 123.25 66.46 123.23 66.46 123.22L69.04 120.01L70.3 118.39L70.91 117.57L71.21 117.16C71.26 117.09 71.3 117.02 71.34 116.96L71.4 116.86C71.4 116.86 71.38 117.01 71.47 117.02C71.38 116.9 71.4 116.73 71.53 116.64C71.65 116.55 71.82 116.58 71.92 116.69L71.9 116.68Z" fill="white"/>
<path d="M69.78 115.14L63.85 118.58C63.63 118.71 63.34 118.63 63.21 118.41C63.08 118.19 63.16 117.9 63.38 117.77C63.38 117.77 63.4 117.77 63.4 117.76L69.51 114.66C69.64 114.59 69.81 114.65 69.88 114.78C69.95 114.91 69.9 115.07 69.78 115.14Z" fill="white"/>
<path d="M68.6 109.92L60.39 106.54C60.14 106.44 60.02 106.15 60.12 105.9C60.22 105.65 60.51 105.53 60.76 105.63C60.76 105.63 60.77 105.63 60.78 105.64L68.82 109.42C68.96 109.48 69.02 109.65 68.95 109.78C68.89 109.91 68.73 109.97 68.6 109.92Z" fill="white"/>
<path d="M71.17 107.48C71.06 107.53 70.8 107.44 70.77 107.39L70.66 107.3C70.58 107.24 70.51 107.18 70.45 107.12L70.07 106.76L69.33 106.03L67.89 104.55L65.05 101.55C64.86 101.34 64.87 101.02 65.07 100.83C65.28 100.64 65.6 100.65 65.79 100.85C65.79 100.85 65.81 100.87 65.81 100.88L68.47 104.03L69.82 105.58L70.51 106.34L70.86 106.71C70.92 106.77 70.98 106.83 71.03 106.88L71.12 106.96C71.12 106.96 70.98 106.91 70.94 106.99C71.08 106.92 71.24 106.99 71.31 107.12C71.38 107.26 71.31 107.42 71.18 107.48H71.17Z" fill="white"/>
<path d="M73.09 105.7L70.84 99.22C70.76 98.98 70.89 98.71 71.13 98.63C71.37 98.55 71.64 98.67 71.72 98.92C71.72 98.92 71.72 98.94 71.72 98.95L73.6 105.54C73.64 105.69 73.56 105.84 73.41 105.88C73.27 105.92 73.12 105.84 73.08 105.7H73.09Z" fill="white"/>
<path d="M80.7 104.19L82.09 95.42C82.13 95.16 82.38 94.97 82.65 95.02C82.92 95.06 83.1 95.31 83.06 95.58V95.6L81.25 104.3C81.22 104.45 81.07 104.54 80.92 104.51C80.78 104.48 80.68 104.34 80.71 104.2L80.7 104.19Z" fill="white"/>
<path d="M83.67 106.13C83.6 106.03 83.62 105.76 83.67 105.72L83.73 105.59C83.77 105.5 83.81 105.42 83.86 105.35L84.12 104.89L84.66 104L85.77 102.26L88.03 98.8C88.18 98.56 88.5 98.5 88.73 98.65C88.97 98.81 89.03 99.12 88.88 99.35C88.88 99.35 88.86 99.37 88.86 99.38L86.42 102.69L85.22 104.36L84.64 105.2L84.36 105.62C84.31 105.69 84.27 105.76 84.24 105.83L84.18 105.93C84.18 105.93 84.2 105.78 84.11 105.77C84.2 105.89 84.19 106.06 84.07 106.16C83.95 106.25 83.78 106.24 83.68 106.12L83.67 106.13Z" fill="white"/>
<path d="M85.85 107.58L91.63 103.9C91.85 103.76 92.14 103.83 92.27 104.04C92.41 104.26 92.34 104.54 92.13 104.68C92.13 104.68 92.12 104.68 92.11 104.69L86.13 108.05C86 108.12 85.83 108.08 85.76 107.94C85.69 107.81 85.73 107.65 85.85 107.57V107.58Z" fill="white"/>
<path d="M53.62 44.22C44.24 44.22 38.04 41.16 37.92 41.1C37.67 40.97 37.57 40.67 37.7 40.42C37.83 40.17 38.13 40.07 38.38 40.2C38.61 40.32 61.85 51.74 86.53 29.32C86.74 29.13 87.06 29.15 87.24 29.35C87.43 29.56 87.41 29.88 87.21 30.06C74.8 41.34 62.72 44.21 53.63 44.21L53.62 44.22Z" fill="black"/>
<path d="M129.58 20.09L129.37 19.93C129.05 20.29 128.8 20.67 128.79 20.96C128.75 22.12 129.72 23.07 131.34 23.49C131.65 26.75 133.82 28.1 136.47 27.73C137.11 28.97 137.79 30 139.35 29.87C139.59 29.85 139.89 30.17 140.13 30.38C142.15 32.23 144.14 34.12 146.18 35.95C147.68 37.3 148.84 38.85 149.46 40.78C149.57 41.13 149.73 41.65 150 41.74C151.01 42.11 151.36 43 151.7 43.82C152.7 46.31 153.7 48.8 154.53 51.36C154.93 52.59 155.53 53.62 156.59 54.21C157.77 54.87 159.09 55.3 160.38 55.73C161.61 56.14 162.92 56.35 164.14 56.78C165.58 57.28 166.26 57.06 166.88 55.68C167.44 54.43 167.48 53.08 167.2 51.81C166.48 48.48 165.59 45.19 162.76 42.88C162.43 42.61 162.23 42.17 161.91 41.88C160.9 40.97 159.88 40.07 158.82 39.23C157.75 38.39 156.31 37.83 155.57 36.77C153.89 34.36 151.59 32.92 149.07 31.68C148.29 31.3 147.39 30.98 146.82 30.38C145.94 29.45 144.89 29.08 143.75 28.67C142.94 28.38 141.92 27.72 141.68 27C141.09 25.25 139.89 24.66 138.28 24.5C137.97 23.47 138.06 22.22 136.97 21.73C136.01 21.3 134.93 21.14 133.75 20.82C132.97 19.4 131.93 18.77 130.65 19.07C130.46 19.11 130.26 19.22 130.05 19.35C130.48 19.7 130.05 20.45 129.59 20.1L129.58 20.09ZM147.37 35C146.69 34.29 145.92 33.68 145.2 33.03C143.8 31.78 142.4 30.53 141 29.28C145.81 30.76 151.26 36.82 150.53 40.16C150.02 37.82 148.72 36.39 147.38 35H147.37ZM137.8 26.4C138.01 26.03 138.68 25.72 139.13 25.74C139.78 25.76 140.14 26.29 140.04 27.16C139.47 27.02 138.97 26.9 137.91 26.64C138.19 27.16 138.37 27.5 138.59 27.92C137.82 27.56 137.46 26.99 137.8 26.41V26.4ZM155.89 47.05C155.43 46.38 155.08 45.63 154.69 44.9C154.1 43.79 153.48 42.7 152.93 41.57C152.59 40.86 152.37 40.09 152.07 39.27C153.01 38.94 153.65 38.96 154.19 39.59C155.77 41.47 157.43 43.3 158.92 45.25C159.7 46.27 160.29 47.47 160.4 48.81C158.4 49.39 157.18 48.93 155.88 47.05H155.89ZM155.84 48.52C156.01 49.31 156.19 50.1 156.38 50.98C155.31 50.37 155.23 50.08 155.84 48.52ZM156.83 49.9C158.25 50.05 158.45 50.51 158.04 53.02C157.04 52.04 157.13 50.91 156.83 49.9ZM159.53 53.21C159.33 53.14 159.15 53.05 158.98 52.97C158.91 52.06 158.84 51.2 158.76 50.26C158.97 50.26 159.26 50.17 159.35 50.27C159.91 50.85 160.11 51.92 159.99 53.33C159.84 53.29 159.68 53.27 159.53 53.21ZM165.71 51.9C165.62 51.92 165.53 51.95 165.44 51.97C165.33 51.6 165.22 51.23 165.09 50.82C165.24 50.82 165.38 50.79 165.39 50.81C165.5 51.17 165.6 51.54 165.7 51.9H165.71ZM164.58 49.21C164.65 50.78 164.96 52.34 165.21 53.9C165.28 54.37 165.5 54.82 165.43 55.33C164.32 54.46 163.75 53.34 163.29 51.93C162.61 53 163.35 53.83 163.29 54.74C162.44 54.45 161.67 54.18 160.93 53.92C160.68 52.64 160.43 51.41 160.18 50.1C161.7 49.73 162.78 48.84 163.18 47.2C164.15 47.6 164.54 48.18 164.58 49.21ZM159.42 41.13C160.12 41.89 160.77 42.71 161.43 43.51C162.55 44.85 162.65 46.3 161.61 48.3C160.58 45.46 158.97 43.26 157.28 41.11C156.82 40.52 156.2 40.05 155.68 39.51C155.32 39.14 154.81 38.8 155.26 38.03C156.79 38.95 158.25 39.85 159.43 41.13H159.42ZM148.07 32.12C149.87 32.89 151.52 34.11 153.06 35.5C153.22 35.64 153.36 35.82 153.49 35.99C154.09 36.75 154.09 37.26 153.53 37.67C153.09 37.99 152.17 37.81 151.79 37.29C150.53 35.55 149.28 33.79 148.08 32.13L148.07 32.12ZM136.16 22.71C136.34 22.88 136.66 23.11 136.87 23.42C137.52 24.35 136.86 25.67 135.69 25.62C134.98 25.59 134.21 25.28 133.6 24.89C132.8 24.36 132.71 23.43 133.21 22.76C133.81 21.96 134.62 21.79 135.5 22.28C135.69 22.39 135.86 22.52 136.15 22.72L136.16 22.71ZM132.17 20.14C132.67 20.54 132.87 21.3 132.58 21.71C132.15 22.33 131.1 22.59 130.54 22.22C130.06 21.89 129.89 20.78 130.25 20.29C130.62 19.78 131.62 19.7 132.17 20.14Z" fill="black"/>
<path d="M86.2 29.13L85.44 28.47C85.65 28.22 107.02 3.94 130.31 18.92L129.76 19.77C107.2 5.26 86.4 28.89 86.2 29.13Z" fill="black"/>
</svg>
