<svg width="61" height="56" viewBox="0 0 61 56" fill="none" xmlns="http://www.w3.org/2000/svg">
<g clip-path="url(#clip0_2003_4432)">
<path d="M19.22 43.7701C19.91 41.8601 21.2 40.46 22.51 38.94C23.72 37.53 24.86 35.95 26.42 34.91C26.74 34.7 27.24 34.9801 27.14 35.3801C26.66 37.3101 25.48 39.0101 24.5 40.7201C23.5 42.4701 22.61 44.02 21.03 45.32C19.99 46.18 18.85 44.79 19.21 43.76L19.22 43.7701Z" fill="white"/>
<path d="M40.16 32.9C42.19 32.76 43.99 33.38 45.91 33.97C47.69 34.51 49.59 34.92 51.17 35.94C51.49 36.15 51.44 36.72 51.03 36.79C49.07 37.13 47.04 36.72 45.08 36.52C43.08 36.31 41.29 36.11 39.48 35.19C38.28 34.58 39.09 32.97 40.18 32.9H40.16Z" fill="white"/>
<path d="M25.1 27.03C22.38 23.56 21.05 18.97 19.33 14.94C17.39 10.39 15.45 5.86004 13.74 1.22004C13.36 0.180036 14.72 -0.489964 15.29 0.470036C17.83 4.71004 20.15 9.06004 22.47 13.43C24.53 17.31 27.28 21.22 28.27 25.52C28.68 27.27 26.22 28.47 25.1 27.05V27.03Z" fill="white"/>
<path d="M40.27 29.5C39.66 29.77 39.06 28.82 39.57 28.38C42.55 25.86 45.83 23.7 48.94 21.34C52.38 18.74 55.67 16.09 59.4 13.89C60.38 13.31 61.49 14.59 60.68 15.45C55.2 21.28 47.58 26.26 40.27 29.49V29.5Z" fill="white"/>
<path d="M23.02 33.21C15.43 31.74 8.11 28.73 0.540002 27C-0.369998 26.79 -0.0499978 25.54 0.830002 25.62C8.49 26.3 16.96 27.15 23.96 30.51C25.45 31.23 24.61 33.52 23.02 33.21Z" fill="white"/>
<path d="M35.03 36.47C37.03 38.88 38.19 41.9 39.74 44.61C40.36 45.69 44.2 53.27 45.25 53.52C45.2 53.47 45.2 53.3799 45.29 53.3499C45.35 53.3299 45.41 53.3199 45.46 53.2999C45.51 53.2799 45.56 53.3099 45.58 53.3499C45.75 53.6299 45.76 53.5899 45.64 53.8899C45.62 53.9499 45.57 54 45.5 53.99C43.13 53.8 40.56 49.4999 39.24 47.7799C36.9 44.6999 34.09 41.3199 33.08 37.5299C32.79 36.4599 34.28 35.5599 35.03 36.4599V36.47Z" fill="white"/>
<path d="M29.8 39.62C29.93 44.49 29.22 50.3 27.63 54.92C27.43 55.49 26.5 55.44 26.43 54.81C25.83 49.85 26.38 43.96 27.56 39.12C27.89 37.74 29.78 38.43 29.81 39.62H29.8Z" fill="white"/>
<path d="M31.46 23.22C30.82 18.25 30.5 12.83 31.44 7.88001C31.54 7.36001 32.39 7.22001 32.54 7.79001C33.85 12.76 33.88 18.22 33.58 23.32C33.51 24.57 31.6 24.36 31.46 23.22Z" fill="white"/>
<path d="M35.5 26.33C36.73 23.14 38.3 19.78 40.47 17.12C40.7 16.84 41.25 17.03 41.16 17.42C40.33 20.83 38.58 24.11 36.74 27.08C36.29 27.81 35.22 27.06 35.5 26.33Z" fill="white"/>
<path d="M31.75 29.79C30.97 29.83 30.33 30.29 30.13 30.91C30.05 30.95 29.98 31 29.91 31.06C29.25 31.59 29.09 32.47 29.54 33.03C29.99 33.6 30.89 33.63 31.55 33.1C31.65 33.02 31.74 32.93 31.81 32.83C31.84 32.83 31.87 32.83 31.9 32.83C32.88 32.78 33.64 32.06 33.6 31.22C33.56 30.38 32.73 29.73 31.76 29.78L31.75 29.79Z" fill="white"/>
</g>
<defs>
<clipPath id="clip0_2003_4432">
<rect width="60.95" height="55.32" fill="white"/>
</clipPath>
</defs>
</svg>
