<svg width="187" height="256" viewBox="0 0 187 256" fill="none" xmlns="http://www.w3.org/2000/svg">
<g clip-path="url(#clip0_2003_4384)">
<path d="M43.15 192.54C53.88 204.32 69.47 209.53 85.15 208.06C103.53 206.35 121.49 196.76 138.68 190.18C140.64 189.43 142.73 188.69 144.83 188.19C149.86 187 154.97 187.19 158.54 191.91C160.43 194.39 161.19 197.54 161.1 200.66C160.66 214.07 153.53 225.73 143.87 234.4C138.96 238.81 133.34 242.46 127.56 245.66C124.58 247.31 116.44 251.01 111.27 253.21C110.56 253.5 110.38 254.28 110.64 254.84C110.79 255.21 111.11 255.5 111.59 255.56C120.34 256.69 137.33 248.37 146.14 243.18C156.45 237.1 165.47 228.78 172.19 218.85C172.22 218.84 172.22 218.82 172.24 218.8C172.71 218.13 173.14 217.46 173.57 216.79C173.57 216.77 173.59 216.76 173.59 216.75C173.86 216.33 174.12 215.91 174.39 215.48C179.4 207.23 182.95 196.45 181.65 186.53C181.62 186.32 181.59 186.09 181.55 185.88C181.05 182.57 179.99 179.36 178.27 176.4C176.31 173.04 173.66 170.33 170.56 168.27C170.39 168.14 170.21 168.03 170.01 167.91C163.13 163.54 154.26 162.21 146.2 163.43C145.26 163.58 144.32 163.74 143.38 163.95C143.16 163.99 142.95 164.05 142.73 164.09C136.14 165.57 129.92 168.32 123.83 171.43H123.82C123.59 171.54 123.36 171.65 123.13 171.77H123.12C119.4 173.71 115.73 175.74 112.05 177.7C108.75 179.47 105.2 181.28 101.51 182.91C101.3 182.99 101.1 183.09 100.89 183.17C93.99 186.13 86.6 188.34 79.39 188.16C79.16 188.15 78.95 188.14 78.71 188.12C74.57 187.94 70.48 186.93 66.59 184.8C66.06 184.5 65.53 184.19 65.01 183.85C60.34 180.84 56.67 176.33 54.08 171.39C44.73 153.52 59.37 137.95 74.45 130.85C94.67 121.33 118.18 127.29 139.89 130.03C141.72 130.26 143.5 130.39 145.24 130.43C150.94 130.58 156.17 129.79 160.86 128.21C161.09 128.14 161.33 128.06 161.55 127.97C168.99 125.35 175.02 120.77 179.31 115.05C179.46 114.86 179.61 114.66 179.75 114.47H179.76C186.04 105.72 188.36 94.49 185.62 83.39C185.56 83.17 185.51 82.94 185.45 82.72C184.63 79.67 183.44 76.62 181.83 73.65C180.14 70.53 178.38 67.8 176.54 65.41C176.4 65.23 176.26 65.0499 176.12 64.88C166.43 52.59 154.69 49.69 141.13 51.18C135.55 51.79 129.67 53.13 123.49 54.85C123.26 54.91 123.02 54.98 122.79 55.05C117.8 56.47 112.64 58.13 107.3 59.85C106.18 60.22 105.09 60.56 104.02 60.88L103.54 61.04L103.5 61.06C93.5 64.1 85.82 65.71 79.58 66.31C75.59 66.6899 72.22 66.66 69.22 66.31C63.4 65.66 59.01 63.87 54.43 61.72C48.59 58.96 44.05 50.88 43.69 42.43C43.67 41.93 43.66 41.43 43.67 40.92C43.67 40.54 43.68 40.16 43.72 39.79C43.75 39.42 43.77 39.04 43.82 38.67C43.86 38.27 43.91 37.87 43.98 37.47C44.04 37.16 44.09 36.84 44.16 36.53C44.23 36.19 44.3 35.85 44.4 35.5C44.4 35.47 44.4 35.44 44.42 35.4C44.51 35.05 44.61 34.7 44.72 34.35C44.95 33.63 45.22 32.91 45.53 32.22C45.57 32.11 45.62 32.01 45.69 31.9C45.87 31.51 46.06 31.12 46.27 30.75C46.43 30.46 46.58 30.19 46.75 29.92C46.75 29.9 46.75 29.88 46.78 29.89C46.85 29.75 46.94 29.61 47.04 29.48C47.04 29.45 47.06 29.43 47.08 29.41C47.18 29.24 47.28 29.09 47.4 28.94C47.42 28.91 47.42 28.9 47.45 28.89C47.57 28.7 47.69 28.53 47.82 28.36C47.98 28.15 48.14 27.95 48.3 27.76C48.43 27.59 48.58 27.42 48.74 27.24C48.75 27.22 48.78 27.19 48.81 27.16C48.96 26.99 49.12 26.79 49.3 26.64C49.33 26.58 49.37 26.54 49.42 26.5C49.52 26.39 49.63 26.28 49.75 26.17C49.79 26.12 49.83 26.09 49.87 26.05C50.12 25.79 50.38 25.55 50.67 25.31C51.05 24.97 51.43 24.66 51.85 24.35C51.87 24.34 51.89 24.33 51.89 24.31C52.07 24.18 52.26 24.05 52.45 23.93C52.67 23.75 52.9 23.6 53.14 23.44C53.72 23.04 54.33 22.68 54.99 22.33C60.56 19.33 65.05 18.79 68.8 19.67C69.26 19.78 69.73 19.92 70.17 20.08C70.75 20.28 71.31 20.5 71.86 20.77C78.42 23.95 82.6 31.48 87.03 35.65C94.38 42.57 115.48 38.46 122.09 34.38C128.7 30.3 124.26 24.93 117.06 16.38C109.88 7.81995 91.14 2.85996 91.14 2.85996C50.62 -7.93004 32.25 14.45 27.02 23.98C26.91 24.17 26.81 24.37 26.71 24.57C26.21 25.51 25.69 26.57 25.19 27.75C25.19 27.75 25.1866 27.7633 25.18 27.79C24.81 28.63 24.46 29.54 24.12 30.5C22.55 35 21.39 40.7 21.94 47.11C21.95 47.13 21.94 47.15 21.94 47.18C21.94 47.36 21.97 47.54 21.99 47.71C22.13 49.19 22.38 50.71 22.73 52.26C22.73 52.29 22.74 52.31 22.74 52.34C23.58 56.01 25.02 59.86 27.27 63.8C28.65 66.2 30.35 68.66 32.38 71.13C32.47 71.2299 32.55 71.34 32.64 71.44C33.66 72.66 34.78 73.9 35.98 75.12C35.98 75.13 35.99 75.14 36.01 75.15C38.24 77.43 40.8 79.72 43.71 82C44.51 82.63 45.32 83.21 46.15 83.76C46.17 83.78 46.19 83.78 46.2 83.79C72.18 101.04 109.06 79.2899 134.48 77.77C134.59 77.75 134.72 77.75 134.84 77.74C139.15 77.52 143.12 77.88 146.64 79.13C146.82 79.1899 146.99 79.26 147.17 79.33C147.44 79.42 147.69 79.53 147.96 79.62C156.28 82.92 160.4 88.13 153.67 96.44C148.55 102.76 139.43 104.4 128.91 104.27C128.67 104.27 128.43 104.27 128.18 104.26C123.63 104.18 118.81 103.77 113.97 103.28C113.75 103.26 113.53 103.24 113.31 103.22C100.28 101.92 87 100.1 77.46 102.31C55.48 107.4 42.72 114.1 34.73 133.45C26.81 152.6 28.88 176.88 43.16 192.55L43.15 192.54Z" fill="black"/>
<path d="M48.11 63.9399C49.88 65.8599 51.97 67.57 54.43 68.43C56.87 69.27 59.53 69.2199 62.11 69.0599C68 68.6799 73.85 67.7599 79.58 66.32C75.59 66.7 72.22 66.6699 69.22 66.32C63.4 65.6699 59.01 63.88 54.43 61.7299C48.59 58.97 44.05 50.8899 43.69 42.4399C43.4 35.4099 46 28.14 53.15 23.45C51.22 24.29 49.37 25.28 47.76 26.62C45.01 28.94 43.19 32.2 42.04 35.61C38.87 45.22 41.28 56.4599 48.11 63.93V63.9399Z" fill="white"/>
<path d="M52.07 171.08C54.11 174.49 56.32 177.87 59.34 180.44C61.06 181.91 62.97 183.04 65.02 183.87C60.35 180.86 56.68 176.35 54.09 171.41C44.74 153.54 59.38 137.97 74.46 130.87C94.68 121.35 118.19 127.31 139.9 130.05C141.73 130.28 143.51 130.41 145.25 130.45C141.02 129.39 136.48 128.41 135.23 127.95C128.91 125.64 122.7 123.03 116.18 121.3C105.34 118.4 93.83 118.02 82.83 120.21C70.87 122.58 58.84 128.61 53.04 139.34C51.06 142.98 49.89 147.01 48.91 151.03C48.12 154.26 47.43 157.59 47.86 160.88C48.34 164.56 50.17 167.9 52.08 171.08H52.07Z" fill="white"/>
<path d="M110.63 254.86C124.67 254.21 137.27 245.92 147.56 236.35C153.71 230.63 159.46 224.18 162.54 216.37C165.61 208.56 165.63 199.15 160.85 192.24C159.88 190.83 158.71 189.54 157.27 188.62C154.19 186.66 148.3 186 144.84 188.2C149.87 187.01 154.98 187.2 158.55 191.92C160.44 194.4 161.2 197.55 161.11 200.67C160.67 214.08 153.54 225.74 143.88 234.41C138.97 238.82 133.35 242.47 127.57 245.67C124.59 247.32 116.45 251.02 111.28 253.22C110.57 253.51 110.39 254.29 110.65 254.85L110.63 254.86Z" fill="white"/>
<path d="M41.09 185.47C58.76 206.65 87.18 210.79 111.85 195.82C114.44 194.25 116.99 192.65 119.46 191.11C139.48 178.6 156.76 167.81 169.52 183.97C175.53 191.58 177.64 200.9 175.46 210.2C174.77 213.12 173.7 216 172.24 218.8C172.71 218.13 173.14 217.46 173.57 216.79C173.57 216.77 173.59 216.76 173.59 216.75C174.53 214.63 175.27 212.46 175.78 210.27C177.99 200.88 175.86 191.46 169.78 183.77C156.83 167.36 139.44 178.23 119.28 190.83C116.81 192.37 114.26 193.97 111.69 195.53C87.19 210.42 58.91 206.29 41.34 185.25C33.08 175.36 30.15 162.59 33.08 149.31C36.68 132.99 48.62 117.93 63.52 110.91C75.55 105.23 89.98 104.52 107.61 108.73C111.19 109.59 114.89 110.74 118.47 111.86C126.48 114.36 134.76 116.94 142.99 116.73C155.88 116.4 166.41 110.43 170.48 101.16C174.02 93.05 171.96 83.99 164.67 75.67C150.97 60.01 130.61 67.28 107.04 75.7C101.05 77.84 94.86 80.05 88.47 82.01C57.07 91.63 44.89 82.68 44.78 82.58C42.76 81.42 37.86 77.21 33.09 71.09C32.95 70.91 32.81 70.73 32.68 70.55C30.13 67.22 27.64 63.36 25.67 59.14L25.61 59.03C23.96 55.49 22.67 51.68 22.04 47.73C22.01 47.55 21.97 47.37 21.94 47.19C21.94 47.16 21.94 47.14 21.94 47.12C21.82 46.32 21.73 45.51 21.67 44.7C21.21 38.67 22.38 33.01 25.18 27.79C25.18 27.79 25.1833 27.7766 25.19 27.75C27.66 23.1 31.38 18.77 36.35 14.82C54.1 0.679966 70.73 0.499967 81.57 2.84997C93.3 5.38997 100.94 11.35 101.02 11.41C101.08 11.47 101.19 11.45 101.25 11.39C101.3 11.32 101.29 11.21 101.22 11.15C101.14 11.09 93.45 5.08997 81.65 2.51997C70.75 0.169967 54.01 0.339967 36.13 14.57C32.21 17.69 29.06 21.02 26.7 24.57C22.57 30.7 20.78 37.45 21.33 44.73C21.53 47.32 22.02 49.85 22.72 52.27C22.72 52.3 22.73 52.32 22.73 52.35C24.75 59.37 28.47 65.47 31.63 69.79C31.91 70.18 32.19 70.55 32.48 70.92C32.58 71.06 32.69 71.2 32.81 71.33C33.87 72.71 34.94 73.98 35.98 75.14C35.98 75.15 35.99 75.16 36.01 75.17C39.69 79.27 42.97 81.97 44.58 82.88C44.6 82.9 45.1 83.26 46.15 83.77C46.17 83.79 46.19 83.79 46.2 83.8C50.47 85.86 63.39 90.05 88.56 82.34C94.96 80.38 101.15 78.16 107.15 76.02C130.6 67.64 150.86 60.4 164.43 75.9C171.63 84.13 173.67 93.04 170.17 101.04C166.17 110.19 155.74 116.08 142.99 116.42C134.81 116.63 126.56 114.06 118.57 111.57C114.97 110.45 111.26 109.29 107.69 108.44C89.97 104.2 75.47 104.92 63.38 110.63C48.39 117.69 36.38 132.86 32.76 149.26C29.81 162.65 32.76 175.51 41.09 185.48V185.47Z" fill="white"/>
<path d="M111.46 22.95C112.56 23.91 114.24 23.8 115.2 22.7C116.16 21.59 116.05 19.92 114.95 18.95C114.63 18.67 114.27 18.49 113.89 18.39C114.27 19.29 114.13 20.37 113.45 21.16C112.76 21.95 111.71 22.24 110.76 21.98C110.91 22.34 111.15 22.68 111.46 22.95Z" fill="white"/>
<path d="M109.24 18.4699C109.55 18.7399 110.01 18.6999 110.27 18.3999C110.54 18.0999 110.51 17.6299 110.2 17.3699C109.9 17.0999 109.43 17.1399 109.17 17.4399C108.9 17.7399 108.94 18.2099 109.24 18.4699Z" fill="white"/>
<path d="M106.38 15.65C106.59 15.83 106.9 15.81 107.08 15.6C107.26 15.39 107.24 15.08 107.03 14.91C106.83 14.73 106.51 14.75 106.34 14.96C106.16 15.17 106.18 15.48 106.38 15.65Z" fill="white"/>
<path d="M71.61 21.27L71.93 20.69C70.87 20.11 70.17 19.09 69.43 18C69.22 17.7 69.02 17.39 68.8 17.1C68.17 16.24 66.48 14.29 64.38 14.69C63.65 14.83 63.03 15.22 62.43 15.61C61.76 16.04 61.14 16.44 60.43 16.45C60 16.45 59.56 16.32 59.11 16.17L58.97 16.13C57.85 15.77 56.37 15.39 54.88 15.67C53.02 16.03 51.4 17.47 50.83 19.27C50.26 21.07 50.77 23.19 52.09 24.54L52.56 24.08C51.4 22.9 50.96 21.04 51.46 19.47C51.95 17.89 53.38 16.62 55 16.32C56.35 16.06 57.72 16.42 58.77 16.76L58.91 16.8C59.4 16.96 59.9 17.13 60.45 17.12C61.34 17.1 62.08 16.63 62.79 16.17C63.36 15.8 63.9 15.46 64.51 15.34C66.24 15.01 67.72 16.74 68.27 17.49C68.48 17.77 68.68 18.07 68.88 18.37C69.63 19.47 70.41 20.61 71.61 21.27Z" fill="white"/>
<path d="M22.32 47.82C22.48 47.31 23.07 47.08 23.7 46.83C23.85 46.77 24.01 46.71 24.15 46.64C25.3 46.13 26.23 45.13 26.66 43.95C26.9 43.29 26.98 42.59 27.06 41.92C27.11 41.48 27.17 41.02 27.27 40.58C27.36 40.17 27.5 39.78 27.64 39.37C27.81 38.88 27.98 38.38 28.08 37.86C28.62 35.03 26.72 32.01 23.94 31.28L23.77 31.92C26.2 32.56 27.91 35.27 27.44 37.74C27.35 38.22 27.19 38.67 27.02 39.16C26.88 39.57 26.73 40 26.63 40.44C26.52 40.91 26.47 41.39 26.41 41.85C26.33 42.51 26.26 43.14 26.04 43.73C25.68 44.74 24.86 45.61 23.89 46.04C23.75 46.1 23.61 46.16 23.46 46.22C22.75 46.5 21.95 46.82 21.69 47.63L22.32 47.83V47.82Z" fill="white"/>
<path d="M58.16 72.21C59.15 71.68 60.01 70.85 60.62 69.84L60.06 69.5C59.34 70.7 58.21 71.61 56.97 72C55.65 72.41 54.21 72.23 53.13 71.5C52.05 70.77 51.27 69.48 50.95 67.88C50.66 66.41 50.76 64.87 50.85 63.39L50.19 63.35C50.09 64.88 49.99 66.46 50.3 68.02C50.65 69.8 51.53 71.23 52.76 72.06C54 72.89 55.65 73.11 57.16 72.64C57.5 72.53 57.83 72.39 58.15 72.22L58.16 72.21Z" fill="white"/>
<path d="M75.29 80.01C76.63 80.77 78.21 80.79 79.72 80.68C81.13 80.6 82.8 80.37 84.2 79.62C84.69 79.36 85.15 79.04 85.54 78.63C85.87 78.29 86.14 77.92 86.42 77.54C86.89 76.9 87.32 76.29 87.97 75.97C88.24 75.83 88.53 75.74 88.86 75.64C89.46 75.45 90.09 75.25 90.52 74.72C91.16 73.93 91.32 73.23 91 72.63L90.95 72.54C89.57 70.36 81.16 71.18 80.13 71.41C78 71.93 73.85 74.46 73.48 77.06C73.36 77.87 73.59 79.04 75.29 80.01ZM74.13 77.17C74.45 74.96 78.31 72.54 80.28 72.07C81.67 71.73 89.34 71.26 90.39 72.91C90.61 73.26 90.47 73.73 90.01 74.31C89.89 74.47 89.72 74.58 89.54 74.68C89.28 74.82 88.98 74.92 88.67 75.01C88.33 75.1 87.99 75.21 87.68 75.38L87.64 75.4C86.89 75.8 86.38 76.48 85.9 77.14C85.62 77.52 85.37 77.86 85.07 78.16C83.68 79.58 81.46 79.91 79.69 80.02C78.28 80.12 76.81 80.12 75.62 79.44C74.51 78.8 74.01 78.03 74.13 77.16V77.17Z" fill="white"/>
<path d="M25.59 59.0501L25.66 59.1501L25.96 59.6001C27.09 58.8401 28.66 59.2201 29.63 59.9001C30.74 60.6801 31.49 61.8601 32.25 63.1201C32.98 64.3701 33.66 65.6101 33.87 66.9701C34.07 68.3001 33.71 69.6001 32.93 70.3701L32.79 70.3101L32.67 70.5701L32.49 70.9201L32.38 71.1401C32.47 71.2401 32.55 71.3501 32.64 71.4501L32.81 71.3301L33.08 71.1101H33.1C34.46 70.0201 34.72 68.2001 34.52 66.8601C34.29 65.4101 33.58 64.1001 32.81 62.7901C32.03 61.4801 31.23 60.2101 30.01 59.3701C28.82 58.5401 27.02 58.1101 25.6 59.0501H25.59Z" fill="white"/>
<path d="M103.39 61.16C105.74 64.14 109.67 65.72 113.43 65.21C114.67 65.04 115.87 64.63 117 64.02C120.31 62.24 122.88 58.77 123.5 54.86C123.27 54.92 123.03 54.99 122.8 55.06C121.9 59.88 117.89 63.93 113.34 64.55C109.88 65.03 106.25 63.59 104.03 60.89L103.55 61.05L103.51 61.07L103.4 61.16H103.39Z" fill="white"/>
<path d="M137.21 60.31C138.28 61.99 142.14 61.84 145.55 61.69C147.15 61.64 148.66 61.57 149.33 61.77L149.62 61.85C150.3 62.06 151.05 62.28 151.78 61.99C151.84 61.97 151.9 61.94 151.97 61.9C152.37 61.69 152.67 61.34 152.92 61.06C153.71 60.17 154.47 59.1 154.15 57.96C153.93 57.21 153.26 56.7 152.76 56.39C150.34 54.81 145.35 53.75 141.53 54.75C139.56 55.27 138.15 56.31 137.38 57.76C136.86 58.79 136.79 59.65 137.21 60.31ZM137.77 59.96C137.48 59.51 137.56 58.87 137.98 58.06C138.64 56.76 139.89 55.86 141.7 55.38C145.22 54.44 150.08 55.42 152.4 56.93C152.82 57.21 153.35 57.6 153.5 58.15C153.74 58.98 153.09 59.87 152.42 60.62C152.16 60.91 151.88 61.23 151.51 61.38C151.01 61.59 150.42 61.41 149.81 61.22L149.5 61.14C148.73 60.91 147.24 60.98 145.51 61.04C142.61 61.16 138.63 61.31 137.77 59.96Z" fill="white"/>
<path d="M147.98 79.77C147.5 77.62 145.97 75.69 143.98 74.74C141.99 73.79 139.52 73.82 137.55 74.81C136.27 75.46 135.19 76.48 134.18 77.46L134.64 77.93C135.62 76.99 136.63 76.01 137.85 75.4C139.64 74.5 141.88 74.47 143.7 75.34C145.51 76.2 146.91 77.96 147.34 79.92L147.98 79.78V79.77Z" fill="white"/>
<path d="M151.78 107.27C151.98 107.67 152.41 107.85 152.7 107.94C153.94 108.34 155.3 108.32 156.53 107.87C156.82 107.76 157.1 107.64 157.38 107.49C158.88 106.69 160.02 105.33 161.14 104.01L161.62 103.43C162.66 102.21 163.74 100.96 164.4 99.46C165.27 97.57 165.26 95.57 164.4 94.11C163.59 92.75 162.04 92.06 160.36 92.33C158.58 92.62 157.19 93.85 156.83 95.48C156.7 96.07 156.69 96.66 156.68 97.25C156.66 97.83 156.64 98.38 156.53 98.92C156.21 100.28 155.24 101.34 154.21 102.46C153.18 103.58 152.1 104.75 151.74 106.28C151.68 106.54 151.62 106.93 151.8 107.25L151.78 107.27ZM152.37 106.98C152.29 106.83 152.33 106.61 152.37 106.45C152.69 105.08 153.65 104.04 154.68 102.92C155.71 101.78 156.79 100.61 157.14 99.1C157.28 98.5 157.29 97.88 157.3 97.29C157.33 96.72 157.33 96.18 157.45 95.65C157.67 94.69 158.3 93.9 159.18 93.44C159.56 93.23 159.98 93.1 160.44 93.02C161.54 92.84 163.02 93.13 163.82 94.48L163.9 94.62C164.58 95.89 164.55 97.58 163.8 99.23C163.16 100.64 162.11 101.86 161.11 103.03L160.62 103.61C159.36 105.1 158.07 106.63 156.29 107.27C155.21 107.67 154 107.69 152.89 107.33C152.71 107.28 152.45 107.18 152.37 107V106.98Z" fill="white"/>
<path d="M114.13 105.9C115.02 106.83 116.25 107.23 117.43 107.61L117.86 107.76C119.32 108.25 120.76 108.86 122.12 109.61C123.12 110.15 124.24 110.76 125.37 110.38C125.49 110.33 125.61 110.28 125.73 110.22C126.05 110.05 126.33 109.82 126.6 109.57C127.68 108.63 128.71 107.56 129.05 106.2C129.19 105.57 129.15 104.87 128.91 104.27C128.67 104.27 128.43 104.27 128.18 104.26C128.46 104.8 128.54 105.46 128.41 106.04C128.1 107.3 127.1 108.28 126.16 109.08C125.83 109.38 125.51 109.64 125.15 109.76C124.31 110.05 123.33 109.52 122.46 109.05C121.04 108.28 119.57 107.64 118.07 107.13L117.64 107C116.53 106.64 115.38 106.26 114.61 105.46C114.12 104.95 113.84 104.18 113.93 103.49C113.93 103.42 113.95 103.36 113.97 103.29C113.75 103.27 113.53 103.25 113.31 103.23C113.29 103.3 113.28 103.37 113.27 103.43C113.18 104.3 113.53 105.27 114.14 105.91L114.13 105.9Z" fill="white"/>
<path d="M55.93 135.06L56.43 134.63C54.55 132.5 55.06 129.16 56.54 126.96C58.14 124.57 60.77 122.99 63.09 121.6L69.68 117.64C70.89 116.91 72.14 116.16 73.52 115.84C75.17 115.46 77.02 115.82 78.59 116.84C80.16 117.86 81.24 119.39 81.56 121.06L82.2 120.93C81.85 119.09 80.66 117.4 78.94 116.28C77.22 115.17 75.19 114.77 73.37 115.2C71.89 115.54 70.59 116.32 69.34 117.08L62.75 121.04C60.37 122.47 57.68 124.09 55.99 126.6C54.37 129.01 53.83 132.68 55.93 135.07V135.06Z" fill="white"/>
<path d="M40.35 174.86C41.11 175.79 42.04 176.8 43.31 177.3C44.34 177.69 45.46 177.62 46.3 177.18C46.6 177.02 46.88 176.81 47.1 176.54C48.07 175.37 47.83 173.7 47.27 172.52C46.96 171.86 46.56 171.26 46.16 170.68C45.85 170.2 45.51 169.71 45.24 169.21C44.79 168.34 44.58 166.34 44.35 164.24C43.94 160.27 43.45 155.77 41.23 154.72C40.29 154.28 39.15 154.49 37.81 155.36C36.27 156.37 35.34 157.87 35.04 159.83C34.21 165.22 38.27 172.29 40.36 174.86H40.35ZM35.69 159.93C35.97 158.16 36.8 156.82 38.17 155.91C39.31 155.18 40.22 154.97 40.93 155.31C42.82 156.21 43.3 160.7 43.69 164.31C43.93 166.58 44.14 168.55 44.65 169.51C44.94 170.04 45.29 170.56 45.61 171.04C46.02 171.63 46.39 172.18 46.67 172.79C47.13 173.74 47.36 175.19 46.59 176.11C45.87 176.96 44.52 177.04 43.55 176.67C42.44 176.23 41.57 175.29 40.87 174.44C38.35 171.35 34.97 164.59 35.69 159.92V159.93Z" fill="white"/>
<path d="M83.25 193.44C86.53 194.6 90.06 193.68 92.79 192.74C93.91 192.36 95.17 191.88 96.38 191.23C97.79 190.47 99.14 189.48 100.13 188.13C101.18 186.72 101.74 184.73 101.5 182.92C101.29 183 101.09 183.1 100.88 183.18C101.04 184.77 100.54 186.49 99.61 187.74C97.86 190.09 94.93 191.32 92.58 192.12C89.95 193.03 86.55 193.91 83.49 192.82C81.86 192.25 80.44 190.9 79.74 189.33C79.59 189.01 79.46 188.61 79.39 188.17C79.16 188.16 78.95 188.15 78.71 188.13C78.78 188.62 78.92 189.11 79.14 189.59C79.91 191.32 81.48 192.81 83.26 193.44H83.25Z" fill="white"/>
<path d="M123.88 174.69C124.95 175.79 126.47 175.56 127.93 175.32C128.93 175.17 129.95 175.01 130.83 175.28C131.15 175.38 131.45 175.52 131.78 175.68C132.11 175.85 132.46 176.02 132.83 176.13C133.86 176.43 134.9 176.22 135.82 175.72C136.76 175.21 137.59 174.41 138.18 173.55C138.67 172.82 139.08 172.02 139.47 171.25C139.99 170.24 140.47 169.29 141.15 168.46C141.36 168.21 141.58 167.98 141.79 167.74C142.47 166.98 143.18 166.21 143.4 165.17C143.48 164.77 143.47 164.35 143.37 163.94C143.15 163.98 142.94 164.04 142.72 164.08C142.8 164.4 142.81 164.72 142.74 165.04C142.57 165.9 141.95 166.58 141.29 167.31C141.06 167.55 140.83 167.8 140.63 168.06C139.91 168.94 139.38 169.97 138.88 170.96C138.49 171.71 138.1 172.49 137.62 173.19C136.58 174.71 134.75 176.01 133.01 175.51C132.68 175.42 132.37 175.27 132.05 175.1C131.71 174.94 131.36 174.77 130.98 174.65C129.97 174.36 128.86 174.52 127.8 174.69C126.45 174.89 125.16 175.09 124.32 174.24C123.64 173.53 123.64 172.54 123.79 171.44C123.56 171.55 123.33 171.66 123.1 171.78H123.09C122.99 172.88 123.08 173.9 123.85 174.7L123.88 174.69Z" fill="white"/>
<path d="M49.73 99.6401C49.89 99.8101 50.07 99.9201 50.27 100.02C50.53 100.15 50.82 100.21 51.11 100.16C51.15 100.16 51.18 100.12 51.22 100.1C51.25 100.13 51.27 100.16 51.3 100.19C51.48 100.34 51.66 100.5 51.86 100.62C52.31 100.91 52.95 100.93 53.41 100.66C53.52 100.6 53.63 100.53 53.74 100.47C54.09 100.27 54.32 99.9701 54.45 99.6001C54.52 99.4101 54.53 99.2301 54.5 99.0401C54.5 98.9101 54.47 98.7801 54.41 98.6601C54.36 98.4701 54.26 98.3001 54.11 98.1601C54.01 98.0801 53.91 98.0001 53.81 97.9201C53.75 97.8801 53.69 97.8801 53.63 97.8601C53.61 97.8201 53.58 97.7901 53.56 97.7501C53.46 97.6001 53.36 97.4401 53.23 97.3001C53.08 97.1301 52.89 96.9901 52.72 96.8601C52.66 96.8101 52.59 96.7701 52.52 96.7301C52.36 96.6501 52.2 96.5701 52.03 96.5201C51.87 96.4701 51.68 96.4501 51.52 96.4301C51.48 96.4301 51.44 96.4301 51.4 96.4301C51.22 96.4301 51.04 96.4501 50.87 96.4801C50.82 96.4801 50.77 96.5001 50.73 96.5201C50.58 96.5701 50.41 96.6301 50.27 96.7001C50.12 96.7701 49.99 96.8801 49.86 96.9901C49.84 97.0101 49.82 97.0201 49.8 97.0401C49.69 97.1401 49.57 97.2801 49.52 97.3901C49.48 97.4601 49.36 97.7101 49.35 97.7901C49.35 97.8001 49.35 97.8201 49.34 97.8301C49.32 97.9701 49.3 98.1101 49.27 98.2401C49.27 98.3101 49.28 98.3801 49.29 98.4501C49.29 98.6101 49.33 98.7501 49.39 98.9001C49.39 98.9301 49.39 98.9601 49.39 98.9901C49.43 99.1901 49.51 99.3601 49.64 99.5101C49.68 99.5701 49.72 99.6301 49.76 99.6801L49.73 99.6401ZM52.05 99.2001C52.05 99.2001 52.09 99.1401 52.1 99.1101C52.08 99.1401 52.07 99.1701 52.06 99.2001C52.06 99.2001 52.05 99.2001 52.04 99.2001H52.05ZM51.78 99.6401C51.8 99.6401 51.81 99.6301 51.83 99.6201C51.81 99.6201 51.79 99.6301 51.78 99.6401Z" fill="black"/>
<path d="M10.03 92.58C9.62 92.79 9.35 93.17 8.96 93.41C8.56 93.64 8.05 93.73 7.61 93.89C7.61 93.89 7.6 93.89 7.59 93.89C8.3 93.5 9.01 93.11 9.72 92.73C9.96 92.6 9.76 92.22 9.51 92.35C8.72 92.77 7.93 93.19 7.14 93.61C6.85 93.76 6.57 93.95 6.27 94.09C5.86 94.28 5.71 94.21 5.4 93.91C4.79 93.32 4.33 92.69 3.9 91.95C3.72 91.63 3.51 91.32 3.42 90.96C3.33 90.59 3.23 90.41 3 90.09C2.96 90.04 2.91 90.01 2.86 89.98C2.77 89.81 2.66 89.64 2.55 89.48C2.51 89.41 2.49 89.34 2.45 89.27C2.34 89.04 1.99 89.23 2.1 89.45C2.34 89.93 2.45 90.42 2.62 90.92C2.64 90.96 2.66 91 2.68 91.04C2.73 91.27 2.76 91.51 2.87 91.75C3.06 92.18 3.32 92.63 3.58 93.01C3.6 93.03 3.62 93.06 3.63 93.08C3.63 93.21 3.65 93.34 3.7 93.47C3.79 93.72 3.98 93.86 3.96 94.14C3.94 94.37 3.91 94.54 3.94 94.77C3.94 94.81 3.96 94.84 3.98 94.88C3.96 94.92 3.94 94.97 3.93 95.02C3.83 95.15 3.72 95.27 3.6 95.38C3.23 95.71 2.73 95.83 2.33 96.09C1.94 96.34 1.64 96.69 1.2 96.89C1.02 96.97 0.839996 97.05 0.689996 97.19C0.569996 97.3 0.469996 97.52 0.299996 97.57C-0.250004 97.74 0.0599962 98.53 0.579996 98.3C0.609996 98.29 0.629996 98.26 0.659996 98.25C0.749996 98.32 0.869996 98.34 1.01 98.25C1.69 97.85 2.55 97.86 3.31 97.76C4.03 97.67 4.74 97.55 5.45 97.42C5.46 97.44 5.47 97.46 5.48 97.48C5.64 97.73 5.84 97.95 6.02 98.19C6.17 98.49 6.33 98.78 6.51 99.06C6.61 99.22 6.72 99.37 6.83 99.52C6.86 99.61 6.88 99.71 6.91 99.81C7.09 100.31 7.4 100.73 7.66 101.19C7.72 101.29 7.81 101.31 7.9 101.31C8.04 101.58 8.19 101.85 8.33 102.12C8.49 102.44 9.04 102.24 8.92 101.9C8.73 101.4 8.65 100.94 8.4 100.46C8.32 100.2 8.26 99.93 8.15 99.67C8 99.29 7.8 98.93 7.59 98.57C7.51 98.3 7.42 98.04 7.31 97.78C7.19 97.49 7.03 97.23 6.89 96.97C6.85 96.49 6.98 96.01 7.01 95.52C7.01 95.48 7.01 95.45 7.01 95.42C7.37 95.18 7.84 95.02 8.17 94.85C9.02 94.4 9.78 93.83 10.44 93.14C10.71 92.86 10.39 92.4 10.03 92.58ZM4.72 96.11C4.72 96.11 4.72 96.13 4.72 96.14C4.73 96.16 4.74 96.17 4.75 96.19C4.67 96.19 4.59 96.19 4.52 96.19C4.59 96.18 4.66 96.15 4.72 96.12V96.11ZM6.19 97.31C6.19 97.31 6.17 97.26 6.16 97.24C6.16 97.24 6.17 97.23 6.18 97.22C6.18 97.25 6.18 97.27 6.2 97.3L6.19 97.31ZM5.77 94.7C5.64 94.78 5.5 94.86 5.35 94.94C5.22 94.8 5.11 94.64 5.01 94.47C5.13 94.54 5.25 94.61 5.37 94.65C5.51 94.69 5.64 94.71 5.77 94.71V94.7ZM6.08 95.27C6.02 95.33 5.98 95.4 5.93 95.47C5.81 95.49 5.72 95.59 5.74 95.74C5.74 95.77 5.76 95.8 5.77 95.83C5.73 95.97 5.79 96.13 5.9 96.23C5.94 96.32 5.98 96.42 6.03 96.51C5.91 96.45 5.79 96.4 5.67 96.36C5.52 96.19 5.31 96.06 5.19 95.88C5.16 95.84 5.12 95.83 5.08 95.81C5.13 95.73 5.15 95.65 5.17 95.56C5.23 95.58 5.29 95.59 5.35 95.58C5.62 95.51 5.85 95.4 6.08 95.27Z" fill="black"/>
<path d="M28.88 95.3401C28.22 95.6801 27.8 96.2801 27.18 96.6401C26.54 97.0101 25.74 97.1401 25.04 97.4001C25.03 97.4001 25.02 97.4001 25.01 97.4001C26.13 96.7801 27.26 96.1801 28.38 95.5601C28.77 95.3501 28.44 94.7501 28.06 94.9601C26.81 95.6201 25.56 96.2801 24.31 96.9501C23.85 97.1901 23.41 97.4801 22.94 97.7001C22.3 98.0001 22.04 97.8901 21.56 97.4201C20.59 96.4801 19.86 95.4801 19.19 94.3101C18.9 93.8101 18.57 93.3201 18.43 92.7501C18.29 92.1601 18.13 91.8801 17.76 91.3701C17.7 91.2901 17.62 91.2401 17.54 91.2001C17.39 90.9201 17.22 90.6601 17.04 90.4001C16.98 90.2901 16.94 90.1801 16.88 90.0701C16.7 89.7101 16.15 90.0101 16.33 90.3601C16.71 91.1201 16.88 91.8901 17.16 92.6901C17.18 92.7601 17.22 92.8201 17.25 92.8901C17.32 93.2601 17.39 93.6401 17.55 94.0101C17.84 94.6901 18.26 95.4001 18.67 96.0101C18.7 96.0501 18.73 96.0901 18.76 96.1301C18.77 96.3401 18.79 96.5401 18.87 96.7401C19.02 97.1301 19.31 97.3501 19.27 97.8101C19.24 98.1701 19.19 98.4501 19.24 98.8101C19.24 98.8701 19.27 98.9301 19.3 98.9801C19.27 99.0501 19.24 99.1301 19.22 99.2001C19.06 99.3901 18.89 99.5901 18.69 99.7601C18.11 100.28 17.32 100.47 16.68 100.89C16.06 101.29 15.58 101.84 14.9 102.15C14.61 102.28 14.32 102.41 14.08 102.63C13.89 102.81 13.73 103.15 13.47 103.23C12.6 103.5 13.08 104.75 13.9 104.38C13.95 104.36 13.98 104.32 14.02 104.3C14.16 104.41 14.36 104.44 14.57 104.3C15.64 103.66 17.01 103.68 18.22 103.52C19.35 103.37 20.48 103.18 21.6 102.99C21.62 103.02 21.63 103.05 21.65 103.08C21.9 103.48 22.22 103.83 22.51 104.2C22.75 104.67 23.01 105.13 23.29 105.58C23.45 105.83 23.63 106.07 23.8 106.31C23.84 106.46 23.88 106.61 23.93 106.76C24.22 107.55 24.7 108.22 25.12 108.94C25.21 109.1 25.36 109.14 25.5 109.13C25.73 109.56 25.96 109.98 26.18 110.42C26.43 110.92 27.31 110.6 27.11 110.07C26.81 109.27 26.68 108.54 26.29 107.79C26.16 107.38 26.06 106.95 25.89 106.54C25.64 105.95 25.33 105.37 25 104.8C24.87 104.38 24.73 103.96 24.56 103.56C24.37 103.11 24.12 102.69 23.89 102.27C23.82 101.5 24.03 100.74 24.09 99.9801C24.09 99.9201 24.09 99.8701 24.07 99.8201C24.65 99.4401 25.39 99.1901 25.9 98.9201C27.24 98.2101 28.44 97.3001 29.5 96.2101C29.93 95.7601 29.42 95.0401 28.86 95.3201L28.88 95.3401ZM20.48 100.92C20.48 100.92 20.48 100.95 20.48 100.96C20.5 100.99 20.51 101.02 20.52 101.04C20.4 101.04 20.27 101.03 20.15 101.03C20.27 101.01 20.37 100.96 20.47 100.92H20.48ZM22.81 102.83C22.81 102.83 22.77 102.76 22.76 102.73C22.76 102.73 22.78 102.71 22.79 102.71C22.8 102.75 22.81 102.79 22.82 102.84L22.81 102.83ZM22.13 98.7001C21.91 98.8301 21.69 98.9501 21.47 99.0701C21.27 98.8401 21.09 98.5901 20.93 98.3201C21.12 98.4301 21.31 98.5401 21.51 98.6001C21.73 98.6701 21.94 98.6901 22.14 98.6901L22.13 98.7001ZM22.62 99.6001C22.53 99.7001 22.46 99.8101 22.39 99.9201C22.2 99.9501 22.05 100.11 22.09 100.35C22.09 100.4 22.12 100.45 22.13 100.5C22.13 100.5 22.13 100.5 22.13 100.51C22.07 100.73 22.17 100.98 22.34 101.13C22.4 101.28 22.47 101.43 22.55 101.57C22.36 101.47 22.17 101.4 21.97 101.33C21.73 101.07 21.41 100.86 21.21 100.57C21.17 100.5 21.1 100.49 21.04 100.46C21.12 100.34 21.16 100.2 21.19 100.06C21.28 100.1 21.38 100.11 21.46 100.09C21.89 99.9901 22.25 99.8001 22.61 99.6001H22.62Z" fill="black"/>
<path d="M36.14 105.6C36.23 105.54 36.33 105.48 36.42 105.42C36.6 105.3 36.81 105.21 37.01 105.11C37.23 105 37.5 104.96 37.74 105.04C37.97 105.11 38.21 105.29 38.31 105.5C38.42 105.72 38.47 105.99 38.38 106.23C38.29 106.47 38.14 106.67 37.91 106.8C37.72 106.91 37.53 107.03 37.33 107.12C37.23 107.16 37.13 107.21 37.03 107.25C36.95 107.29 36.87 107.32 36.79 107.35C36.65 107.4 36.56 107.44 36.4 107.42C36.37 107.42 36.34 107.42 36.32 107.41C36.17 107.41 36.03 107.36 35.9 107.29C35.77 107.21 35.67 107.1 35.59 106.96C35.52 106.82 35.48 106.68 35.49 106.52C35.49 106.37 35.54 106.23 35.62 106.1C35.67 105.99 35.74 105.9 35.83 105.81C35.92 105.73 36.04 105.66 36.15 105.59L36.14 105.6Z" fill="black"/>
<path d="M29.74 88.5199C29.77 88.5799 29.79 88.6399 29.82 88.6999C29.87 88.8199 29.91 88.9399 29.96 89.0599C30.01 89.2499 30.01 89.43 29.96 89.62C29.96 89.75 29.92 89.86 29.85 89.97C29.79 90.15 29.68 90.3 29.54 90.43C29.43 90.51 29.33 90.58 29.22 90.66C29.1 90.7 28.98 90.75 28.86 90.8C28.67 90.85 28.49 90.85 28.3 90.8C28.11 90.78 27.94 90.72 27.78 90.62C27.73 90.58 27.67 90.5499 27.62 90.5199C27.59 90.4999 27.57 90.49 27.54 90.47C27.54 90.47 27.53 90.4699 27.52 90.4599C27.52 90.4599 27.52 90.4599 27.51 90.4599C27.4 90.3799 27.3 90.2899 27.2 90.2099C27.05 90.0599 26.94 89.88 26.88 89.68C26.84 89.62 26.81 89.55 26.81 89.48C26.8 89.35 26.79 89.21 26.77 89.08C26.77 89.08 26.77 89.0799 26.77 89.0699C26.77 88.8699 26.82 88.68 26.91 88.51C26.98 88.32 27.09 88.1599 27.24 88.0199C27.35 87.9399 27.46 87.8599 27.57 87.7799C27.81 87.6499 28.07 87.5899 28.35 87.5999C28.48 87.6099 28.61 87.6199 28.75 87.6699C29.03 87.7499 29.08 87.7999 29.27 87.9599C29.45 88.1099 29.56 88.18 29.67 88.43C29.67 88.43 29.67 88.4499 29.68 88.4499C29.69 88.4799 29.71 88.51 29.72 88.54L29.74 88.5199Z" fill="black"/>
<path d="M16.36 111.4C16.43 111.37 16.51 111.33 16.58 111.3C16.65 111.27 16.72 111.24 16.79 111.2C16.93 111.12 17.06 111.03 17.19 110.95C17.34 110.86 17.51 110.83 17.69 110.83C17.86 110.83 18.02 110.88 18.16 110.97C18.46 111.15 18.64 111.49 18.63 111.84C18.62 112.18 18.42 112.5 18.12 112.66C17.97 112.74 17.8 112.78 17.62 112.78C17.45 112.78 17.29 112.73 17.15 112.64C17.04 112.58 16.92 112.51 16.81 112.45C16.7 112.41 16.58 112.36 16.47 112.32C16.39 112.29 16.31 112.25 16.25 112.19C16.17 112.11 16.13 112 16.12 111.89C16.12 111.8 16.12 111.72 16.16 111.64C16.2 111.54 16.28 111.45 16.38 111.4H16.36Z" fill="black"/>
<path d="M73.1 145.89C72.68 146.1 72.42 146.48 72.02 146.71C71.62 146.95 71.11 147.03 70.67 147.19C70.67 147.19 70.66 147.19 70.65 147.19C71.36 146.8 72.07 146.42 72.78 146.03C73.02 145.9 72.82 145.52 72.58 145.65C71.79 146.07 71 146.49 70.21 146.91C69.92 147.06 69.64 147.25 69.34 147.39C68.93 147.58 68.77 147.51 68.47 147.22C67.86 146.62 67.4 145.99 66.97 145.25C66.79 144.93 66.58 144.62 66.49 144.26C66.4 143.89 66.3 143.71 66.07 143.39C66.03 143.34 65.98 143.31 65.93 143.29C65.83 143.11 65.73 142.95 65.61 142.79C65.57 142.72 65.55 142.65 65.51 142.58C65.39 142.35 65.05 142.54 65.16 142.76C65.4 143.24 65.5 143.73 65.68 144.23C65.69 144.27 65.72 144.31 65.74 144.35C65.78 144.59 65.82 144.82 65.92 145.06C66.11 145.49 66.37 145.94 66.63 146.32C66.65 146.34 66.67 146.37 66.68 146.4C66.68 146.53 66.7 146.65 66.75 146.78C66.85 147.03 67.03 147.17 67 147.45C66.98 147.68 66.95 147.85 66.98 148.08C66.98 148.12 67 148.15 67.02 148.18C67 148.22 66.99 148.27 66.97 148.32C66.87 148.44 66.76 148.57 66.64 148.68C66.27 149.01 65.78 149.13 65.37 149.39C64.98 149.64 64.68 149.99 64.25 150.18C64.06 150.26 63.89 150.34 63.73 150.48C63.61 150.59 63.51 150.81 63.35 150.86C62.8 151.03 63.11 151.82 63.62 151.59C63.65 151.58 63.67 151.55 63.7 151.54C63.79 151.61 63.91 151.63 64.05 151.54C64.73 151.14 65.59 151.15 66.35 151.05C67.07 150.96 67.78 150.84 68.49 150.71C68.5 150.73 68.51 150.75 68.53 150.77C68.69 151.02 68.89 151.24 69.07 151.48C69.22 151.78 69.38 152.07 69.56 152.35C69.66 152.51 69.77 152.66 69.88 152.81C69.91 152.9 69.93 153 69.96 153.1C70.14 153.6 70.45 154.02 70.71 154.48C70.77 154.58 70.86 154.6 70.95 154.6C71.09 154.87 71.24 155.14 71.38 155.42C71.53 155.73 72.09 155.54 71.97 155.2C71.78 154.7 71.7 154.24 71.45 153.76C71.37 153.5 71.31 153.23 71.2 152.97C71.05 152.59 70.85 152.23 70.64 151.87C70.56 151.61 70.47 151.34 70.36 151.08C70.24 150.79 70.09 150.53 69.94 150.27C69.9 149.78 70.03 149.31 70.07 148.82C70.07 148.79 70.07 148.75 70.06 148.72C70.43 148.48 70.89 148.32 71.22 148.15C72.07 147.7 72.83 147.13 73.49 146.44C73.76 146.16 73.44 145.7 73.09 145.88L73.1 145.89ZM67.79 149.42C67.79 149.42 67.79 149.44 67.79 149.45C67.8 149.47 67.81 149.48 67.82 149.5C67.74 149.5 67.66 149.5 67.59 149.5C67.66 149.5 67.73 149.46 67.79 149.43V149.42ZM69.26 150.62C69.26 150.62 69.24 150.58 69.23 150.56C69.23 150.56 69.24 150.56 69.25 150.55C69.25 150.58 69.26 150.6 69.27 150.63L69.26 150.62ZM68.84 148.01C68.7 148.09 68.56 148.18 68.42 148.25C68.29 148.11 68.18 147.95 68.08 147.78C68.2 147.85 68.32 147.92 68.44 147.96C68.58 148 68.71 148.02 68.84 148.02V148.01ZM69.15 148.58C69.1 148.64 69.05 148.71 69 148.78C68.88 148.8 68.79 148.9 68.81 149.05C68.81 149.08 68.83 149.11 68.84 149.14C68.8 149.28 68.87 149.44 68.97 149.53C69.01 149.63 69.05 149.72 69.1 149.81C68.98 149.75 68.86 149.7 68.74 149.66C68.59 149.49 68.38 149.36 68.26 149.18C68.23 149.14 68.19 149.13 68.15 149.1C68.2 149.02 68.23 148.94 68.25 148.85C68.31 148.87 68.37 148.88 68.42 148.87C68.69 148.81 68.92 148.69 69.15 148.56V148.58Z" fill="black"/>
<path d="M91.95 148.65C91.29 148.99 90.88 149.59 90.25 149.95C89.61 150.32 88.81 150.45 88.11 150.71C88.1 150.71 88.09 150.71 88.08 150.72C89.2 150.09 90.33 149.5 91.45 148.88C91.84 148.67 91.52 148.07 91.13 148.28C89.88 148.94 88.63 149.61 87.38 150.27C86.92 150.51 86.48 150.8 86.01 151.02C85.36 151.32 85.11 151.21 84.63 150.74C83.66 149.8 82.93 148.8 82.26 147.63C81.97 147.12 81.64 146.63 81.5 146.07C81.36 145.48 81.2 145.2 80.83 144.69C80.77 144.6 80.69 144.56 80.61 144.52C80.46 144.24 80.29 143.98 80.11 143.72C80.05 143.61 80.01 143.5 79.95 143.39C79.77 143.03 79.22 143.33 79.4 143.69C79.78 144.45 79.95 145.22 80.23 146.02C80.26 146.09 80.3 146.15 80.32 146.22C80.39 146.59 80.46 146.97 80.62 147.34C80.91 148.02 81.33 148.73 81.74 149.34C81.76 149.38 81.8 149.42 81.82 149.46C81.83 149.67 81.84 149.87 81.92 150.07C82.07 150.46 82.36 150.68 82.32 151.14C82.29 151.5 82.24 151.78 82.29 152.14C82.29 152.2 82.32 152.26 82.35 152.31C82.32 152.38 82.29 152.46 82.27 152.53C82.11 152.73 81.94 152.92 81.74 153.09C81.16 153.61 80.37 153.8 79.73 154.22C79.11 154.62 78.63 155.17 77.95 155.48C77.66 155.61 77.37 155.74 77.13 155.96C76.94 156.14 76.78 156.48 76.52 156.56C75.65 156.83 76.14 158.08 76.95 157.72C77 157.7 77.03 157.66 77.07 157.64C77.21 157.75 77.41 157.78 77.62 157.64C78.69 157 80.06 157.02 81.27 156.86C82.4 156.71 83.53 156.53 84.65 156.33C84.67 156.36 84.69 156.39 84.71 156.42C84.97 156.82 85.28 157.17 85.57 157.54C85.81 158.01 86.07 158.47 86.35 158.91C86.51 159.16 86.69 159.4 86.86 159.64C86.91 159.79 86.94 159.94 87 160.09C87.29 160.88 87.77 161.55 88.19 162.27C88.28 162.43 88.43 162.47 88.57 162.46C88.79 162.89 89.03 163.31 89.25 163.75C89.5 164.25 90.38 163.93 90.18 163.4C89.88 162.6 89.75 161.87 89.36 161.12C89.23 160.71 89.13 160.28 88.96 159.88C88.71 159.29 88.41 158.71 88.07 158.14C87.94 157.72 87.8 157.3 87.63 156.9C87.44 156.45 87.2 156.03 86.96 155.61C86.9 154.84 87.1 154.08 87.16 153.32C87.16 153.27 87.16 153.21 87.14 153.16C87.72 152.78 88.46 152.53 88.98 152.26C90.32 151.55 91.52 150.64 92.58 149.55C93.01 149.1 92.5 148.38 91.94 148.66L91.95 148.65ZM83.55 154.23C83.55 154.23 83.55 154.26 83.55 154.27C83.56 154.3 83.58 154.32 83.59 154.35C83.47 154.35 83.35 154.34 83.22 154.34C83.34 154.32 83.44 154.27 83.54 154.23H83.55ZM85.88 156.14C85.88 156.14 85.85 156.07 85.83 156.03C85.83 156.03 85.85 156.02 85.86 156.01C85.87 156.05 85.88 156.09 85.89 156.14H85.88ZM85.2 152.01C84.98 152.14 84.76 152.27 84.54 152.38C84.34 152.15 84.16 151.9 84 151.63C84.19 151.74 84.38 151.85 84.58 151.92C84.8 151.99 85.01 152.01 85.2 152.01ZM85.69 152.9C85.61 153 85.53 153.11 85.46 153.22C85.27 153.25 85.12 153.41 85.16 153.65C85.16 153.7 85.19 153.75 85.2 153.8C85.14 154.02 85.24 154.27 85.41 154.42C85.47 154.57 85.54 154.72 85.62 154.86C85.43 154.76 85.24 154.69 85.05 154.62C84.81 154.36 84.49 154.15 84.29 153.86C84.25 153.79 84.18 153.78 84.12 153.75C84.19 153.63 84.24 153.49 84.27 153.35C84.36 153.38 84.46 153.4 84.54 153.38C84.97 153.28 85.34 153.09 85.69 152.89V152.9Z" fill="black"/>
<path d="M99.21 158.91C99.3 158.85 99.4 158.79 99.49 158.73C99.67 158.61 99.88 158.52 100.07 158.42C100.29 158.31 100.56 158.27 100.8 158.35C101.03 158.42 101.27 158.6 101.37 158.82C101.48 159.04 101.53 159.31 101.44 159.55C101.35 159.79 101.2 159.99 100.97 160.12C100.78 160.23 100.59 160.35 100.39 160.44C100.29 160.49 100.19 160.53 100.08 160.58C100 160.62 99.92 160.65 99.84 160.68C99.7 160.73 99.61 160.77 99.44 160.76C99.41 160.76 99.39 160.76 99.36 160.75C99.21 160.75 99.07 160.71 98.94 160.63C98.81 160.55 98.7 160.44 98.63 160.3C98.56 160.16 98.52 160.02 98.53 159.86C98.53 159.71 98.58 159.57 98.66 159.44C98.71 159.33 98.78 159.24 98.87 159.15C98.96 159.07 99.08 159 99.19 158.93L99.21 158.91Z" fill="black"/>
<path d="M92.81 141.83C92.84 141.89 92.86 141.95 92.89 142.01C92.94 142.13 92.98 142.26 93.03 142.37C93.08 142.56 93.08 142.74 93.03 142.93C93.03 143.06 92.99 143.17 92.92 143.28C92.86 143.46 92.76 143.62 92.61 143.74C92.5 143.82 92.4 143.89 92.29 143.97C92.17 144.02 92.05 144.06 91.93 144.11C91.74 144.16 91.56 144.16 91.37 144.11C91.18 144.09 91.01 144.03 90.85 143.93C90.8 143.9 90.74 143.86 90.69 143.83C90.66 143.81 90.64 143.8 90.61 143.78C90.61 143.78 90.6 143.78 90.59 143.77C90.59 143.77 90.59 143.77 90.58 143.77C90.47 143.69 90.37 143.6 90.27 143.52C90.12 143.37 90.01 143.19 89.95 142.99C89.91 142.93 89.88 142.86 89.88 142.79C89.87 142.66 89.85 142.53 89.84 142.39C89.84 142.39 89.84 142.39 89.84 142.38C89.84 142.18 89.89 141.99 89.98 141.82C90.05 141.63 90.16 141.47 90.31 141.33C90.42 141.25 90.53 141.17 90.64 141.09C90.89 140.96 91.14 140.9 91.42 140.91C91.56 140.92 91.68 140.93 91.82 140.98C92.1 141.06 92.15 141.11 92.34 141.27C92.52 141.42 92.63 141.49 92.74 141.74C92.74 141.74 92.74 141.75 92.75 141.76C92.76 141.79 92.78 141.82 92.79 141.85L92.81 141.83Z" fill="black"/>
<path d="M79.43 164.72C79.5 164.68 79.58 164.65 79.65 164.62C79.72 164.58 79.79 164.56 79.86 164.52C80 164.44 80.13 164.35 80.26 164.27C80.42 164.19 80.58 164.15 80.76 164.15C80.93 164.15 81.09 164.21 81.23 164.29C81.53 164.47 81.71 164.81 81.7 165.16C81.69 165.5 81.49 165.82 81.19 165.98C81.04 166.06 80.87 166.1 80.69 166.1C80.52 166.1 80.36 166.04 80.22 165.96C80.11 165.9 79.99 165.83 79.87 165.77C79.76 165.72 79.64 165.68 79.53 165.63C79.45 165.6 79.37 165.56 79.31 165.5C79.23 165.42 79.19 165.31 79.18 165.2C79.18 165.11 79.18 165.03 79.22 164.95C79.26 164.85 79.34 164.76 79.43 164.71V164.72Z" fill="black"/>
<path d="M58.55 38.22C58.14 38.44 57.87 38.81 57.47 39.05C57.07 39.28 56.56 39.37 56.12 39.53C56.12 39.53 56.11 39.53 56.1 39.53C56.81 39.14 57.52 38.76 58.23 38.37C58.47 38.24 58.27 37.86 58.02 37.99C57.23 38.41 56.44 38.83 55.65 39.24C55.36 39.4 55.08 39.58 54.78 39.71C54.37 39.9 54.22 39.83 53.91 39.54C53.3 38.95 52.84 38.31 52.41 37.58C52.23 37.26 52.02 36.95 51.93 36.59C51.84 36.22 51.74 36.04 51.51 35.72C51.47 35.67 51.42 35.64 51.37 35.61C51.28 35.44 51.17 35.27 51.05 35.11C51.01 35.04 50.99 34.97 50.95 34.9C50.83 34.67 50.49 34.86 50.6 35.09C50.84 35.57 50.95 36.06 51.12 36.56C51.13 36.6 51.16 36.64 51.18 36.68C51.23 36.92 51.27 37.15 51.37 37.39C51.56 37.82 51.82 38.27 52.08 38.65C52.1 38.67 52.12 38.7 52.14 38.72C52.14 38.85 52.15 38.98 52.21 39.11C52.3 39.36 52.48 39.5 52.46 39.78C52.44 40.01 52.41 40.18 52.44 40.41C52.44 40.45 52.46 40.49 52.48 40.52C52.46 40.56 52.45 40.61 52.43 40.66C52.32 40.78 52.22 40.91 52.1 41.02C51.73 41.35 51.24 41.47 50.83 41.73C50.44 41.98 50.14 42.33 49.71 42.52C49.52 42.6 49.34 42.68 49.19 42.82C49.07 42.93 48.97 43.15 48.81 43.2C48.26 43.37 48.56 44.16 49.08 43.93C49.11 43.92 49.13 43.89 49.16 43.88C49.25 43.95 49.37 43.97 49.51 43.88C50.19 43.47 51.05 43.48 51.81 43.39C52.53 43.3 53.24 43.18 53.95 43.05C53.96 43.07 53.97 43.09 53.98 43.11C54.14 43.36 54.34 43.58 54.52 43.82C54.67 44.12 54.83 44.41 55.01 44.69C55.11 44.85 55.22 45 55.33 45.15C55.36 45.24 55.38 45.34 55.41 45.44C55.59 45.94 55.9 46.36 56.16 46.82C56.22 46.92 56.31 46.94 56.4 46.94C56.54 47.21 56.69 47.48 56.83 47.76C56.99 48.07 57.54 47.87 57.42 47.54C57.23 47.04 57.15 46.58 56.9 46.1C56.82 45.84 56.76 45.57 56.65 45.31C56.5 44.93 56.3 44.57 56.09 44.21C56.01 43.95 55.92 43.68 55.82 43.42C55.7 43.14 55.55 42.87 55.4 42.61C55.36 42.12 55.49 41.65 55.53 41.16C55.53 41.12 55.53 41.09 55.52 41.06C55.89 40.82 56.36 40.66 56.68 40.49C57.53 40.04 58.29 39.47 58.95 38.78C59.22 38.5 58.9 38.04 58.54 38.22H58.55ZM53.24 41.75C53.24 41.75 53.24 41.77 53.24 41.78C53.25 41.79 53.26 41.81 53.27 41.83C53.19 41.83 53.11 41.83 53.04 41.83C53.11 41.82 53.18 41.79 53.24 41.76V41.75ZM54.71 42.95C54.71 42.95 54.69 42.91 54.68 42.89C54.68 42.89 54.69 42.89 54.7 42.87C54.7 42.9 54.71 42.92 54.72 42.95H54.71ZM54.28 40.34C54.14 40.42 54 40.5 53.86 40.58C53.73 40.44 53.62 40.28 53.52 40.11C53.64 40.18 53.76 40.25 53.88 40.29C54.02 40.33 54.15 40.35 54.28 40.35V40.34ZM54.59 40.91C54.54 40.97 54.49 41.04 54.44 41.11C54.32 41.13 54.23 41.23 54.25 41.38C54.25 41.41 54.27 41.44 54.28 41.47C54.24 41.61 54.3 41.77 54.42 41.86C54.46 41.95 54.5 42.05 54.55 42.14C54.43 42.08 54.31 42.03 54.19 41.99C54.04 41.82 53.83 41.69 53.71 41.51C53.68 41.47 53.64 41.46 53.6 41.44C53.65 41.36 53.68 41.27 53.7 41.19C53.76 41.21 53.82 41.22 53.87 41.21C54.14 41.15 54.37 41.03 54.6 40.9L54.59 40.91Z" fill="black"/>
<path d="M77.4 40.98C76.74 41.32 76.33 41.92 75.7 42.28C75.06 42.66 74.26 42.79 73.56 43.04C73.55 43.04 73.54 43.04 73.53 43.04C74.65 42.41 75.78 41.82 76.9 41.2C77.28 40.99 76.96 40.39 76.58 40.6C75.33 41.26 74.08 41.92 72.83 42.59C72.37 42.83 71.93 43.12 71.46 43.34C70.81 43.64 70.56 43.53 70.08 43.06C69.11 42.12 68.38 41.12 67.71 39.95C67.42 39.44 67.09 38.96 66.95 38.39C66.81 37.8 66.64 37.52 66.28 37.01C66.22 36.93 66.14 36.88 66.06 36.84C65.91 36.56 65.74 36.3 65.56 36.04C65.5 35.93 65.46 35.82 65.4 35.71C65.22 35.35 64.67 35.65 64.85 36C65.23 36.77 65.4 37.54 65.68 38.33C65.7 38.4 65.74 38.46 65.77 38.52C65.84 38.89 65.91 39.27 66.07 39.64C66.36 40.32 66.78 41.03 67.19 41.64C67.22 41.68 67.25 41.72 67.27 41.76C67.28 41.97 67.3 42.17 67.37 42.37C67.52 42.76 67.81 42.98 67.77 43.44C67.74 43.8 67.69 44.08 67.74 44.44C67.74 44.5 67.77 44.56 67.79 44.61C67.76 44.68 67.74 44.76 67.71 44.83C67.55 45.03 67.38 45.22 67.18 45.39C66.6 45.91 65.81 46.1 65.17 46.52C64.55 46.92 64.07 47.47 63.39 47.78C63.1 47.91 62.81 48.04 62.57 48.26C62.38 48.43 62.22 48.78 61.96 48.86C61.09 49.13 61.57 50.38 62.39 50.02C62.44 50 62.47 49.96 62.51 49.94C62.65 50.05 62.85 50.08 63.06 49.94C64.13 49.3 65.5 49.32 66.71 49.16C67.84 49.01 68.97 48.83 70.09 48.63C70.11 48.66 70.12 48.69 70.14 48.72C70.4 49.12 70.71 49.47 71 49.84C71.24 50.31 71.5 50.77 71.78 51.22C71.94 51.47 72.12 51.71 72.29 51.95C72.34 52.1 72.37 52.25 72.43 52.4C72.72 53.19 73.2 53.86 73.62 54.58C73.71 54.74 73.86 54.78 74 54.77C74.22 55.2 74.46 55.62 74.68 56.06C74.93 56.56 75.81 56.24 75.61 55.71C75.31 54.91 75.18 54.18 74.79 53.43C74.66 53.02 74.56 52.59 74.39 52.19C74.15 51.6 73.83 51.02 73.5 50.45C73.37 50.03 73.23 49.61 73.06 49.21C72.87 48.76 72.63 48.34 72.39 47.92C72.32 47.15 72.53 46.39 72.59 45.63C72.59 45.58 72.59 45.52 72.57 45.47C73.15 45.09 73.89 44.84 74.4 44.57C75.74 43.86 76.94 42.95 77.99 41.86C78.42 41.41 77.91 40.69 77.35 40.97L77.4 40.98ZM68.99 46.56C68.99 46.56 68.99 46.59 68.99 46.6C69.01 46.63 69.02 46.66 69.03 46.68C68.91 46.68 68.78 46.67 68.66 46.67C68.78 46.65 68.88 46.6 68.98 46.56H68.99ZM71.32 48.47C71.32 48.47 71.28 48.4 71.27 48.37C71.27 48.37 71.29 48.36 71.29 48.35C71.29 48.39 71.31 48.43 71.32 48.48V48.47ZM70.65 44.34C70.44 44.47 70.22 44.6 69.99 44.71C69.79 44.48 69.61 44.23 69.45 43.96C69.64 44.07 69.82 44.18 70.03 44.25C70.25 44.32 70.46 44.34 70.65 44.34ZM71.14 45.24C71.05 45.34 70.98 45.45 70.91 45.56C70.72 45.59 70.57 45.75 70.61 45.99C70.61 46.04 70.64 46.09 70.65 46.14C70.59 46.36 70.69 46.61 70.86 46.77C70.92 46.92 70.99 47.07 71.07 47.21C70.88 47.12 70.69 47.04 70.49 46.97C70.25 46.71 69.93 46.5 69.73 46.21C69.69 46.15 69.62 46.13 69.56 46.1C69.64 45.98 69.68 45.84 69.71 45.7C69.8 45.73 69.9 45.75 69.98 45.73C70.41 45.63 70.77 45.44 71.13 45.24H71.14Z" fill="black"/>
<path d="M84.65 51.24C84.74 51.18 84.84 51.12 84.93 51.06C85.11 50.94 85.32 50.85 85.52 50.75C85.74 50.64 86.01 50.6 86.25 50.67C86.48 50.74 86.72 50.92 86.82 51.14C86.93 51.37 86.98 51.63 86.89 51.87C86.81 52.11 86.65 52.31 86.42 52.44C86.23 52.55 86.04 52.67 85.84 52.76C85.74 52.8 85.64 52.85 85.54 52.89C85.46 52.93 85.38 52.96 85.29 52.99C85.15 53.04 85.06 53.08 84.9 53.06C84.87 53.06 84.84 53.06 84.82 53.05C84.67 53.05 84.53 53 84.4 52.93C84.27 52.85 84.17 52.74 84.09 52.6C84.02 52.46 83.98 52.32 83.99 52.16C83.99 52.01 84.04 51.87 84.12 51.74C84.17 51.63 84.24 51.54 84.33 51.45C84.42 51.37 84.54 51.3 84.65 51.23V51.24Z" fill="black"/>
<path d="M78.26 34.17C78.29 34.23 78.32 34.29 78.34 34.35C78.38 34.47 78.43 34.59 78.48 34.71C78.53 34.9 78.53 35.08 78.48 35.27C78.48 35.4 78.44 35.51 78.37 35.62C78.31 35.8 78.2 35.95 78.06 36.08C77.95 36.15 77.85 36.23 77.74 36.31C77.62 36.35 77.5 36.4 77.38 36.45C77.19 36.5 77.01 36.5 76.82 36.45C76.63 36.44 76.46 36.37 76.3 36.27C76.25 36.24 76.19 36.2 76.14 36.17C76.11 36.15 76.09 36.14 76.06 36.12C76.06 36.12 76.05 36.12 76.04 36.11C76.04 36.11 76.04 36.11 76.03 36.11C75.92 36.03 75.82 35.94 75.72 35.86C75.57 35.71 75.46 35.53 75.4 35.33C75.36 35.27 75.33 35.2 75.33 35.13C75.32 35 75.3 34.87 75.29 34.73C75.29 34.73 75.29 34.73 75.29 34.71C75.29 34.51 75.34 34.32 75.43 34.15C75.5 33.96 75.61 33.8 75.76 33.66C75.87 33.58 75.98 33.5 76.09 33.42C76.33 33.29 76.59 33.23 76.87 33.24C77.01 33.25 77.13 33.26 77.27 33.31C77.55 33.39 77.6 33.44 77.8 33.6C77.98 33.75 78.09 33.82 78.2 34.07C78.2 34.07 78.2 34.09 78.21 34.09C78.22 34.12 78.24 34.15 78.25 34.18L78.26 34.17Z" fill="black"/>
<path d="M64.88 57.05C64.95 57.02 65.02 56.98 65.1 56.95C65.17 56.91 65.24 56.89 65.31 56.85C65.45 56.77 65.58 56.68 65.71 56.6C65.86 56.52 66.03 56.48 66.21 56.48C66.38 56.48 66.54 56.53 66.68 56.62C66.98 56.8 67.16 57.14 67.15 57.49C67.14 57.83 66.94 58.15 66.64 58.31C66.49 58.39 66.32 58.43 66.14 58.43C65.97 58.43 65.81 58.37 65.67 58.29C65.56 58.23 65.44 58.16 65.32 58.1C65.21 58.06 65.09 58.01 64.98 57.97C64.9 57.94 64.82 57.9 64.76 57.84C64.68 57.76 64.64 57.65 64.63 57.54C64.63 57.45 64.63 57.37 64.67 57.29C64.71 57.19 64.79 57.1 64.89 57.05H64.88Z" fill="black"/>
<path d="M124.83 31.9C124.83 31.9 137.04 37.24 137.92 37.01C138.8 36.79 143.06 37.29 143.06 37.29L138.18 37.96L139.07 41.94L136.62 37.84L123.85 32.43L124.83 31.9Z" fill="black"/>
<path d="M94.23 22.9L94.72 22.62C94.88 22.53 95.04 22.42 95.22 22.35C95.56 22.19 95.9 22.01 96.27 21.89C96.98 21.6 97.74 21.44 98.5 21.32L99.08 21.26C99.27 21.24 99.47 21.26 99.66 21.24H99.95L100.24 21.26C100.43 21.28 100.63 21.28 100.82 21.3C101.6 21.39 102.36 21.6 103.1 21.86C104.58 22.4 105.91 23.27 107.05 24.32C108.17 25.39 109.1 26.66 109.61 28.12C108.53 27.04 107.48 26.02 106.37 25.08C105.81 24.62 105.25 24.17 104.64 23.78C104.04 23.38 103.4 23.05 102.75 22.77C101.43 22.21 100 21.94 98.55 21.98C97.1 22.02 95.64 22.37 94.23 22.89V22.9Z" fill="white"/>
<path d="M104.43 30.8501C104.65 30.7201 106.25 30.5701 106.31 30.7601C106.12 30.2201 106.03 29.6901 105.74 29.1901C105.17 28.2201 104.3 27.2801 103.49 26.5101C101.36 24.5001 98.27 25.7901 95.97 26.7701C94.42 27.4301 92.89 27.4501 91.35 26.7701C90.74 26.5001 90.29 26.0801 90 25.4901C89.79 25.0601 89.88 24.4401 90.15 24.2501C90.46 24.0401 91 24.1101 91.38 24.4301C91.47 24.5101 91.52 24.6301 91.72 24.9101C91.25 24.9901 90.93 25.0401 90.62 25.0901C90.62 25.7801 90.8 26.0901 91.37 26.3101C91.85 26.4901 92.25 26.3101 92.58 25.9901C93.16 25.4301 93.16 24.5301 92.62 23.9301C91.85 23.0701 90.83 22.7001 89.72 23.0901C88.67 23.4701 87.94 24.5001 88.23 25.6101C88.56 26.8601 90.09 27.7201 91.25 28.0501C92.54 28.4201 93.62 29.0501 94.5 30.1001C96.06 31.9601 98.57 33.5701 101.12 33.0001C101.83 32.8401 102.59 32.4701 103.18 32.0301C103.63 31.6901 103.93 31.1201 104.43 30.8201V30.8501ZM92.34 24.8601C92.3334 25.3667 92.08 25.6567 91.58 25.7301C91.84 25.4301 92.1 25.1301 92.34 24.8601ZM89.51 26.3701C88.67 25.7701 88.62 25.6301 88.89 24.8101C89.08 25.2801 89.27 25.7801 89.51 26.3701ZM94.37 28.8901C95.48 29.0801 96.5 29.2401 97.4 29.3901C97.81 30.0401 98.12 30.6701 98.57 31.1701C99.01 31.6401 99.61 31.9801 100.2 32.4201C98.13 32.7401 96.31 31.3701 94.37 28.8901ZM98.88 30.5801C98.66 30.1501 98.5 29.8401 98.3 29.4401C98.69 29.4301 98.95 29.4201 99.27 29.4001C99.13 29.8101 99.03 30.1201 98.88 30.5801ZM104.15 29.0101C103.82 28.9501 103.64 28.9401 103.47 28.8701C102.34 28.4501 101.19 28.4301 100.01 28.6401C98.75 28.8601 97.48 28.7301 96.24 28.4001C95.79 28.2801 95.36 28.0901 94.77 27.8901C96.09 27.4001 97.23 27.0201 98.34 26.5501C99.92 25.8801 101.35 26.3201 102.67 27.1801C103.28 27.5801 103.75 28.2001 104.16 29.0101H104.15Z" fill="white"/>
<path d="M102.38 29.23C102.44 29.26 102.49 29.3 102.55 29.33C102.66 29.4 102.76 29.48 102.87 29.55C103.02 29.67 103.13 29.82 103.2 30C103.27 30.11 103.31 30.22 103.32 30.35C103.37 30.53 103.38 30.72 103.33 30.91C103.29 31.03 103.25 31.16 103.21 31.28C103.14 31.39 103.07 31.49 102.99 31.6C102.87 31.75 102.72 31.86 102.54 31.93C102.38 32.02 102.2 32.08 102.01 32.08C101.95 32.08 101.88 32.08 101.82 32.09C101.79 32.09 101.76 32.09 101.73 32.09C101.73 32.09 101.72 32.09 101.71 32.09H101.69C101.56 32.09 101.42 32.08 101.29 32.07C101.08 32.04 100.89 31.95 100.72 31.82C100.65 31.79 100.59 31.75 100.54 31.7C100.46 31.6 100.37 31.5 100.28 31.4C100.28 31.4 100.28 31.4 100.28 31.39C100.16 31.22 100.09 31.04 100.07 30.85C100.01 30.66 100.01 30.46 100.06 30.26C100.1 30.13 100.15 30 100.19 29.87C100.31 29.62 100.49 29.42 100.72 29.27C100.84 29.2 100.95 29.14 101.08 29.09C101.36 29 101.43 29.01 101.67 29.02C101.91 29.04 102.03 29.03 102.27 29.17C102.27 29.17 102.29 29.17 102.29 29.18C102.32 29.19 102.34 29.21 102.37 29.22L102.38 29.23Z" fill="black"/>
</g>
<defs>
<clipPath id="clip0_2003_4384">
<rect width="186.76" height="255.68" fill="white"/>
</clipPath>
</defs>
</svg>
