<svg width="185" height="232" viewBox="0 0 185 232" fill="none" xmlns="http://www.w3.org/2000/svg">
<g clip-path="url(#clip0_2003_3228)">
<path d="M25.34 19.15C24.53 19.4 23.93 51.8 24.13 55.02C24.33 58.24 27.14 78.14 27.14 78.14C27.14 78.14 28.98 66.65 61.34 58.19C93.69 49.73 133.24 56.44 144.4 61.23C155.56 66.02 155.42 72.99 155.42 72.99C155.42 72.99 156.43 63.09 157.04 59.35C157.65 55.61 158.76 24.83 156.43 20.49C154.11 16.15 145.4 9 135.52 6.92C125.64 4.84 98.44 -2.15 69.34 4.23C40.25 10.61 25.33 19.15 25.33 19.15H25.34Z" fill="white"/>
<path d="M2.51996 84.97C2.51996 84.97 4.87996 91.81 18.22 95.3C11.36 98.74 5.32996 104.87 2.58996 107.85C15.12 107.03 27.96 108.37 33.35 107.23C38.73 106.09 45.25 102.29 46.74 99.28L46.9 82.66C46.9 82.66 35.33 88.86 28.82 83.72C17.13 87.06 8.53996 87.42 2.51996 84.97Z" fill="white"/>
<path d="M143.68 78.92C143.68 78.92 137.26 78.25 135.88 84.66C134.5 91.07 146.08 92.91 147.15 92.93C148.22 92.95 156.78 94.2 177.22 90.86L183.46 91.88C183.46 91.88 178.97 84.1 169.01 81.75C172.88 76.11 178.99 74.27 178.99 74.27C178.99 74.27 166.11 74.54 162.53 75.01C158.95 75.47 153.39 76.07 153.39 76.07C153.39 76.07 147.22 80.41 143.68 78.91V78.92Z" fill="white"/>
<path d="M32.32 192.21C32.32 192.21 29.74 200.2 43.63 202.9C57.52 205.6 85.91 206.98 105.24 206.04C124.57 205.09 129.14 204.38 133.74 202.33C138.34 200.28 143.33 192.07 143.9 190.74C144.45 203.35 144.15 218.1 142.48 220.74C126.83 225.78 95.55 233.99 59.48 227.89C31.99 221.43 30.67 220.87 29.46 214.41C30.79 201.57 31.77 193.01 32.33 192.21H32.32Z" fill="white"/>
<path d="M45.38 183.09C45.08 184.42 44.99 202.12 44.99 202.12C44.99 202.12 28.87 203.15 32.9 190.07C34.62 184.47 45.38 183.09 45.38 183.09Z" fill="black"/>
<path d="M135.03 178.76L133.74 202.33C133.74 202.33 144.25 199.86 143.9 190.74C143.55 181.62 138.78 178.84 135.03 178.76Z" fill="black"/>
<path d="M136.13 58.92C135.29 58.83 136.78 79.58 136.78 79.58C136.78 79.58 142.99 77.56 145.66 78.15C148.33 78.74 153.19 76.96 154.35 72.96C155.5 68.96 145.23 59.9 136.14 58.91L136.13 58.92Z" fill="black"/>
<path d="M47.03 62.73C47.01 63.8 46.66 80.96 46.66 80.96C46.66 80.96 27.94 91.78 26.89 77.61C26.47 71.97 47.04 62.74 47.04 62.74L47.03 62.73Z" fill="black"/>
<path d="M52.44 60.7L47.03 62.73L44.99 202.12L49.79 203.56L52.44 60.7Z" fill="white"/>
<path d="M130.25 58.27L127.53 204.35C127.53 204.35 133.16 204.2 133.77 200.72C134.01 175.79 136.13 58.92 136.13 58.92C136.13 58.92 132.93 58.05 130.25 58.26V58.27Z" fill="white"/>
<path d="M54.06 60.19C54.06 60.19 49.69 90.13 56.95 102.62C64.2 115.1 69.99 120.58 73.68 123.88C77.37 127.17 80.55 128.85 80.73 133.14C80.91 137.43 79.81 138.75 76.27 141.63C72.73 144.51 55.91 153.82 50.98 171.95C46.05 190.08 49.82 202.49 49.82 202.49C49.82 202.49 63.42 205.98 88.64 205.7C113.85 205.41 127.55 204.35 127.55 204.35C127.55 204.35 128.37 177.28 127.39 172.97C126.41 168.66 122.94 154.38 101.49 141.34C97.03 136.69 99.01 131.64 100.65 130.06C102.29 128.49 110.2 121.94 113.2 119.32C116.2 116.7 120.57 112.77 123.93 106.13C127.28 99.5 129.05 91.76 129.95 87.22C130.85 82.68 130.79 59.08 130.79 59.08C130.79 59.08 87.38 44.79 54.08 60.19H54.06Z" fill="white"/>
<path d="M64.13 92.31C64.13 92.31 62.14 97.9 65.51 103.6C68.88 109.3 78.14 115.39 81.21 122.42C84.28 129.45 86.62 132.99 87.28 140.24C87.94 147.49 87.94 160.63 85.67 166.48C83.4 172.33 74.72 177.52 67.62 183.54C60.53 189.56 56.99 191.9 56.57 199.4L56.2 204.22C56.2 204.22 97.67 208.55 123.23 204.25C125.53 196.79 123.77 191.12 114.79 184.5C105.81 177.88 97.34 172.61 94.54 165.05C91.74 157.48 94.74 129.12 95.85 127C96.97 124.88 109.57 111.73 112.05 108.29C114.53 104.85 118.66 99.84 119.02 95.29C108.93 90.26 94.89 82.19 64.11 92.29L64.13 92.31Z" fill="white"/>
<path opacity="0.48" d="M61.93 204.17C61.93 204.17 64.29 193.49 72.97 188.66C81.65 183.83 86.03 179.28 88.26 175.39L90.51 170.07C90.51 170.07 91.04 179.02 99.89 183.13C108.74 187.24 116.81 194.92 115.18 204.54C95.85 205.93 76.85 208.05 61.92 204.17H61.93Z" fill="url(#paint0_radial_2003_3228)" style="mix-blend-mode:multiply"/>
<path d="M70.77 95.39C70.77 95.39 68.78 100.71 76.41 108.11C84.03 115.5 88.97 123.11 89.45 138.94C93.6 119.45 98.53 114.72 104.26 109.75C109.99 104.77 112.57 96.51 112.57 96.51C112.57 96.51 92.17 84.56 70.76 95.39H70.77Z" fill="black"/>
<path d="M90.98 167.94C92.09 172.63 95.51 176.57 99.08 179.63C106.46 185.95 114.98 189.07 117.54 195.02C120.1 200.97 119.53 202.57 119.53 202.57L119.21 204.98C112.28 204.56 104.95 203.67 98.08 204.63C92.93 205.36 87.64 206.07 82.43 205.71C76.04 205.26 70.94 206.16 63.18 203.3C63.87 195.77 69.4 189.63 75.12 184.69C80.41 180.13 88.78 174.92 90.97 167.92C90.97 167.92 90.97 167.93 90.97 167.94H90.98Z" fill="black"/>
<path d="M182.22 87.89C180.9 86.12 179.25 84.6 177.38 83.41C176.44 82.82 175.45 82.31 174.43 81.9C174 81.73 171.58 80.63 171.22 80.93C173.93 78.74 176.93 76.97 180.18 75.63C181.8 75.63 182.19 72.93 180.37 72.42C172.35 70.14 164.56 73.43 156.6 74.29C156.8 73.31 156.8 72.27 156.73 71.21C156.5 67.81 157.13 64.95 158.04 61.7C159.25 57.36 160.04 23.25 157.38 19.36C157.38 19.34 157.38 19.33 157.36 19.31C153.6 12.08 145.87 8.56999 138.44 6.25999C129.4 3.44999 120.02 1.64999 110.61 0.729993C92.08 -1.09001 73.27 0.529993 55.33 5.48999C49.46 7.10999 43.7 9.11999 38.09 11.47C35.22 12.67 32.38 13.96 29.59 15.34C27.13 16.56 24.72 17.43 23.43 20.06C21.93 23.11 22.73 56.35 23.01 59.6C23.35 63.67 23.69 67.73 24.04 71.8C24.38 75.81 24.4 80.44 26.81 83.87C18.67 85.92 10.18 84.59 1.95998 83.21C0.619984 82.98 -0.530016 84.5 0.309984 85.69C3.94998 90.85 9.16998 94.45 15.09 96.07C14.74 95.98 13.41 96.99 13.08 97.18C12.31 97.63 11.55 98.1 10.81 98.59C9.31998 99.57 7.87998 100.63 6.50998 101.77C5.17998 102.87 3.89998 104.04 2.68998 105.27C1.77998 106.2 -0.230016 107.68 0.319984 109.19C0.629984 110.03 1.60998 110.47 2.50998 110.42C3.90998 110.35 5.19998 109.45 6.58998 109.19C7.99998 108.92 9.41998 108.75 10.85 108.65C13.75 108.45 16.65 108.53 19.55 108.65C25.26 108.87 31.11 109.31 36.72 107.92C38.15 107.57 39.56 107.09 40.9 106.48C41.47 106.22 44.88 104.78 44.89 104.13L43.51 171.56C43.49 171.56 43.46 171.55 43.44 171.54C43.42 172.23 43.41 172.92 43.39 173.61C43.42 174.12 43.38 174.63 43.36 175.15C43.39 175.17 43.42 175.19 43.44 175.22L43.35 179.79C43.36 179.88 43.35 179.97 43.35 180.06V180.35C43.35 180.35 43.29 180.33 43.27 180.32C43.18 180.49 43.01 180.63 42.77 180.7C42.13 180.87 41.65 181.33 41.06 181.6C40.53 181.84 39.99 182.04 39.47 182.29C39.55 182.31 39.63 182.33 39.7 182.36C38.34 182.86 37.03 183.53 35.82 184.35C35.75 184.44 35.65 184.51 35.52 184.57C33.97 185.23 33.07 186.61 32.03 187.86H32.05C31.88 188.08 31.71 188.31 31.55 188.54C30.88 189.52 30.39 190.65 30.02 191.87C29.99 191.87 29.95 191.85 29.92 191.84C29.88 192.24 29.75 192.62 29.64 193.04C29.47 193.68 29.41 194.34 29.28 194.99C29.29 194.99 29.31 194.99 29.32 195C29.22 195.63 29.16 196.27 29.1 196.92C29.1 196.96 29.12 196.98 29.12 197.02C29.14 198.44 29.38 199.89 28.85 201.23C28.8 202.91 28.78 204.52 28.71 205.96C28.49 210.16 27.79 215.21 29.77 219.12C31.44 222.42 34.88 223.53 38.2 224.51C42.94 225.92 47.75 227.11 52.6 228.07C71.67 231.87 91.44 232.31 110.67 229.39C119.44 228.06 128.28 226.94 136.85 224.57C139.53 223.83 143.69 223.27 145.02 220.49C146.05 218.33 145.65 215.63 145.8 213.32C146.06 209.46 146.13 205.58 146.14 201.71C146 201.57 145.91 201.37 145.93 201.11C146.12 198.37 145.95 195.63 145.91 192.89C145.9 192.89 145.89 192.89 145.87 192.89C145.83 192.22 145.77 191.56 145.71 190.9C145.71 190.85 145.68 190.81 145.68 190.76C145.68 190.59 145.68 190.42 145.69 190.24C145.66 190.15 145.65 190.06 145.65 189.95C145.68 189.11 145.55 188.29 145.48 187.46C145.46 187.46 145.44 187.46 145.42 187.46C145.39 186.78 145.31 186.11 145.17 185.43C144.98 184.49 144.67 183.59 144.27 182.73C144.29 182.73 144.31 182.73 144.33 182.73C144.04 182.3 143.82 181.83 143.54 181.38C143.24 180.89 142.85 180.47 142.54 179.99C142.53 179.99 142.51 180.01 142.5 180.02C141.83 179.22 141.05 178.52 140.2 177.93C139.87 177.74 139.59 177.5 139.35 177.21C138.37 176.67 137.36 176.18 136.35 175.72C136.21 175.65 136.11 175.57 136.03 175.47C135.96 175.49 135.88 175.51 135.81 175.54L137.11 90.38C139.87 93.51 144.61 94.13 148.56 94.44C154.49 94.9 160.46 94.85 166.38 94.25C169.9 93.89 173.36 92.96 176.92 93.06C178.59 93.11 180.3 93.39 181.83 94.11C183.37 94.84 184.61 95.55 184.67 93.25C184.73 91.19 183.47 89.53 182.26 87.91L182.22 87.89ZM44.68 99.52C44.42 100.31 43.92 100.91 43.31 101.42C42.44 102.14 41.34 102.64 40.38 103.14C35.28 105.8 29.4 106.05 23.76 105.9C20.83 105.82 17.9 105.63 14.96 105.57C13.51 105.54 12.06 105.54 10.61 105.61C9.79998 105.65 7.12998 105.44 6.53998 106C9.17998 103.54 12.11 101.4 15.25 99.63C16.84 98.73 18.53 98.06 20.16 97.23C21.17 96.71 22.59 95.58 21.39 94.6C20.05 93.51 17.87 93.53 16.29 93.12C12.28 92.09 8.56998 89.98 5.62998 87.07C13.61 88.28 21.74 88.91 29.52 86.45C31.19 87.45 33.16 87.84 35.11 87.39C38.54 87.38 42.14 86.08 45.25 84.72L45.07 93.49C45.03 95.43 45.29 97.68 44.68 99.54V99.52ZM45.63 66.01L45.4 77.36C45.37 78.85 45.55 80.04 44.84 81.03C44.61 81.35 44.29 81.65 43.84 81.93C41.85 83.17 39.37 83.64 37.09 84.02C34.09 84.52 30.91 84.02 29.2 81.24C25.93 75.9 34.35 71.17 37.99 69.09C40.47 67.67 43.04 66.4 45.66 65.26C45.61 65.28 45.65 65.95 45.65 66.01H45.63ZM43.2 184.92L42.88 200.75C38.79 199.89 34.44 198.24 33.92 193.88C33.31 188.73 38.8 186.29 43.21 184.92H43.2ZM142.78 196.31C143.07 203.62 143.01 212.31 141.88 219.57C141.86 219.57 141.84 219.57 141.82 219.58C124.96 225.68 106.86 227.62 88.94 228.01C79.98 228.21 71.02 227.69 62.15 226.42C53.61 225.2 44.7 223.59 36.58 220.63C31.04 218.61 31.57 213.33 31.75 208.36C31.86 205.26 31.7 201.74 32.38 198.71C33.07 198.81 33.86 200.1 34.45 200.57C38.8 204.1 45.12 204.44 50.44 205.18C56.78 206.06 63.16 206.67 69.54 207.09C82.92 207.96 96.33 207.88 109.71 207.15C119.68 206.61 132.02 206.85 139.9 199.68C140.99 198.69 141.96 197.54 142.77 196.3L142.78 196.31ZM48.88 63.93C49.59 63.66 50.3 63.39 51.02 63.13L48.19 201.62C47.78 201.56 47.37 201.5 46.96 201.44C46.68 201.4 46.38 201.35 46.08 201.3L48.89 63.96C48.89 63.96 48.89 63.94 48.89 63.93H48.88ZM57.23 162.69C59.33 158.75 62.02 155.13 65.22 152.01C68.74 148.56 72.95 146.44 76.91 143.6C80.1 141.31 82.93 137.97 82.94 133.85C82.94 129.62 79.67 126.65 76.72 124.08C68.93 117.29 60.49 109.87 57.71 99.5C55.29 90.45 54.41 81 54.73 71.65C54.83 68.62 54.01 62.53 57.14 61.16C61.11 59.42 66.24 58.92 70.49 58.25C82.64 56.34 95.01 56.18 107.28 56.64C112.9 56.85 118.53 57.22 124.1 58.04C126.41 58.38 127.08 58.3 127.61 60.56C128.19 63.03 128.42 65.66 128.58 68.19C128.94 73.77 128.3 78.95 127.26 84.35C126.1 90.34 125.93 96.12 123.7 101.93C119.9 111.84 112.07 118.17 104.03 124.62C100.98 127.07 97.59 129.9 97.42 134.13C97.26 138.25 99.96 141.71 103.04 144.12C106.88 147.12 111 149.41 114.38 153.01C127.41 166.85 126.83 184.96 126.46 202.51C126.38 202.52 126.31 202.54 126.23 202.56C126.27 202.44 126.31 202.31 126.33 202.16C127.2 193.87 121.46 187.24 115.06 182.77C107.57 177.53 99.27 173.53 96.31 164.19C94.92 159.79 94.68 155.09 94.7 150.5C94.72 145.58 94.79 140.55 95.57 135.69C96.94 127.13 102.2 121.19 108.08 115.23C111.08 112.2 114.1 109.15 116.59 105.67C118.5 103 121.15 98.8 121.2 95.4C121.22 93.67 120.16 93.5 118.73 92.81C101.57 84.44 81.12 83.54 63.3 90.41C63.17 90.46 63.05 90.52 62.95 90.6C62.5 90.76 62.13 91.13 62.03 91.75C60.66 99.97 65.47 107.16 71.03 112.74C77.54 119.27 82.61 124.66 84.69 134.14C85.71 138.78 85.94 143.64 86.2 148.38C86.45 153.04 86.5 157.81 85.29 162.35C82.84 171.5 76.62 176.1 69.24 180.98C61.95 185.81 54.72 192.29 54.45 201.65C54.44 202.02 54.54 202.32 54.7 202.54C53.59 202.4 52.47 202.26 51.36 202.11C51.57 189.12 51.01 174.35 57.21 162.71L57.23 162.69ZM52.12 166.09L53.54 96.46C55.65 106.05 60.67 113.78 67.79 120.46C71.23 123.68 75.91 126.56 78.56 130.49C82.2 135.91 76.3 140.29 72.13 142.83C64.74 147.34 58.69 153.24 54.53 160.9C53.62 162.58 52.81 164.31 52.11 166.09H52.12ZM128.64 96.73L127.17 168.43C126.49 166.35 125.67 164.31 124.7 162.34C120.86 154.52 115.06 148.37 107.86 143.57C103.8 140.86 98.08 136.25 101.94 130.98C104.75 127.15 109.54 124.47 113.11 121.39C120.56 114.96 125.93 107.37 128.4 97.75C128.49 97.41 128.56 97.07 128.65 96.73H128.64ZM88.83 145.02C88.8 142 88.27 138.83 87.87 135.83C87.45 132.71 86.79 129.62 85.48 126.75C84.48 124.53 83.17 122.47 81.8 120.46C80.06 117.91 78.3 115.19 76.04 113.07C74.09 111.23 72.16 109.35 70.43 107.3C67.07 103.33 64.49 98.53 65.09 93.17C82.25 86.77 101.53 87.81 117.9 95.97C115.98 102.92 110.62 108.09 105.67 113.1C101.39 117.44 97.1 122 94.57 127.63C93.18 130.74 92.95 133.78 92.64 137.14C92.31 140.8 92.08 144.48 91.96 148.16C91.84 151.72 91.82 155.29 91.9 158.85C91.96 161.53 92.98 164.4 94.01 166.88C96.16 172.06 99.89 176.33 104.44 179.55C111.2 184.33 121.45 188.81 123.07 197.91C123.3 199.2 123.52 200.63 123.23 201.93C122.88 203.48 122.18 203.3 120.85 203.33C117.08 203.41 113.27 203.75 109.5 203.96C106.63 204.12 103.76 204.24 100.89 204.34C93.53 204.58 86.16 204.6 78.8 204.36C75.12 204.24 71.44 204.05 67.77 203.78C65.93 203.65 64.1 203.5 62.27 203.33C61.23 203.23 58.33 203.46 57.61 202.6C57.18 202.09 57.78 199.94 57.9 199.25C58.1 198.14 58.43 197.06 58.88 196.03C59.79 193.92 61.15 192.04 62.71 190.37C65.83 187.03 69.71 184.5 73.52 182.02C77.79 179.25 81.77 175.95 84.59 171.66C86.95 168.06 88.16 164.19 88.75 160.11C89 158.36 89.14 156.58 89.21 154.76C89.33 151.49 88.87 148.27 88.84 145.03L88.83 145.02ZM129.7 201.62L132.6 59.71C133.24 59.87 133.88 60.04 134.51 60.22C134.51 60.27 134.49 60.32 134.49 60.37C134.35 67.27 133.58 108.02 133.48 114.7C133.36 122.65 133.24 130.6 133.12 138.56C133 146.56 132.88 154.56 132.75 162.56C132.65 169.39 132.54 176.22 132.44 183.05C132.44 183.05 132.24 196.37 132.24 196.38C132.22 197.45 132.39 198.56 132.18 199.62C131.88 201.11 131.05 201.26 129.7 201.68V201.62ZM141.94 185.97C141.94 186.08 141.94 186.19 141.94 186.31C142.02 186.93 142.09 187.56 142.16 188.18C142.12 192.65 139.19 196.65 135.55 199C135.5 199.03 135.45 199.06 135.4 199.09L135.7 179.39C138.85 180.23 141.2 182.79 141.93 185.97H141.94ZM113.25 53.73C98.16 52.76 82.74 52.79 67.81 55.44C61.2 56.61 54.68 58.3 48.4 60.68C42.19 63.03 35.47 65.99 30.33 70.27C29.21 71.2 28.17 72.32 27.34 73.54C27.2 71.91 27.13 70.45 27.05 69.49C26.77 66.18 26.49 62.87 26.21 59.57C25.99 56.97 24.86 24.65 25.82 22.13C26.09 21.42 26.49 20.86 26.96 20.4C28.17 19.24 29.89 18.72 31.48 17.95C34.02 16.71 36.6 15.54 39.21 14.46C44.43 12.29 49.77 10.43 55.21 8.87999C67.56 5.35999 80.37 3.46999 93.2 3.23999C106.05 3.01999 118.93 4.46999 131.38 7.62999C139.5 9.68999 149.03 12.28 153.82 19.67C153.84 19.93 153.94 20.2 154.16 20.46C157.14 24.09 155.73 57.94 154.59 62.01C154.2 63.41 153.83 64.81 153.59 66.24C152.95 65.5 152.23 64.83 151.47 64.27C140.84 56.46 125.99 54.57 113.23 53.74L113.25 53.73ZM137.33 78.61L137.69 61.19C138.91 61.6 140.12 62.04 141.31 62.53C144.19 63.71 147.22 65.04 149.7 66.93C152.31 68.92 154.99 73.33 151.46 75.89C149.24 77.5 146.15 77.29 143.55 77.38C141.35 77.46 139.28 77.73 137.33 78.61ZM173.49 90.08C168.98 90.59 164.54 91.28 160 91.46C155.26 91.64 150.36 91.65 145.67 90.9C143.59 90.57 141.22 90.02 139.68 88.46C136.94 85.65 138.22 81.56 141.94 80.65C146.22 79.6 150.79 81.26 154.3 77.72C154.35 77.71 154.4 77.69 154.45 77.67C161.17 77.42 167.83 74.73 174.52 74.84C173.89 74.84 172.54 76.04 172.01 76.39C171.14 76.98 170.29 77.6 169.46 78.25C168.17 79.27 165.65 80.69 166.78 82.64C167.45 83.79 168.8 83.73 169.95 83.91C171.3 84.11 172.62 84.51 173.86 85.09C175.08 85.66 176.23 86.39 177.26 87.26C177.77 87.7 178.26 88.17 178.71 88.67C178.92 88.9 179.62 90.08 179.87 90.13C177.79 89.76 175.62 89.84 173.48 90.08H173.49Z" fill="black"/>
<path d="M45.9 86.68C40.89 89.19 35.67 91.12 30.24 92.46C28.23 92.96 29.3 95.99 31.3 95.5C36.74 94.15 41.96 92.22 46.96 89.71C48.78 88.8 47.75 85.74 45.9 86.67V86.68Z" fill="black"/>
<path d="M44.03 94.03C40.24 96.77 36.03 98.63 31.42 99.44C29.4 99.8 29.59 103.01 31.63 102.65C36.81 101.74 41.57 99.78 45.83 96.69C47.5 95.48 45.71 92.81 44.03 94.03Z" fill="black"/>
<path d="M156.89 85.8C150.6 87.38 144.08 86.84 138.13 84.27C136.23 83.45 134.79 86.33 136.69 87.15C143.49 90.08 150.77 90.64 157.95 88.84C159.95 88.33 158.89 85.3 156.89 85.8Z" fill="black"/>
<path d="M157.46 80.28C151.38 81.37 145.32 81.23 139.29 79.82C137.27 79.35 136.63 82.5 138.65 82.97C144.92 84.44 151.33 84.63 157.68 83.49C159.69 83.13 159.5 79.91 157.46 80.28Z" fill="black"/>
<path d="M120.31 35.89C120.31 35.89 120.3 35.84 120.3 35.83C120.28 35.63 120.21 35.43 120.17 35.23C120.09 34.83 119.96 34.42 119.58 34.22C118.52 32.4 116.58 30.8 115.08 29.52C113.01 27.75 110.78 26.19 108.33 24.99C103.17 22.46 97.4 21.26 91.67 21.14C80.68 20.92 69.29 25.08 62.51 33.99C62.3 34.05 62.12 34.25 62.15 34.47C61.94 34.81 62.23 35.16 62.55 35.19C64.84 38.82 68.68 41.11 72.59 42.7C77.38 44.65 82.6 45.65 87.75 46.04C93.09 46.45 98.15 45.7 103.33 44.38C109.33 42.86 115.26 40.58 120.19 36.77C120.38 36.62 120.43 36.43 120.38 36.26C120.39 36.23 120.41 36.2 120.41 36.18C120.46 36.06 120.4 35.94 120.3 35.88L120.31 35.89ZM83.09 39.32C81.66 37.07 81.29 34.15 81.68 31.55C82 29.45 82.9 27.75 84.34 26.38C84.44 26.41 84.55 26.4 84.66 26.34C87.14 24.92 89.19 23.88 92.15 24.05C95.04 24.22 97.99 25.42 100.14 27.36C104.84 31.6 103.13 38.77 98.12 41.86C93.55 44.68 86.17 44.13 83.1 39.32H83.09ZM103.06 42.81C100.06 43.61 97.1 44.19 94.09 44.45C97.49 43.79 100.64 41.92 102.49 38.92C105.28 34.41 103.75 28.89 99.72 25.8C99.16 25.37 98.57 25 97.95 24.66C98.67 24.86 99.4 24.97 100.11 25.19C100.97 25.46 101.8 25.82 102.65 26.09C103.23 26.28 103.65 25.33 103.07 25.09C101.51 24.42 99.49 23.73 97.79 24.14C97.61 24.18 97.57 24.38 97.65 24.51C95.74 23.54 93.6 23.01 91.48 22.9C90.15 22.83 88.58 22.95 87.18 23.42C87.16 23.4 87.15 23.39 87.12 23.37C86.45 22.99 85.65 23.59 84.96 23.78C83.92 24.07 82.83 24.22 81.77 24.43C81.38 24.51 81.47 25.14 81.86 25.12C82.61 25.09 83.35 25.03 84.09 24.93C82.63 25.79 81.63 27.24 81 28.9C80.38 28.79 79.77 29.07 79.22 29.39C79.11 29.46 79.15 29.66 79.29 29.65C79.8 29.6 80.32 29.55 80.82 29.41C80.26 31.14 80.09 33.05 80.25 34.76C80.73 39.86 84.27 43.91 89.45 44.59C89.46 44.59 89.47 44.59 89.48 44.59C89.07 44.59 88.66 44.57 88.25 44.54C83.34 44.26 78.42 43.32 73.79 41.63C69.84 40.18 65.83 38.02 63.27 34.59C70.24 26.23 81.14 22.28 91.86 22.54C97.23 22.67 102.59 23.9 107.47 26.15C109.82 27.24 112.14 28.51 114.18 30.1C115.24 30.92 116.22 31.84 117.15 32.8C117.84 33.51 118.43 34.33 119.13 35.02C119.15 35.21 119.22 35.41 119.27 35.59C119.3 35.7 119.34 35.85 119.4 35.99C114.49 39.26 108.71 41.28 103.04 42.79L103.06 42.81Z" fill="black"/>
<path d="M97.02 33.63C96.39 33.33 95.65 33.42 94.96 33.38C94.67 33.36 94.38 33.34 94.08 33.33C94.03 33.01 93.94 32.69 93.81 32.39C94.11 32.22 94.4 32.05 94.68 31.86C95.17 31.53 95.78 31.16 96.06 30.63C96.14 30.47 96.01 30.28 95.82 30.32C95.26 30.46 94.77 30.88 94.29 31.19C94.01 31.37 93.73 31.56 93.44 31.74C93.38 31.65 93.31 31.57 93.24 31.49C93.16 31.4 93.08 31.33 92.99 31.26C93.14 31.04 93.29 30.83 93.45 30.61C93.83 30.1 94.37 29.6 94.62 29.01C94.67 28.89 94.55 28.71 94.42 28.81C93.99 29.13 93.67 29.62 93.35 30.05C93.1 30.37 92.87 30.7 92.64 31.03C92.42 30.92 92.18 30.85 91.94 30.81C91.94 30.77 91.95 30.74 91.96 30.7C92.01 30.19 92.18 29.59 91.85 29.15C91.72 28.98 91.44 28.87 91.28 29.08C90.95 29.5 91 29.96 90.96 30.48C90.95 30.62 90.94 30.75 90.94 30.89C90.78 30.94 90.63 31 90.49 31.08C90.38 30.95 90.27 30.83 90.17 30.7C89.71 30.12 89.26 29.52 88.73 28.99C88.56 28.82 88.26 29.04 88.39 29.25C88.78 29.89 89.21 30.49 89.64 31.11C89.72 31.23 89.81 31.37 89.9 31.5C89.88 31.52 89.86 31.53 89.85 31.55C89.14 31.19 88.39 30.83 87.6 30.75C87.19 30.71 87.15 31.24 87.41 31.44C87.95 31.84 88.58 32.12 89.2 32.41C89.09 32.6 89 32.8 88.94 33C87.96 32.91 87 32.87 86.01 32.93C85.54 32.96 85.55 33.61 86.01 33.65C86.95 33.73 87.89 33.81 88.83 33.91C88.83 34.08 88.86 34.24 88.91 34.41C88.96 34.59 89.03 34.75 89.12 34.91C88.59 35.27 88.08 35.67 87.67 36.14C87.57 36.25 87.67 36.46 87.83 36.41C88.45 36.21 89.01 35.87 89.57 35.55C89.61 35.6 89.65 35.64 89.69 35.68C89.58 35.86 89.48 36.03 89.39 36.18C88.99 36.79 88.5 37.45 88.3 38.16C88.2 38.53 88.73 38.76 88.92 38.42C89.29 37.79 89.66 37.18 90.07 36.58C90.15 36.46 90.25 36.33 90.35 36.2C90.49 36.27 90.62 36.33 90.76 36.38C90.76 36.5 90.76 36.62 90.76 36.73C90.76 37.65 90.73 38.58 90.86 39.49C90.9 39.76 91.36 39.76 91.4 39.49C91.53 38.58 91.49 37.65 91.5 36.73C91.5 36.65 91.5 36.57 91.5 36.49C91.65 36.49 91.79 36.47 91.94 36.45C92.16 36.44 92.38 36.39 92.58 36.32C92.69 36.48 92.8 36.64 92.91 36.8C93.23 37.28 93.53 37.85 94.01 38.17C94.1 38.23 94.24 38.15 94.23 38.04C94.16 37.45 93.75 36.97 93.41 36.5C93.3 36.35 93.2 36.19 93.09 36.04C93.24 35.93 93.37 35.81 93.49 35.66C93.58 35.54 93.66 35.42 93.73 35.3C93.76 35.32 93.79 35.34 93.82 35.35C94.22 35.57 94.59 35.91 95.07 35.91C95.22 35.91 95.34 35.76 95.3 35.61C95.16 35.17 94.76 34.96 94.39 34.72C94.27 34.65 94.15 34.58 94.03 34.51C94.06 34.39 94.07 34.28 94.08 34.16C94.37 34.18 94.66 34.19 94.93 34.22C95.63 34.28 96.33 34.43 96.99 34.14C97.18 34.06 97.17 33.73 96.99 33.65L97.02 33.63Z" fill="black"/>
<path d="M91.86 25.46C91.79 25.4 91.7 25.4 91.62 25.46C91.4 25.65 91.49 25.96 91.49 26.22C91.49 26.53 91.52 26.85 91.54 27.16C91.56 27.41 91.92 27.41 91.94 27.16C91.96 26.85 91.98 26.54 91.99 26.22C91.99 25.96 92.08 25.65 91.86 25.46Z" fill="black"/>
<path d="M91.5 41.27C91.45 40.83 90.86 40.83 90.81 41.27C90.77 41.64 90.79 42 90.8 42.36C90.81 42.82 91.49 42.82 91.51 42.36C91.52 41.99 91.54 41.63 91.5 41.27Z" fill="black"/>
<path d="M84.7 33.24C84.01 33.02 83.18 33.15 82.46 33.18C82.08 33.2 82.08 33.76 82.46 33.78C83.18 33.81 84.01 33.94 84.7 33.72C84.94 33.64 84.94 33.31 84.7 33.24Z" fill="black"/>
<path d="M84.74 29.83C84.59 29.66 84.36 29.57 84.16 29.48C83.88 29.36 83.6 29.26 83.31 29.16C83.09 29.09 83 29.43 83.21 29.51C83.49 29.61 83.77 29.73 84.04 29.86C84.23 29.95 84.43 30.06 84.64 30.07C84.77 30.07 84.81 29.92 84.74 29.83Z" fill="black"/>
<path d="M85.82 30.27C85.5 30.26 85.5 30.75 85.82 30.77C85.93 30.77 86.05 30.84 86.15 30.9C86.29 30.98 86.4 31.05 86.56 31.08C86.69 31.11 86.81 31 86.77 30.87C86.67 30.5 86.17 30.28 85.81 30.27H85.82Z" fill="black"/>
<path d="M97.22 36.61C96.77 36.32 96.29 36.09 95.81 35.85C95.55 35.72 95.33 36.1 95.59 36.23C95.98 36.43 96.37 36.63 96.74 36.86C97.09 37.07 97.43 37.47 97.83 37.56C97.94 37.58 98.04 37.49 98.01 37.38C97.91 37.01 97.52 36.8 97.22 36.6V36.61Z" fill="black"/>
<path d="M100.63 38.69C100.2 38.1 99.38 37.78 98.75 37.46C98.58 37.37 98.37 37.6 98.53 37.74C99.06 38.2 99.67 38.86 100.37 39.02C100.55 39.06 100.75 38.86 100.63 38.68V38.69Z" fill="black"/>
<path d="M97.1 29.78C96.91 29.75 96.79 29.88 96.63 29.97C96.51 30.04 96.38 30.14 96.24 30.17C96.1 30.21 96.08 30.46 96.24 30.48C96.41 30.5 96.62 30.48 96.77 30.41C96.95 30.32 97.23 30.19 97.22 29.96C97.22 29.88 97.17 29.79 97.09 29.78H97.1Z" fill="black"/>
<path d="M99.54 28.39C99.29 28.28 99.11 28.41 98.89 28.53C98.64 28.66 98.38 28.79 98.13 28.92C97.83 29.07 98.09 29.52 98.4 29.38C98.63 29.27 98.85 29.16 99.08 29.05C99.29 28.95 99.57 28.87 99.63 28.61C99.65 28.54 99.63 28.44 99.55 28.41L99.54 28.39Z" fill="black"/>
<path d="M85.03 37.88C84.79 37.88 84.57 38.11 84.38 38.24C84.17 38.38 83.95 38.5 83.73 38.62C83.47 38.76 83.7 39.14 83.96 39.02C84.21 38.9 84.46 38.78 84.69 38.63C84.89 38.5 85.17 38.29 85.17 38.03C85.17 37.95 85.1 37.88 85.02 37.88H85.03Z" fill="black"/>
<path d="M86.98 36.81C86.75 37.01 86.53 37.16 86.22 37.17C86.14 37.17 86.14 37.3 86.22 37.29C86.57 37.29 86.82 37.12 87.04 36.86C87.08 36.82 87.02 36.77 86.98 36.8V36.81Z" fill="black"/>
<path d="M99.72 33.34C99.19 33.03 98.44 33.16 97.9 33.4C97.53 33.57 97.85 34.12 98.22 33.95C98.71 33.73 99.25 33.89 99.72 33.61C99.82 33.55 99.82 33.4 99.72 33.34Z" fill="black"/>
<path d="M102.44 33.18C102.03 33.05 101.65 33.08 101.23 33.13C101.03 33.15 101.03 33.41 101.23 33.44C101.65 33.49 102.03 33.52 102.44 33.39C102.54 33.36 102.54 33.22 102.44 33.19V33.18Z" fill="black"/>
<path d="M96.09 27.06C95.65 27.12 95.13 27.46 95.24 27.96C95.25 28.02 95.34 28.02 95.36 27.96C95.48 27.59 95.91 27.48 96.16 27.22C96.21 27.17 96.18 27.04 96.09 27.05V27.06Z" fill="black"/>
<path d="M96.48 25.85C96.4 25.92 96.28 26 96.25 26.12C96.23 26.23 96.25 26.33 96.27 26.43C96.32 26.64 96.64 26.64 96.69 26.43C96.69 26.4 96.7 26.37 96.71 26.34C96.71 26.34 96.71 26.34 96.71 26.33C96.71 26.33 96.71 26.33 96.71 26.32C96.74 26.26 96.73 26.26 96.79 26.18C96.98 25.95 96.7 25.66 96.46 25.85H96.48Z" fill="black"/>
<path d="M86.78 26.08C86.66 25.91 86.34 26.01 86.42 26.23C86.51 26.48 86.63 26.68 86.79 26.89C86.95 27.1 87.1 27.34 87.32 27.48C87.41 27.54 87.53 27.46 87.53 27.36C87.54 26.87 87.03 26.44 86.77 26.08H86.78Z" fill="black"/>
<path d="M88.31 28.48C88.12 28.23 88.13 27.89 87.91 27.65C87.78 27.51 87.56 27.72 87.69 27.87C87.79 27.98 87.82 28.13 87.86 28.26C87.91 28.41 87.98 28.54 88.1 28.64C88.21 28.74 88.4 28.6 88.31 28.48Z" fill="black"/>
<path d="M95.57 39.55C95.57 39.45 95.49 39.36 95.44 39.27C95.32 39.08 95.18 38.91 95.06 38.72C94.95 38.56 94.65 38.66 94.73 38.86C94.81 39.06 94.9 39.27 95.02 39.44C95.08 39.52 95.13 39.62 95.2 39.7C95.27 39.77 95.35 39.81 95.41 39.88C95.49 39.97 95.62 39.88 95.6 39.77C95.58 39.69 95.57 39.63 95.57 39.55Z" fill="black"/>
<path d="M96.3 40.33C96.23 40.14 95.94 40.11 95.89 40.33C95.77 40.82 96.23 41.27 96.61 41.51C96.72 41.58 96.85 41.49 96.85 41.37C96.86 40.93 96.44 40.71 96.31 40.33H96.3Z" fill="black"/>
<path d="M87.85 40.22C87.6 40.12 87.37 40.34 87.21 40.51C87.07 40.66 86.96 40.83 86.81 40.98C86.55 41.24 86.96 41.65 87.21 41.38C87.33 41.25 87.43 41.1 87.54 40.96C87.68 40.78 87.92 40.66 87.97 40.43C88 40.33 87.94 40.24 87.84 40.21L87.85 40.22Z" fill="black"/>
<path d="M67.96 31.54C67.35 31.85 66.91 32.57 66.44 33.07C65.93 33.62 65.41 34.13 64.94 34.71C64.76 34.93 65.03 35.2 65.25 35.02C65.83 34.55 66.35 34.02 66.86 33.49C67.35 32.99 68.03 32.44 68.24 31.76C68.29 31.59 68.1 31.47 67.96 31.54Z" fill="black"/>
<path d="M73.38 27.91C72.7 27.83 71.98 28.56 71.44 28.92C70.83 29.32 70.04 29.76 69.73 30.46C69.69 30.56 69.76 30.65 69.86 30.63C70.58 30.51 71.23 29.98 71.84 29.61C72.42 29.25 73.41 28.92 73.61 28.22C73.66 28.06 73.53 27.94 73.38 27.92V27.91Z" fill="black"/>
<path d="M78.28 24.98C77.75 25.31 77.24 25.67 76.73 26.04C76.29 26.36 75.78 26.62 75.41 27.02C75.29 27.15 75.37 27.35 75.55 27.36C76.68 27.39 77.83 26.34 78.74 25.79C79.25 25.48 78.78 24.67 78.27 24.99L78.28 24.98Z" fill="black"/>
<path d="M109.11 28.43C108.28 27.3 106.53 26.6 105.17 26.45C104.82 26.41 104.75 26.98 105.09 27.06C105.82 27.23 106.51 27.51 107.17 27.87C107.74 28.18 108.23 28.59 108.87 28.75C109.04 28.79 109.24 28.59 109.12 28.43H109.11Z" fill="black"/>
<path d="M114.62 31.93C114 31.27 113.3 30.82 112.54 30.32C112.21 30.1 111.88 29.88 111.55 29.66C111.45 29.59 111.3 29.51 111.18 29.47C111.12 29.46 111.07 29.45 111.01 29.46C110.77 29.37 110.48 29.64 110.65 29.88C110.65 29.88 110.66 29.89 110.67 29.9C110.67 29.9 110.67 29.91 110.67 29.92C110.71 30.09 110.81 30.18 110.93 30.29C111.23 30.57 111.61 30.79 111.94 31.02C112.74 31.57 113.46 32.07 114.39 32.33C114.63 32.4 114.79 32.1 114.63 31.92L114.62 31.93Z" fill="black"/>
<path d="M118.79 35.73C118.53 35.2 117.9 34.84 117.46 34.46C116.96 34.03 116.48 33.56 116.04 33.08C115.83 32.85 115.41 33.16 115.6 33.42C116.01 33.99 116.47 34.47 116.98 34.94C117.42 35.34 117.95 35.92 118.54 36.06C118.74 36.11 118.88 35.91 118.79 35.73Z" fill="black"/>
<path d="M105.06 28.65C104.4 28.06 103.46 27.74 102.64 27.41C102.48 27.35 102.39 27.59 102.53 27.67C103.27 28.12 104.08 28.67 104.94 28.85C105.05 28.87 105.15 28.73 105.06 28.65Z" fill="black"/>
<path d="M109.83 30.6C109.24 29.85 107.91 29.49 107.01 29.32C106.73 29.27 106.6 29.69 106.89 29.75C107.4 29.87 107.89 30.05 108.36 30.28C108.79 30.49 109.19 30.8 109.67 30.88C109.84 30.91 109.94 30.73 109.83 30.6Z" fill="black"/>
<path d="M113.96 33.61C113.74 33.22 113.52 32.96 113.17 32.67C112.81 32.36 112.42 32.1 112 31.89C111.73 31.75 111.49 32.15 111.76 32.3C112.14 32.5 112.48 32.75 112.81 33.03C112.98 33.17 113.14 33.33 113.3 33.47C113.45 33.6 113.61 33.67 113.79 33.77C113.9 33.83 114.02 33.71 113.96 33.6V33.61Z" fill="black"/>
<path d="M115.24 34.27C114.99 34.03 114.6 34.41 114.86 34.65C115.23 35.01 115.7 35.25 116.1 35.58C116.21 35.67 116.45 35.63 116.43 35.45C116.35 34.86 115.63 34.64 115.25 34.27H115.24Z" fill="black"/>
<path d="M106.43 30.64C106.28 30.47 106.04 30.44 105.83 30.4C105.56 30.35 105.29 30.31 105.04 30.2C104.88 30.13 104.74 30.36 104.9 30.44C105.12 30.54 105.34 30.6 105.58 30.65C105.83 30.7 106.1 30.81 106.35 30.82C106.45 30.82 106.49 30.7 106.43 30.63V30.64Z" fill="black"/>
<path d="M110.42 32.82C110 32.16 109.11 31.87 108.39 31.67C108.09 31.59 107.99 32.01 108.26 32.13C108.93 32.41 109.54 32.91 110.26 33.02C110.37 33.04 110.49 32.93 110.42 32.82Z" fill="black"/>
<path d="M113 35.22C112.87 34.9 112.58 34.7 112.32 34.5C112.03 34.27 111.74 34.04 111.42 33.84C111.13 33.64 110.86 34.11 111.15 34.31C111.45 34.52 111.73 34.74 112.01 34.97C112.26 35.17 112.54 35.39 112.87 35.39C112.95 35.39 113.03 35.3 113 35.22Z" fill="black"/>
<path d="M114.46 36.43C114.2 36.16 113.79 36.57 114.05 36.84C114.3 37.1 114.42 37.5 114.8 37.59C114.93 37.62 115.03 37.51 115.01 37.38C114.94 37.03 114.7 36.69 114.46 36.43Z" fill="black"/>
<path d="M70.38 31.53C69.67 31.77 69.18 32.34 68.68 32.86C68.12 33.44 67.49 34.05 67.12 34.77C67.04 34.93 67.2 35.1 67.37 35.02C68.02 34.67 68.53 34.06 69.04 33.54C69.57 32.99 70.22 32.48 70.59 31.8C70.66 31.67 70.55 31.49 70.39 31.55L70.38 31.53Z" fill="black"/>
<path d="M75.39 29.21C74.46 29.03 73.16 29.79 72.81 30.66C72.73 30.85 72.99 30.95 73.12 30.84C73.45 30.56 73.79 30.29 74.16 30.07C74.57 29.83 75.03 29.71 75.42 29.43C75.5 29.37 75.51 29.22 75.39 29.2V29.21Z" fill="black"/>
<path d="M80.49 26.78C80.01 26.78 79.58 27.05 79.17 27.26C78.59 27.56 78 27.84 77.45 28.2C77.29 28.3 77.4 28.53 77.57 28.5C78.1 28.39 78.56 28.17 79.05 27.94C79.56 27.69 80.21 27.5 80.62 27.09C80.73 26.98 80.65 26.78 80.49 26.78Z" fill="black"/>
<path d="M68.08 35.74C67.51 35.66 66.94 36.29 66.74 36.77C66.67 36.94 66.89 37.08 66.99 36.92C67.12 36.72 67.28 36.54 67.47 36.39C67.67 36.22 67.96 36.14 68.14 35.94C68.19 35.88 68.18 35.76 68.09 35.75L68.08 35.74Z" fill="black"/>
<path d="M72.5899 32.54C71.8099 32.56 71.04 33.26 70.46 33.72C70.26 33.88 70.51 34.17 70.72 34.06C71.06 33.88 71.39 33.68 71.72 33.49C72.06 33.29 72.45 33.11 72.69 32.8C72.76 32.7 72.73 32.54 72.58 32.54H72.5899Z" fill="black"/>
<path d="M77.56 30.01C76.94 29.8 76.23 30.39 75.83 30.79C75.67 30.95 75.91 31.19 76.08 31.04C76.3 30.83 76.54 30.65 76.81 30.51C77.06 30.38 77.34 30.34 77.59 30.23C77.69 30.19 77.65 30.05 77.56 30.02V30.01Z" fill="black"/>
<path d="M53.74 35.5C55.49 36.29 57.52 36.33 59.42 36.46C61.36 36.6 61.36 33.32 59.42 33.45C57.7 33.57 55.94 33.49 54.23 33.69C53.39 33.79 52.76 35.05 53.74 35.5Z" fill="black"/>
<path d="M126.49 35.38C125.31 35.36 123.95 34.97 122.86 35.63C122.09 36.1 121.98 37.13 122.58 37.78C123.82 39.1 125.82 38.24 127.03 37.35C127.84 36.75 127.62 35.39 126.49 35.38Z" fill="black"/>
<path d="M126.99 29.45C126 29.22 125.04 29.47 124.04 29.61C122.47 29.84 121.15 30.19 119.56 30.05C119.37 29.76 119.16 29.47 118.94 29.19C119.81 28.7 120.94 28.5 121.51 27.6C121.87 27.02 121.87 26.12 121.78 25.39C122.47 24.67 123.01 24.3 124.13 24.23C124.38 24.22 124.45 23.84 124.19 23.78C123.05 23.51 121.34 23.74 120.66 24.89C120.39 25.35 120.46 26.12 120.33 26.63C120.18 27.18 118.52 27.47 118.04 27.82C117.98 27.86 117.93 27.91 117.89 27.96C117.67 27.73 117.45 27.5 117.23 27.28C117.97 26.51 118.33 25.17 118.8 24.25C119.38 23.11 120.12 21.34 121.43 20.86C121.71 20.76 121.6 20.32 121.31 20.41C120.11 20.77 119.27 22.03 118.56 22.97C117.89 23.86 116.71 25.27 116.48 26.54C115.93 26.02 115.39 25.53 114.87 25.08C114.69 24.92 114.5 24.75 114.31 24.6C114.31 24.6 114.31 24.6 114.31 24.59C114.15 23.15 115.26 22.27 115.84 21.07C116.56 19.61 116.79 17.19 118.05 16.14C118.11 16.09 118.03 16 117.97 16.04C116.31 17.16 115.94 19.48 114.66 20.9C114.03 21.59 113.04 22.67 113.05 23.61C112.09 22.9 111.1 22.24 110.06 21.64C110.15 21.46 110.19 21.23 110.22 20.94C110.33 19.75 111.11 18.52 111.84 17.59C112.22 17.11 113.13 16.59 113.18 15.9C113.29 14.58 112.5 12.99 113.93 12.09C114.09 11.99 113.99 11.75 113.81 11.79C111.48 12.34 113.19 15.38 111.91 16.54C110.78 17.57 109.24 19.34 109.02 21.04C108.6 20.82 108.18 20.6 107.75 20.39C106.87 19.96 105.96 19.57 105.05 19.22C105.32 18.97 105.51 18.65 105.51 18.22C105.51 17.77 105.38 17.35 105.35 16.9C105.29 16.15 106.34 15.37 106.81 14.88C108.34 13.26 106.54 10.68 108.74 9.41001C108.76 9.40001 108.76 9.36001 108.74 9.35001C106.93 9.00001 106.94 11.48 106.87 12.66C106.77 14.33 105.58 14.5 104.74 15.74C104.51 16.08 104.29 16.47 104.29 16.9C104.29 17.78 104.37 18.09 103.75 18.74C102.17 18.21 100.56 17.78 98.93 17.47C99.24 17.02 99.31 16.55 99.22 15.92C99.04 14.54 99.22 13.62 99.75 12.33C100.66 10.06 99.21 7.55001 100.34 5.29001C100.4 5.16001 100.21 5.05001 100.14 5.18001C99.08 7.12001 99.37 8.91001 99.24 11.03C99.21 11.61 98.67 12.31 98.43 12.82C98.19 13.32 98.04 13.83 97.9 14.36C97.82 14.7 97.82 15.05 97.87 15.39C97.97 16.07 97.91 16.61 97.79 17.27C96.28 17.03 94.76 16.87 93.23 16.8C93.55 16.08 93.25 15.18 93.07 14.37C92.74 12.82 93.88 11.71 93.9 10.24C93.91 9.05001 93.47 8.36001 92.71 7.49001C91.28 5.85001 92.71 3.69001 93.18 1.94001C93.27 1.62001 92.78 1.48001 92.68 1.80001C92.29 3.08001 91.53 4.32001 91.41 5.67001C91.27 7.25001 92.22 7.75001 92.75 9.12001C93.24 10.4 91.78 12.03 91.66 13.31C91.6 13.94 91.66 14.49 91.79 15.11C91.91 15.69 91.86 16.23 92 16.75C91.77 16.75 91.55 16.75 91.32 16.75C90.1 16.75 88.85 16.82 87.6 16.94C87.56 15.88 87.32 14.78 87.25 13.72C87.19 12.76 87.13 11.64 86.72 10.76C86.53 10.35 86.32 10.07 86.01 9.75001C85.26 8.96001 85.18 8.20001 85.44 7.19001C85.65 6.38001 85.55 5.87001 85.03 5.21001C85.02 5.19001 84.99 5.21001 85 5.23001C85.79 6.39001 85.07 7.35001 85.04 8.56001C85.01 9.60001 85.73 10.1 86.04 11.04C86.63 12.88 85.66 15.27 86.46 17.05C85.27 17.2 84.07 17.4 82.87 17.65C83.02 15.15 81.03 13.31 80.3 11.05C79.66 9.09001 80.6 6.63001 79.05 5.05001C78.87 4.87001 78.54 5.11001 78.69 5.32001C79.48 6.41001 79.3 7.48001 79.32 8.74001C79.33 9.55001 79.5 10.42 79.69 11.21C79.87 11.93 80.26 12.6 80.55 13.28C81.21 14.79 81.7 15.97 81.6 17.65C81.6 17.75 81.6 17.84 81.64 17.92C80.56 18.18 79.48 18.48 78.42 18.82C78.62 17.32 77.99 16.3 77.22 15.03C76.19 13.34 75.99 11.21 75.14 9.42001C75 9.12001 74.56 9.38001 74.69 9.68001C75.4 11.24 75.79 12.91 76.2 14.57C76.33 15.11 76.56 15.61 76.79 16.12C77.2 17.03 77.29 17.85 77.34 18.83C77.34 18.95 77.39 19.06 77.46 19.14C76.23 19.57 75.03 20.05 73.85 20.59C73.8 18.95 72.66 18.13 71.88 16.77C71.03 15.27 70.89 13.53 69.68 12.22C69.57 12.1 69.38 12.25 69.46 12.39C70.25 13.71 70.56 15.28 71.12 16.7C71.67 18.12 72.62 19.27 72.82 20.81C72.83 20.9 72.86 20.98 72.9 21.05C71.52 21.73 70.17 22.48 68.89 23.31C68.82 23.16 68.73 23 68.67 22.81C68.48 22.24 68.38 21.63 68.22 21.05C67.94 20.03 67.33 19.29 66.33 18.95C65.41 18.63 64.98 19.15 64.16 18.07C63.72 17.49 63.85 16.84 63.81 16.17C63.75 15.31 63.06 14.92 62.35 14.63C62.07 14.52 61.87 14.99 62.14 15.12C63.67 15.82 62.87 16.89 63.35 18.08C63.68 18.9 64.39 19.46 65.23 19.6C65.96 19.73 66.43 19.74 66.86 20.44C67.22 21.01 67.29 21.75 67.41 22.4C67.5 22.89 67.62 23.52 67.92 23.95C66.87 24.68 65.87 25.45 64.93 26.28C64.87 25.59 64.54 24.98 63.92 24.58C63.14 24.08 62.07 24.71 61.39 24.09C60.59 23.36 60.88 21.9 60.45 20.97C60.07 20.14 59.5 19.67 58.62 19.46C58.16 19.35 57.97 20.06 58.43 20.16C60.36 20.61 60.09 23.08 60.82 24.52C61.05 24.99 61.43 25.32 61.94 25.48C62.22 25.57 62.5 25.63 62.78 25.7C63.43 25.86 63.4 26.32 63.6 26.89C63.66 27.06 63.75 27.18 63.87 27.26C63.21 27.9 62.58 28.56 61.98 29.25C61.79 28.43 60.89 27.95 60.01 27.87C58.97 27.77 58.12 27.66 57.22 27.06C56.43 26.53 55.7 26.01 54.8 25.69C54.77 25.68 54.75 25.73 54.78 25.75C56.07 26.48 57.04 27.63 58.33 28.38C58.81 28.66 59.35 28.73 59.9 28.82C60.62 28.94 60.9 29.55 61.48 29.87C61.46 29.9 61.43 29.93 61.41 29.96C61.18 30.25 61.55 30.65 61.82 30.37C63.97 28.16 66.29 26.15 68.81 24.43C68.81 24.43 68.81 24.43 68.82 24.43C68.95 24.43 69.04 24.35 69.08 24.25C70.98 22.98 72.98 21.88 75.12 21C80.09 18.93 85.56 17.99 90.93 18C96.33 18 101.79 19.14 106.69 21.41C109.17 22.55 111.48 24.04 113.62 25.73C114.69 26.58 115.7 27.51 116.65 28.49C117.72 29.59 118.53 30.92 119.64 31.96C120.02 32.32 120.52 31.87 120.33 31.43C120.3 31.36 120.26 31.29 120.23 31.22C121.12 31.17 122 31.02 122.86 30.73C123.35 30.57 123.8 30.38 124.26 30.15C125.27 29.65 125.75 29.59 126.86 29.75C127.09 29.78 127.2 29.45 126.96 29.39L126.99 29.45Z" fill="black"/>
<path d="M86.01 54.8C86.45 54.87 86.9 54.94 87.34 54.99C87.2 53.53 86.85 52.11 86.08 50.85C84.42 48.12 80.74 47.83 77.89 47.43C76.36 47.22 74.81 47.01 73.35 46.47C71.5 45.78 69.84 44.72 68.19 43.65C65.33 41.79 62.26 39.41 58.66 39.66C58.61 39.66 58.6 39.73 58.65 39.74C64.69 41.84 69.1 47.2 75.49 48.39C78.31 48.91 82.03 48.74 84.3 50.75C85.43 51.75 85.82 53.33 86 54.8H86.01Z" fill="black"/>
<path d="M122.16 39.66C118.56 39.41 115.49 41.79 112.63 43.65C110.98 44.72 109.33 45.78 107.47 46.47C106.01 47.01 104.47 47.22 102.93 47.43C100.09 47.83 96.41 48.12 94.75 50.85C93.9 52.25 93.55 53.85 93.44 55.47C93.44 55.49 93.44 55.51 93.44 55.53C93.88 55.57 94.31 55.6 94.75 55.65C94.75 55.59 94.75 55.53 94.75 55.47C94.9 53.83 95.22 51.91 96.52 50.75C98.79 48.74 102.51 48.91 105.33 48.39C111.72 47.2 116.12 41.84 122.17 39.74C122.21 39.72 122.21 39.66 122.16 39.66Z" fill="black"/>
<path d="M89.12 54.41C89 54.66 88.93 54.91 88.91 55.16C89.26 55.19 89.6 55.23 89.95 55.26C90.04 54.98 90.16 54.71 90.36 54.43C90.96 53.59 91.33 52.88 91.41 51.84C91.45 51.35 91.25 50.82 91.06 50.39C90.73 49.64 90.76 49.08 90.85 48.29C90.89 47.94 90.39 47.65 90.11 47.87C89.28 48.5 89.18 49.27 89.53 50.25C89.82 51.04 90.19 51.58 90.03 52.47C89.9 53.17 89.42 53.79 89.11 54.42L89.12 54.41Z" fill="black"/>
<path d="M134.82 20.11L134.53 20.75L134.21 20.25C134.03 19.96 133.75 19.75 133.42 19.66L132.51 19.4L133.52 18.9C133.73 18.79 133.9 18.62 134 18.4L134.32 17.71L134.72 18.33C134.85 18.54 135.06 18.7 135.3 18.78L136.49 19.16L135.4 19.58C135.15 19.68 134.94 19.87 134.83 20.12L134.82 20.11Z" fill="black"/>
<path d="M139.66 24.72L139.56 24.93L139.45 24.76C139.39 24.66 139.29 24.59 139.18 24.56L138.87 24.47L139.21 24.3C139.28 24.27 139.34 24.21 139.37 24.13L139.48 23.9L139.61 24.11C139.66 24.18 139.73 24.24 139.81 24.26L140.21 24.39L139.84 24.53C139.75 24.56 139.69 24.63 139.65 24.71L139.66 24.72Z" fill="black"/>
<path d="M37.6 28.29L37.5 28.51L37.39 28.34C37.33 28.24 37.23 28.17 37.12 28.14L36.81 28.05L37.15 27.88C37.22 27.84 37.28 27.78 37.31 27.71L37.42 27.48L37.55 27.69C37.6 27.76 37.66 27.81 37.75 27.84L38.15 27.97L37.78 28.11C37.69 28.14 37.62 28.21 37.59 28.29H37.6Z" fill="black"/>
<path d="M136.82 31.61L136.72 31.83L136.61 31.66C136.55 31.56 136.45 31.49 136.34 31.46L136.03 31.37L136.37 31.2C136.44 31.16 136.5 31.11 136.53 31.03L136.64 30.8L136.77 31.01C136.82 31.08 136.89 31.14 136.97 31.16L137.37 31.29L137 31.43C136.92 31.46 136.85 31.53 136.81 31.61H136.82Z" fill="black"/>
<path d="M148.98 29.91L148.88 30.13L148.77 29.96C148.71 29.86 148.61 29.79 148.5 29.76L148.19 29.67L148.53 29.5C148.6 29.46 148.66 29.41 148.69 29.33L148.8 29.1L148.93 29.31C148.98 29.38 149.05 29.44 149.13 29.46L149.53 29.59L149.16 29.73C149.08 29.76 149.01 29.83 148.97 29.91H148.98Z" fill="black"/>
<path d="M144.59 40.69L144.49 40.91L144.38 40.74C144.32 40.64 144.22 40.57 144.11 40.54L143.8 40.45L144.14 40.28C144.21 40.25 144.27 40.19 144.3 40.11L144.41 39.88L144.54 40.09C144.59 40.16 144.66 40.21 144.74 40.24L145.14 40.37L144.77 40.51C144.69 40.54 144.61 40.61 144.58 40.69H144.59Z" fill="black"/>
<path d="M30.11 38.17L30.01 38.39L29.9 38.22C29.84 38.12 29.74 38.05 29.63 38.02L29.32 37.93L29.66 37.76C29.73 37.72 29.79 37.66 29.82 37.59L29.93 37.36L30.06 37.57C30.11 37.64 30.18 37.69 30.26 37.72L30.66 37.85L30.29 37.99C30.2 38.02 30.13 38.09 30.1 38.17H30.11Z" fill="black"/>
<path d="M32.23 33.3L32.13 33.52L32.02 33.35C31.96 33.25 31.86 33.18 31.75 33.15L31.44 33.06L31.78 32.89C31.85 32.85 31.91 32.79 31.94 32.72L32.05 32.49L32.18 32.7C32.23 32.77 32.3 32.82 32.38 32.85L32.78 32.98L32.41 33.12C32.32 33.15 32.25 33.22 32.21 33.3H32.23Z" fill="black"/>
<path d="M54.9 54.17L54.8 54.39L54.69 54.22C54.63 54.12 54.53 54.05 54.42 54.02L54.11 53.93L54.45 53.76C54.52 53.72 54.58 53.66 54.61 53.59L54.72 53.36L54.85 53.57C54.9 53.64 54.97 53.69 55.05 53.72L55.45 53.85L55.08 53.99C54.99 54.02 54.92 54.09 54.89 54.17H54.9Z" fill="black"/>
<path d="M143.02 17.08L142.92 17.3L142.81 17.13C142.75 17.03 142.65 16.96 142.54 16.93L142.23 16.84L142.57 16.67C142.64 16.63 142.7 16.57 142.73 16.5L142.84 16.27L142.97 16.48C143.02 16.55 143.08 16.61 143.17 16.63L143.58 16.76L143.21 16.9C143.12 16.93 143.05 17 143.02 17.08Z" fill="black"/>
<path d="M31.62 21.25L31.52 21.46L31.41 21.29C31.35 21.19 31.25 21.12 31.14 21.09L30.83 21L31.17 20.83C31.24 20.8 31.3 20.74 31.34 20.66L31.45 20.43L31.58 20.64C31.63 20.71 31.7 20.77 31.78 20.79L32.18 20.92L31.81 21.07C31.73 21.1 31.65 21.17 31.62 21.25Z" fill="black"/>
<path d="M133.97 41.02L133.86 41.46L133.59 41.18C133.44 41.02 133.23 40.92 133.01 40.9L132.4 40.84L132.98 40.4C133.1 40.31 133.19 40.17 133.23 40.02L133.35 39.54L133.68 39.89C133.79 40.01 133.94 40.08 134.1 40.1L134.91 40.2L134.26 40.6C134.11 40.69 134 40.84 133.96 41.01L133.97 41.02Z" fill="black"/>
<path d="M48.4 21.91L49.41 22.12L48.79 22.75C48.44 23.11 48.23 23.58 48.21 24.08L48.13 25.48L47.07 24.19C46.85 23.92 46.54 23.74 46.2 23.67L45.11 23.44L45.87 22.67C46.13 22.4 46.28 22.06 46.32 21.69L46.47 19.85L47.44 21.28C47.67 21.61 48.01 21.84 48.4 21.92V21.91Z" fill="black"/>
<path d="M61.39 47.41L61.83 47.52L61.55 47.79C61.39 47.94 61.29 48.15 61.27 48.37L61.21 48.98L60.77 48.39C60.68 48.27 60.54 48.18 60.39 48.14L59.91 48.02L60.26 47.69C60.38 47.58 60.45 47.43 60.47 47.27L60.57 46.46L60.98 47.11C61.07 47.26 61.22 47.37 61.39 47.41Z" fill="black"/>
<path d="M31.99 55.87L32.43 55.98L32.15 56.25C31.99 56.4 31.89 56.61 31.87 56.83L31.81 57.44L31.36 56.85C31.27 56.73 31.13 56.64 30.99 56.6L30.51 56.48L30.86 56.15C30.98 56.04 31.05 55.89 31.07 55.73L31.17 54.92L31.57 55.57C31.66 55.72 31.81 55.83 31.98 55.87H31.99Z" fill="black"/>
<path d="M142.4 33.97L142.25 34.57L141.89 34.19C141.68 33.97 141.41 33.84 141.11 33.81L140.28 33.74L141.07 33.14C141.24 33.01 141.36 32.83 141.4 32.63L141.56 31.98L142.01 32.45C142.16 32.61 142.36 32.71 142.59 32.74L143.68 32.87L142.8 33.42C142.6 33.55 142.45 33.75 142.39 33.98L142.4 33.97Z" fill="black"/>
<path d="M125.28 13.61L125.13 14.21L124.77 13.83C124.56 13.61 124.29 13.48 123.99 13.45L123.16 13.37L123.95 12.77C124.11 12.64 124.23 12.46 124.28 12.26L124.44 11.61L124.89 12.08C125.04 12.24 125.25 12.34 125.47 12.37L126.57 12.5L125.69 13.05C125.49 13.18 125.34 13.38 125.28 13.61Z" fill="black"/>
<path d="M124.58 49.42L124.43 50.02L124.07 49.64C123.86 49.42 123.58 49.29 123.29 49.26L122.46 49.18L123.25 48.58C123.42 48.45 123.54 48.27 123.58 48.07L123.74 47.42L124.19 47.89C124.34 48.05 124.54 48.15 124.77 48.18L125.86 48.31L124.98 48.86C124.78 48.99 124.63 49.19 124.57 49.42H124.58Z" fill="black"/>
<path d="M43.63 48.16C42.08 48.33 40.68 47.2 40.52 45.65C40.35 44.1 41.48 42.7 43.03 42.54C44.58 42.37 45.98 43.5 46.14 45.05C46.31 46.6 45.18 47.99 43.63 48.16Z" fill="black"/>
<path d="M47.41 44.76L54.52 43.75C54.73 43.72 54.93 43.87 54.96 44.08C54.99 44.29 54.84 44.5 54.63 44.53C54.63 44.53 54.61 44.53 54.6 44.53L47.44 45.05C47.36 45.05 47.29 44.99 47.28 44.91C47.28 44.83 47.33 44.77 47.41 44.76Z" fill="black"/>
<path d="M32.08 46.16L39.28 45.64C39.36 45.64 39.43 45.69 39.43 45.77C39.43 45.85 39.38 45.91 39.31 45.93L32.16 46.95C31.94 46.98 31.75 46.83 31.72 46.62C31.69 46.4 31.84 46.2 32.05 46.17C32.05 46.17 32.07 46.17 32.08 46.17V46.16Z" fill="black"/>
<path d="M43.94 49.39L45.09 55.88C45.13 56.09 44.99 56.28 44.78 56.32C44.57 56.36 44.38 56.22 44.34 56.01C44.34 56.01 44.34 55.99 44.34 55.98L43.66 49.43C43.66 49.35 43.71 49.28 43.79 49.27C43.87 49.27 43.94 49.32 43.95 49.39H43.94Z" fill="black"/>
<path d="M42.68 34.33L43.07 41.27C43.07 41.35 43.01 41.42 42.93 41.42C42.85 41.42 42.79 41.37 42.78 41.3L41.69 34.44C41.65 34.17 41.83 33.92 42.1 33.87C42.37 33.83 42.63 34.01 42.67 34.28C42.67 34.3 42.67 34.31 42.67 34.33H42.68Z" fill="black"/>
<path d="M47.64 46.34L52.12 47.83C52.26 47.87 52.33 48.02 52.29 48.16C52.24 48.3 52.1 48.37 51.96 48.33C51.96 48.33 51.96 48.33 51.95 48.33L47.54 46.63C47.46 46.6 47.43 46.52 47.46 46.44C47.49 46.37 47.57 46.33 47.64 46.35V46.34Z" fill="black"/>
<path d="M46.37 47.73C46.43 47.7 46.57 47.73 46.59 47.76L46.65 47.8C46.65 47.8 46.73 47.86 46.77 47.89L46.99 48.07L47.41 48.43L48.23 49.16L49.85 50.65C49.96 50.75 49.97 50.92 49.87 51.03C49.77 51.14 49.6 51.15 49.49 51.05L49.48 51.04L47.95 49.47L47.18 48.7L46.79 48.32L46.59 48.14C46.59 48.14 46.52 48.08 46.49 48.06L46.44 48.02C46.44 48.02 46.52 48.04 46.53 48C46.46 48.04 46.37 48.02 46.33 47.94C46.29 47.87 46.32 47.78 46.39 47.74L46.37 47.73Z" fill="black"/>
<path d="M45.42 48.74L46.85 52.09C46.9 52.21 46.85 52.36 46.72 52.41C46.59 52.46 46.45 52.41 46.39 52.28C46.39 52.28 46.39 52.28 46.39 52.27L45.15 48.84C45.12 48.76 45.16 48.68 45.24 48.65C45.31 48.62 45.39 48.65 45.42 48.73V48.74Z" fill="black"/>
<path d="M41.64 49.33L40.71 53.96C40.68 54.1 40.54 54.19 40.4 54.16C40.26 54.13 40.17 53.99 40.19 53.85C40.19 53.85 40.19 53.85 40.19 53.84L41.34 49.26C41.36 49.18 41.44 49.14 41.52 49.15C41.6 49.17 41.64 49.24 41.63 49.32L41.64 49.33Z" fill="black"/>
<path d="M40.1 48.24C40.14 48.29 40.12 48.44 40.1 48.46L40.06 48.53C40.06 48.53 40.01 48.62 39.99 48.66L39.84 48.9L39.53 49.36L38.9 50.26L37.62 52.05C37.53 52.17 37.36 52.2 37.24 52.11C37.12 52.02 37.09 51.85 37.18 51.73C37.18 51.73 37.18 51.72 37.19 51.71L38.56 50L39.23 49.14L39.56 48.7L39.72 48.48C39.72 48.48 39.77 48.41 39.79 48.37L39.82 48.32C39.82 48.32 39.81 48.4 39.86 48.41C39.81 48.35 39.82 48.25 39.89 48.21C39.96 48.16 40.05 48.18 40.1 48.24Z" fill="black"/>
<path d="M38.98 47.42L35.83 49.25C35.71 49.32 35.56 49.28 35.49 49.16C35.42 49.04 35.46 48.89 35.58 48.82C35.58 48.82 35.58 48.82 35.59 48.82L38.84 47.17C38.91 47.13 39 47.17 39.03 47.23C39.07 47.3 39.04 47.39 38.98 47.42Z" fill="black"/>
<path d="M38.35 44.64L33.98 42.84C33.85 42.78 33.78 42.63 33.84 42.5C33.89 42.37 34.05 42.3 34.18 42.36C34.18 42.36 34.18 42.36 34.19 42.36L38.47 44.37C38.54 44.4 38.57 44.49 38.54 44.56C38.51 44.63 38.42 44.66 38.35 44.63V44.64Z" fill="black"/>
<path d="M39.72 43.34C39.66 43.36 39.52 43.32 39.51 43.29L39.45 43.24C39.45 43.24 39.37 43.18 39.34 43.14L39.14 42.95L38.75 42.56L37.98 41.77L36.47 40.17C36.37 40.06 36.37 39.89 36.47 39.79C36.58 39.69 36.75 39.69 36.85 39.79C36.85 39.79 36.85 39.8 36.86 39.8L38.27 41.47L38.99 42.29L39.36 42.7L39.54 42.89C39.54 42.89 39.6 42.95 39.63 42.98L39.68 43.02C39.68 43.02 39.61 42.99 39.59 43.04C39.66 43.01 39.75 43.04 39.79 43.11C39.83 43.18 39.79 43.27 39.72 43.3V43.34Z" fill="black"/>
<path d="M40.74 42.39L39.55 38.95C39.51 38.82 39.57 38.68 39.7 38.64C39.83 38.6 39.97 38.66 40.02 38.79C40.02 38.79 40.02 38.79 40.02 38.8L41.02 42.31C41.04 42.39 41 42.47 40.92 42.49C40.84 42.51 40.77 42.47 40.74 42.4V42.39Z" fill="black"/>
<path d="M44.79 41.59L45.53 36.92C45.55 36.78 45.69 36.68 45.83 36.7C45.97 36.72 46.07 36.86 46.05 37C46.05 37 46.05 37 46.05 37.01L45.09 41.64C45.07 41.72 45 41.77 44.92 41.75C44.84 41.73 44.79 41.66 44.81 41.59H44.79Z" fill="black"/>
<path d="M46.36 42.62C46.32 42.57 46.33 42.42 46.36 42.4L46.39 42.33C46.39 42.33 46.43 42.24 46.46 42.2L46.6 41.96L46.89 41.49L47.48 40.56L48.68 38.72C48.76 38.59 48.93 38.56 49.05 38.64C49.17 38.72 49.21 38.89 49.13 39.02C49.13 39.02 49.13 39.03 49.12 39.04L47.82 40.8L47.18 41.69L46.87 42.14L46.72 42.37C46.72 42.37 46.67 42.44 46.65 42.48L46.62 42.53C46.62 42.53 46.63 42.45 46.58 42.44C46.63 42.5 46.62 42.6 46.56 42.65C46.5 42.7 46.4 42.69 46.35 42.63L46.36 42.62Z" fill="black"/>
<path d="M47.52 43.39L50.59 41.43C50.7 41.36 50.86 41.39 50.93 41.51C51 41.62 50.97 41.78 50.85 41.85C50.85 41.85 50.85 41.85 50.84 41.85L47.66 43.64C47.59 43.68 47.5 43.65 47.46 43.58C47.42 43.51 47.44 43.43 47.51 43.39H47.52Z" fill="black"/>
<path d="M140.83 51.39C139.73 51.51 138.74 50.71 138.62 49.61C138.5 48.51 139.3 47.52 140.4 47.4C141.5 47.28 142.49 48.08 142.61 49.18C142.73 50.28 141.93 51.27 140.83 51.39Z" fill="black"/>
<path d="M143.51 48.98L148.55 48.26C148.7 48.24 148.84 48.34 148.86 48.5C148.88 48.65 148.78 48.79 148.62 48.82C148.62 48.82 148.61 48.82 148.6 48.82L143.52 49.19C143.46 49.19 143.41 49.15 143.41 49.09C143.41 49.04 143.45 48.99 143.5 48.98H143.51Z" fill="black"/>
<path d="M132.64 49.97L137.75 49.6C137.81 49.6 137.86 49.64 137.86 49.69C137.86 49.75 137.82 49.79 137.77 49.8L132.7 50.52C132.55 50.54 132.41 50.44 132.39 50.28C132.37 50.13 132.47 49.99 132.63 49.96C132.63 49.96 132.64 49.96 132.65 49.96L132.64 49.97Z" fill="black"/>
<path d="M141.05 52.26L141.87 56.86C141.9 57.01 141.8 57.15 141.65 57.17C141.5 57.2 141.36 57.1 141.34 56.95C141.34 56.95 141.34 56.94 141.34 56.93L140.86 52.29C140.86 52.23 140.9 52.18 140.95 52.18C141 52.18 141.05 52.21 141.06 52.27L141.05 52.26Z" fill="black"/>
<path d="M140.16 41.58L140.44 46.5C140.44 46.56 140.4 46.61 140.34 46.61C140.29 46.61 140.24 46.57 140.23 46.52L139.46 41.66C139.43 41.47 139.56 41.29 139.75 41.26C139.94 41.23 140.12 41.36 140.15 41.55C140.15 41.56 140.15 41.57 140.15 41.58H140.16Z" fill="black"/>
<path d="M143.67 50.1L146.85 51.16C146.95 51.19 147 51.3 146.97 51.39C146.94 51.49 146.83 51.54 146.74 51.51L143.62 50.3C143.57 50.28 143.54 50.22 143.56 50.17C143.58 50.12 143.64 50.09 143.69 50.11L143.67 50.1Z" fill="black"/>
<path d="M142.77 51.08C142.77 51.08 142.91 51.08 142.92 51.1L142.96 51.13C142.96 51.13 143.02 51.17 143.04 51.19L143.19 51.32L143.49 51.57L144.07 52.09L145.22 53.14C145.3 53.21 145.3 53.33 145.23 53.41C145.16 53.49 145.04 53.49 144.96 53.42L143.88 52.31L143.33 51.76L143.05 51.49L142.91 51.36C142.91 51.36 142.86 51.32 142.84 51.3L142.8 51.27C142.8 51.27 142.85 51.29 142.87 51.25C142.82 51.28 142.76 51.26 142.73 51.21C142.7 51.16 142.72 51.1 142.77 51.07V51.08Z" fill="black"/>
<path d="M142.1 51.8L143.12 54.18C143.16 54.27 143.12 54.37 143.03 54.41C142.94 54.45 142.84 54.41 142.8 54.32L141.92 51.89C141.9 51.84 141.92 51.78 141.98 51.76C142.03 51.74 142.09 51.76 142.11 51.82L142.1 51.8Z" fill="black"/>
<path d="M139.42 52.22L138.76 55.5C138.74 55.6 138.64 55.67 138.54 55.65C138.44 55.63 138.37 55.53 138.39 55.43L139.21 52.17C139.23 52.11 139.28 52.08 139.34 52.1C139.39 52.11 139.43 52.17 139.42 52.22Z" fill="black"/>
<path d="M138.33 51.44C138.33 51.44 138.34 51.58 138.33 51.59L138.3 51.64C138.3 51.64 138.27 51.7 138.25 51.73L138.14 51.9L137.92 52.23L137.48 52.87L136.58 54.14C136.52 54.23 136.4 54.25 136.31 54.18C136.22 54.12 136.2 54 136.27 53.91C136.27 53.91 136.27 53.91 136.27 53.9L137.24 52.69L137.72 52.08L137.95 51.77L138.06 51.61C138.06 51.61 138.09 51.56 138.11 51.53L138.13 51.49C138.13 51.49 138.13 51.55 138.16 51.55C138.13 51.5 138.14 51.44 138.18 51.41C138.23 51.38 138.29 51.39 138.33 51.43V51.44Z" fill="black"/>
<path d="M137.53 50.86L135.29 52.16C135.21 52.21 135.1 52.18 135.05 52.1C135 52.02 135.03 51.91 135.11 51.86L137.42 50.69C137.42 50.69 137.53 50.69 137.56 50.73C137.59 50.78 137.56 50.84 137.52 50.87L137.53 50.86Z" fill="black"/>
<path d="M137.09 48.89L133.99 47.62C133.89 47.58 133.85 47.47 133.89 47.38C133.93 47.29 134.04 47.24 134.13 47.28L137.16 48.7C137.21 48.72 137.23 48.79 137.21 48.84C137.19 48.89 137.13 48.91 137.08 48.89H137.09Z" fill="black"/>
<path d="M138.06 47.97C138.06 47.97 137.92 47.96 137.91 47.94L137.87 47.91C137.87 47.91 137.81 47.86 137.79 47.84L137.65 47.7L137.37 47.43L136.83 46.87L135.76 45.74C135.69 45.66 135.69 45.54 135.76 45.47C135.84 45.4 135.96 45.4 136.03 45.47C136.03 45.47 136.03 45.47 136.03 45.48L137.03 46.67L137.54 47.25L137.8 47.54L137.93 47.68C137.93 47.68 137.97 47.72 138 47.74L138.03 47.77C138.03 47.77 137.98 47.75 137.96 47.78C138.01 47.76 138.07 47.78 138.1 47.83C138.13 47.88 138.1 47.94 138.05 47.97H138.06Z" fill="black"/>
<path d="M138.78 47.3L137.93 44.86C137.9 44.77 137.95 44.67 138.04 44.64C138.13 44.61 138.23 44.66 138.26 44.75L138.97 47.23C138.99 47.29 138.95 47.34 138.9 47.36C138.85 47.37 138.79 47.34 138.77 47.29L138.78 47.3Z" fill="black"/>
<path d="M141.65 46.73L142.17 43.42C142.19 43.32 142.28 43.25 142.38 43.27C142.48 43.29 142.55 43.38 142.53 43.48L141.85 46.76C141.84 46.82 141.78 46.85 141.73 46.84C141.68 46.83 141.64 46.78 141.65 46.72V46.73Z" fill="black"/>
<path d="M142.77 47.46C142.77 47.46 142.75 47.32 142.77 47.3L142.79 47.25C142.79 47.25 142.82 47.19 142.84 47.16L142.94 46.99L143.14 46.66L143.56 46L144.41 44.7C144.47 44.61 144.59 44.59 144.67 44.64C144.76 44.7 144.78 44.82 144.73 44.91C144.73 44.91 144.73 44.91 144.73 44.92L143.81 46.17L143.36 46.8L143.14 47.12L143.04 47.28C143.04 47.28 143.01 47.33 142.99 47.36L142.97 47.4C142.97 47.4 142.97 47.34 142.94 47.34C142.97 47.38 142.97 47.45 142.92 47.49C142.88 47.53 142.81 47.52 142.77 47.48V47.46Z" fill="black"/>
<path d="M143.59 48.01L145.77 46.62C145.85 46.57 145.96 46.59 146.01 46.67C146.06 46.75 146.04 46.86 145.96 46.91L143.71 48.18C143.71 48.18 143.6 48.18 143.57 48.14C143.54 48.09 143.56 48.03 143.6 48L143.59 48.01Z" fill="black"/>
<path d="M54.79 65.89C54.79 65.89 90.06 54.52 128.15 63.55" stroke="black" stroke-miterlimit="10"/>
<path d="M52.44 71.85C52.44 71.85 92.17 57.76 130.47 70.76" stroke="black" stroke-miterlimit="10"/>
<path d="M109.28 70.22C109.28 70.22 117.48 70.16 124.86 73.82" stroke="black" stroke-miterlimit="10"/>
<path d="M112.02 73.82C112.02 73.82 116.56 73.31 120.43 76.03" stroke="black" stroke-miterlimit="10"/>
<path d="M60.87 88.37C60.87 88.37 67.45 82.58 83.08 82.66" stroke="black" stroke-miterlimit="10"/>
<path d="M62.08 82.66C62.08 82.66 67.05 77.36 76.71 78.14" stroke="black" stroke-miterlimit="10"/>
<path d="M117.13 211.21C120.6 210.93 124.05 210.5 127.5 210.07C129.23 209.85 130.96 209.64 132.69 209.42C134.78 209.16 137.35 208.42 139.35 209.42C139.8 209.65 140.2 208.97 139.75 208.75C136.83 207.26 132.66 208.68 129.59 209.09C125.42 209.64 121.24 210.16 117.1 210.88C116.91 210.91 116.96 211.23 117.15 211.21H117.13Z" fill="#030303"/>
<path d="M119.39 214.49C126.49 214.12 133.5 212.73 140.58 212.2C140.97 212.17 140.98 211.6 140.58 211.59C137.06 211.46 133.48 212.22 130 212.67C126.45 213.13 122.87 213.59 119.37 214.32C119.27 214.34 119.29 214.5 119.39 214.5V214.49Z" fill="#030303"/>
<path d="M121.48 218.1C128.33 216.73 135.06 216.39 142.02 216.4C142.47 216.4 142.46 215.73 142.02 215.7C135.14 215.2 128.07 216.12 121.38 217.74C121.15 217.8 121.25 218.14 121.48 218.09V218.1Z" fill="#030303"/>
<path d="M119.41 220.6C125.03 220.11 131.13 220.33 136.61 219.02C136.84 218.96 136.78 218.63 136.56 218.62C130.95 218.31 125 219.61 119.41 220.12C119.1 220.15 119.1 220.63 119.41 220.6Z" fill="#030303"/>
<path d="M58.49 220.5C55.08 219.8 51.65 219.24 48.21 218.69C46.49 218.41 44.77 218.13 43.05 217.86C40.97 217.52 38.3 217.52 36.66 215.99C36.29 215.65 35.74 216.2 36.11 216.54C38.5 218.78 42.9 218.58 45.96 219.06C50.12 219.7 54.27 220.37 58.45 220.84C58.64 220.86 58.68 220.54 58.5 220.51L58.49 220.5Z" fill="#030303"/>
<path d="M57.25 216.73C50.33 215.09 43.22 214.41 36.26 212.99C35.87 212.91 35.72 213.45 36.1 213.58C39.41 214.73 43.12 214.97 46.57 215.51C50.11 216.06 53.67 216.63 57.23 216.9C57.33 216.9 57.35 216.75 57.25 216.72V216.73Z" fill="#030303"/>
<path d="M56.25 212.67C49.29 212.07 42.74 210.5 36.06 208.55C35.62 208.42 35.46 209.07 35.88 209.22C42.35 211.62 49.39 212.73 56.26 213.04C56.5 213.05 56.49 212.69 56.26 212.67H56.25Z" fill="#030303"/>
<path d="M58.94 210.85C53.41 209.75 47.62 207.83 41.98 207.55C41.74 207.54 41.72 207.88 41.93 207.95C47.22 209.82 53.3 210.24 58.81 211.31C59.12 211.37 59.25 210.9 58.94 210.84V210.85Z" fill="#030303"/>
<path d="M91.32 220.46C90.14 220.46 89.17 219.5 89.17 218.32C89.17 217.14 90.13 216.17 91.31 216.17C92.49 216.17 93.46 217.13 93.46 218.31C93.46 219.49 92.51 220.46 91.32 220.46Z" fill="black"/>
<path d="M94.44 218.2L99.89 218C100.05 218 100.19 218.12 100.2 218.29C100.2 218.45 100.08 218.59 99.91 218.6C99.91 218.6 99.9 218.6 99.89 218.6L94.44 218.43C94.38 218.43 94.33 218.38 94.33 218.32C94.33 218.26 94.38 218.21 94.44 218.21V218.2Z" fill="black"/>
<path d="M82.76 218.04L88.24 218.22C88.3 218.22 88.35 218.27 88.35 218.33C88.35 218.39 88.3 218.43 88.24 218.44L82.76 218.64C82.6 218.64 82.46 218.52 82.45 218.35C82.45 218.19 82.57 218.05 82.74 218.04C82.74 218.04 82.75 218.04 82.76 218.04Z" fill="black"/>
<path d="M91.45 221.41L91.81 226.4C91.82 226.56 91.7 226.7 91.54 226.71C91.38 226.72 91.24 226.6 91.23 226.44C91.23 226.44 91.23 226.43 91.23 226.42V221.42C91.23 221.36 91.28 221.31 91.34 221.31C91.4 221.31 91.45 221.36 91.45 221.41Z" fill="black"/>
<path d="M91.69 209.95L91.44 215.21C91.44 215.27 91.39 215.32 91.32 215.31C91.26 215.31 91.22 215.26 91.21 215.21L90.93 209.95C90.92 209.74 91.08 209.57 91.29 209.56C91.5 209.55 91.67 209.71 91.69 209.92C91.69 209.93 91.69 209.94 91.69 209.96V209.95Z" fill="black"/>
<path d="M94.49 219.4L97.75 220.88C97.85 220.92 97.89 221.04 97.85 221.14C97.81 221.24 97.69 221.28 97.59 221.24L94.4 219.6C94.35 219.57 94.32 219.51 94.35 219.45C94.38 219.4 94.44 219.37 94.49 219.4Z" fill="black"/>
<path d="M93.42 220.35C93.42 220.35 93.57 220.37 93.58 220.39L93.62 220.43C93.62 220.43 93.68 220.48 93.7 220.51L93.85 220.66L94.14 220.96L94.7 221.58L95.81 222.83C95.88 222.91 95.88 223.04 95.79 223.12C95.7 223.2 95.58 223.19 95.5 223.1C95.5 223.1 95.5 223.1 95.5 223.09L94.47 221.78L93.95 221.13L93.69 220.81L93.55 220.66C93.55 220.66 93.51 220.61 93.48 220.59L93.45 220.56C93.45 220.56 93.5 220.58 93.52 220.55C93.46 220.57 93.4 220.55 93.37 220.49C93.35 220.43 93.37 220.37 93.43 220.34L93.42 220.35Z" fill="black"/>
<path d="M92.62 221.04L93.43 223.68C93.46 223.78 93.4 223.88 93.31 223.91C93.21 223.94 93.11 223.89 93.07 223.79L92.41 221.11C92.4 221.05 92.43 220.99 92.49 220.98C92.55 220.96 92.6 221 92.62 221.05V221.04Z" fill="black"/>
<path d="M89.72 221.19L88.65 224.61C88.62 224.71 88.51 224.77 88.4 224.74C88.3 224.71 88.24 224.6 88.27 224.49L89.5 221.12C89.52 221.06 89.58 221.03 89.64 221.05C89.7 221.07 89.73 221.13 89.71 221.19H89.72Z" fill="black"/>
<path d="M88.65 220.24C88.65 220.24 88.65 220.39 88.63 220.4L88.6 220.45C88.6 220.45 88.56 220.51 88.54 220.54L88.41 220.71L88.14 221.03L87.6 221.66L86.5 222.91C86.42 222.99 86.29 223 86.21 222.93C86.13 222.85 86.12 222.73 86.19 222.64C86.19 222.64 86.19 222.64 86.2 222.63L87.37 221.45L87.95 220.85L88.23 220.55L88.37 220.4C88.37 220.4 88.41 220.35 88.43 220.32L88.46 220.28C88.46 220.28 88.44 220.34 88.48 220.35C88.45 220.3 88.47 220.23 88.52 220.2C88.57 220.17 88.64 220.19 88.67 220.24H88.65Z" fill="black"/>
<path d="M87.87 219.53L85.35 220.66C85.25 220.7 85.14 220.66 85.1 220.57C85.06 220.48 85.1 220.36 85.19 220.32L87.77 219.33C87.83 219.31 87.89 219.33 87.91 219.39C87.93 219.45 87.91 219.51 87.85 219.53H87.87Z" fill="black"/>
<path d="M87.61 217.39L84.46 215.69C84.36 215.64 84.33 215.52 84.38 215.42C84.43 215.32 84.55 215.29 84.65 215.34L87.72 217.19C87.77 217.22 87.79 217.29 87.76 217.34C87.73 217.39 87.66 217.41 87.61 217.38V217.39Z" fill="black"/>
<path d="M88.75 216.51C88.75 216.51 88.6 216.48 88.59 216.46L88.55 216.42C88.55 216.42 88.49 216.37 88.47 216.34L88.33 216.18L88.06 215.86L87.54 215.2L86.53 213.88C86.46 213.79 86.48 213.66 86.57 213.59C86.66 213.52 86.79 213.54 86.86 213.63C86.86 213.63 86.86 213.63 86.86 213.64L87.8 215.02L88.28 215.7L88.52 216.03L88.64 216.19C88.64 216.19 88.68 216.24 88.7 216.26L88.73 216.3C88.73 216.3 88.68 216.27 88.66 216.3C88.72 216.28 88.78 216.3 88.8 216.37C88.82 216.43 88.8 216.49 88.73 216.51H88.75Z" fill="black"/>
<path d="M89.59 215.88L88.96 213.19C88.94 213.09 89 212.99 89.1 212.96C89.2 212.94 89.3 213 89.33 213.1C89.33 213.1 89.33 213.1 89.33 213.11L89.81 215.83C89.82 215.89 89.78 215.95 89.72 215.96C89.66 215.96 89.61 215.93 89.59 215.87V215.88Z" fill="black"/>
<path d="M92.71 215.6L93.64 212.14C93.67 212.04 93.78 211.97 93.88 212C93.98 212.03 94.05 212.14 94.02 212.24L92.93 215.65C92.91 215.71 92.85 215.74 92.79 215.72C92.73 215.7 92.7 215.64 92.72 215.59L92.71 215.6Z" fill="black"/>
<path d="M93.82 216.5C93.82 216.5 93.82 216.35 93.83 216.33L93.86 216.28C93.86 216.28 93.9 216.22 93.92 216.19L94.04 216.02L94.29 215.69L94.81 215.04L95.86 213.75C95.93 213.66 96.06 213.65 96.15 213.72C96.24 213.79 96.25 213.92 96.18 214.01C96.18 214.01 96.18 214.01 96.17 214.02L95.05 215.25L94.5 215.87L94.23 216.18L94.1 216.34C94.1 216.34 94.06 216.39 94.04 216.42L94.01 216.46C94.01 216.46 94.03 216.4 93.99 216.39C94.02 216.44 94.01 216.51 93.96 216.54C93.91 216.57 93.84 216.56 93.81 216.51L93.82 216.5Z" fill="black"/>
<path d="M94.63 217.17L97.1 215.94C97.19 215.89 97.31 215.94 97.35 216.03C97.4 216.12 97.35 216.24 97.26 216.28L94.72 217.38C94.66 217.4 94.6 217.38 94.57 217.32C94.55 217.27 94.57 217.2 94.62 217.18L94.63 217.17Z" fill="black"/>
</g>
<defs>
<radialGradient id="paint0_radial_2003_3228" cx="0" cy="0" r="1" gradientUnits="userSpaceOnUse" gradientTransform="translate(86.6113 215.753) rotate(-3.83) scale(82.12 43.5236)">
<stop stop-color="#130C0E" stop-opacity="0.95"/>
<stop offset="0.17" stop-color="#130C0E" stop-opacity="0.75"/>
<stop offset="0.2" stop-color="#130C0E" stop-opacity="0.65"/>
<stop offset="0.52" stop-color="#130C0E" stop-opacity="0"/>
</radialGradient>
<clipPath id="clip0_2003_3228">
<rect width="184.63" height="231.28" fill="white"/>
</clipPath>
</defs>
</svg>
