<svg width="230" height="230" viewBox="0 0 230 230" fill="none" xmlns="http://www.w3.org/2000/svg">
<path d="M114.86 165.01C87.19 165.01 64.69 142.5 64.69 114.84C64.69 87.18 87.2 64.67 114.86 64.67C142.52 64.67 165.03 87.18 165.03 114.84C165.03 142.5 142.52 165.01 114.86 165.01ZM114.86 67.67C88.85 67.67 67.69 88.83 67.69 114.84C67.69 140.85 88.85 162.01 114.86 162.01C140.87 162.01 162.03 140.85 162.03 114.84C162.03 88.83 140.87 67.67 114.86 67.67Z" fill="black"/>
<path d="M128.11 111.11C128.71 111.88 129.56 112.62 130.42 113.08C133.5 114.7 137.3 113.51 139.96 111.66C141.45 110.61 143.07 110.17 144.86 110.15C146.47 110.13 148.74 109.55 149.6 108.06C150.37 106.73 149.78 105.15 148.56 104.3C147.27 103.4 145.82 103.53 144.53 104.36C143.63 104.94 143.31 106.11 143.87 107.03C144.19 107.57 144.64 107.93 145.32 107.87C146.13 107.79 146.48 107.46 146.71 106.57C146.33 106.4 145.94 106.22 145.36 105.95C145.71 105.65 145.82 105.51 145.97 105.45C146.57 105.17 147.29 105.27 147.62 105.65C147.91 105.98 147.82 106.81 147.39 107.29C146.81 107.95 146.08 108.34 145.2 108.47C142.97 108.81 141.01 108.24 139.25 106.85C136.64 104.78 133.11 102.04 129.67 103.89C128.35 104.6 126.9 105.5 125.83 106.55C125.29 107.09 124.98 107.74 124.56 108.37C124.71 108.15 126.72 108.9 126.95 109.14C127.49 109.69 127.67 110.53 128.14 111.13L128.11 111.11ZM145.24 107.01C144.627 106.737 144.403 106.277 144.57 105.63C144.78 106.06 145 106.53 145.24 107.01ZM149.05 106.76C149.11 107.91 149 108.08 147.7 108.56C148.21 107.87 148.64 107.31 149.05 106.76ZM131.83 112.62C132.75 112.26 133.63 112.04 134.36 111.58C135.12 111.1 135.73 110.39 136.49 109.7C137.69 109.82 139.07 109.96 140.57 110.11C137.22 112.62 134.39 113.76 131.83 112.62ZM134.07 109.05C134.48 109.18 134.81 109.28 135.31 109.44C134.9 109.89 134.6 110.23 134.16 110.71C134.12 110.06 134.1 109.63 134.07 109.06V109.05ZM130.48 105.01C132.48 104.36 134.46 104.29 136.27 105.7C137.53 106.69 138.87 107.58 140.4 108.67C139.56 108.73 138.94 108.81 138.32 108.81C136.61 108.81 134.93 108.53 133.38 107.8C131.92 107.12 130.45 106.74 128.84 106.89C128.61 106.91 128.36 106.86 127.92 106.83C128.72 105.93 129.55 105.3 130.48 105V105.01Z" fill="black"/>
<path d="M103.17 109.12C103.41 108.88 105.41 108.13 105.56 108.35C105.13 107.73 104.83 107.07 104.29 106.53C103.21 105.48 101.77 104.58 100.45 103.87C97.01 102.03 93.48 104.77 90.87 106.83C89.1 108.22 87.15 108.78 84.92 108.45C84.04 108.32 83.31 107.93 82.73 107.27C82.3 106.79 82.21 105.96 82.5 105.63C82.83 105.25 83.55 105.15 84.15 105.43C84.29 105.5 84.4 105.64 84.76 105.93C84.18 106.2 83.79 106.37 83.41 106.55C83.65 107.44 84 107.77 84.8 107.85C85.48 107.92 85.93 107.55 86.25 107.01C86.8 106.09 86.48 104.93 85.59 104.34C84.3 103.51 82.85 103.38 81.56 104.28C80.34 105.13 79.75 106.71 80.52 108.04C81.38 109.53 83.65 110.11 85.26 110.13C87.05 110.15 88.66 110.6 90.16 111.64C92.82 113.49 96.62 114.69 99.7 113.06C100.56 112.6 101.41 111.86 102.01 111.09C102.48 110.49 102.66 109.65 103.2 109.1L103.17 109.12ZM85.52 105.63C85.6866 106.283 85.4633 106.743 84.85 107.01C85.08 106.53 85.31 106.06 85.52 105.63ZM82.4 108.56C81.1 108.08 80.99 107.91 81.05 106.76C81.46 107.31 81.88 107.87 82.4 108.56ZM89.53 110.11C91.03 109.96 92.4 109.82 93.61 109.7C94.37 110.39 94.98 111.1 95.74 111.58C96.47 112.04 97.35 112.26 98.27 112.62C95.71 113.76 92.89 112.62 89.53 110.11ZM95.94 110.71C95.5 110.23 95.2 109.89 94.79 109.44C95.29 109.29 95.62 109.18 96.03 109.05C96 109.62 95.98 110.06 95.94 110.7V110.71ZM102.17 106.84C101.73 106.87 101.49 106.92 101.25 106.9C99.64 106.75 98.17 107.13 96.71 107.81C95.16 108.54 93.48 108.81 91.77 108.82C91.15 108.82 90.53 108.74 89.69 108.68C91.22 107.59 92.56 106.7 93.82 105.71C95.63 104.3 97.61 104.37 99.61 105.02C100.54 105.32 101.36 105.95 102.17 106.85V106.84Z" fill="black"/>
<path d="M130.17 138.63C129.08 138.15 128.24 139.44 127.26 139.66C126.02 139.94 124.71 138.97 123.76 138.31C122.77 137.63 121.81 136.82 120.65 136.45C119.28 136.02 118.18 136.87 117.04 137.51C116.25 137.96 115.57 138.1 114.87 138.07C114.17 138.1 113.49 137.96 112.7 137.51C111.57 136.87 110.45 136.03 109.09 136.45C107.92 136.81 106.97 137.62 105.98 138.31C105.02 138.97 103.72 139.94 102.47 139.66C101.49 139.44 100.65 138.15 99.56 138.63C98.9 138.92 98.78 139.82 99.16 140.39C99.79 141.33 101.56 140.73 102.48 141.27C103.52 141.88 104.21 142.75 104.67 143.83C105.1 144.83 105.42 145.99 106.27 146.7C108.32 148.43 111.17 147.46 113.49 147.03C116.72 146.42 120.63 149.11 123.47 146.7C124.31 145.99 124.64 144.83 125.07 143.83C125.53 142.75 126.22 141.87 127.26 141.27C128.18 140.73 129.95 141.32 130.58 140.39C130.96 139.82 130.84 138.92 130.18 138.63H130.17ZM106.6 139.38C107.11 138.97 107.62 138.53 108.17 138.17C109.08 137.56 110.18 137.27 111.23 137.65C112.12 137.98 112.68 138.79 113.55 139.14C114.01 139.32 114.44 139.35 114.87 139.28C115.29 139.35 115.73 139.33 116.18 139.14C117.05 138.8 117.61 137.98 118.5 137.65C119.56 137.26 120.65 137.56 121.56 138.17C122.11 138.53 122.61 138.97 123.13 139.38C123.36 139.57 124.45 140.58 124.75 140.5C123.09 140.93 121.51 141.33 119.78 141.38C118.13 141.43 116.5 141.25 114.87 141.13C113.23 141.26 111.6 141.43 109.96 141.38C108.23 141.33 106.66 140.94 104.99 140.5C105.29 140.58 106.38 139.57 106.61 139.38H106.6ZM123.9 144.12C123.61 144.89 123.31 145.62 122.71 146.2C122.28 146.61 121.73 146.77 121.16 146.83C120.21 146.93 119.19 146.44 118.27 146.26C117.05 146.03 115.82 146.26 114.59 146.26C113.55 146.26 112.49 146.07 111.46 146.26C110.54 146.44 109.51 146.93 108.57 146.83C108.01 146.77 107.45 146.61 107.02 146.2C106.42 145.63 106.11 144.89 105.83 144.12C105.5 143.23 105.27 142.28 104.52 141.53C104.55 141.51 104.61 141.46 104.66 141.47C105.69 141.66 106.71 141.84 107.74 142.03C109.53 142.36 111.33 142.66 113.09 143.05C114.43 143.35 115.3 143.34 116.62 143.05C118.39 142.66 120.19 142.35 121.98 142.03C123 141.85 124.03 141.66 125.06 141.47C125.11 141.47 125.16 141.52 125.2 141.53C124.45 142.28 124.22 143.23 123.9 144.12Z" fill="black"/>
<path d="M79.05 96.58C79.27 96.61 79.39 97.4 79.83 97.53C80.75 97.81 81.67 96.71 81.4 95.87C81.3 95.57 81.07 95.31 80.92 95.02C80.24 93.69 78.32 93.96 77.44 94.88C76.55 95.81 76.52 97.27 77.05 98.39C78.04 100.49 80.28 101.1 82.39 100.23C84.27 99.46 85.96 97.75 87.44 96.53C89.07 95.19 91.55 94.19 93.67 94.22C97.32 94.28 101.03 96.78 103.76 99C107.98 102.43 112.25 108.13 111.53 113.88C111.24 116.18 110.56 118.5 109.4 120.52C108.61 121.91 106.31 124.31 106.84 126.07C107.28 127.55 110.47 127.58 111.69 128.1C112.84 128.59 113.77 129.13 114.72 129.18V128.44C114.72 128.44 114.81 128.42 114.86 128.41C114.28 128.32 113.76 128.07 113.3 127.47C112.38 126.26 112.44 124.88 112.63 123.44C113.31 118.41 113.6 113.55 112.1 108.67C111.19 105.72 109.31 102.68 107.61 100.1C106.34 98.19 104.54 96.35 102.87 94.79C100.13 92.22 96.63 90.25 92.74 90.71C89.2 91.13 85.85 93.61 83.6 96.28C82.87 97.15 82.14 98.04 81.12 98.58C80.15 99.1 78.17 99.32 78.12 97.67C78.11 97.35 78.65 96.5 79.04 96.56L79.05 96.58ZM112.28 114.36C112.28 114.36 112.33 114.36 112.35 114.36C112.38 114.73 112.43 115.1 112.44 115.48C112.47 116.35 112.56 117.23 112.5 118.1C112.38 119.92 112.21 121.8 111.67 123.56C111.26 124.91 110.78 127.19 108.93 126.27C107.36 125.49 108.51 123.73 109.11 122.69C109.93 121.28 110.9 119.92 111.41 118.36C111.84 117.05 112.04 115.71 112.27 114.36H112.28ZM82.33 99.14C83.03 98.66 83.5 97.98 83.98 97.29C84.63 96.35 85.31 95.4 86.12 94.59C88.94 91.8 94.41 90.44 98.03 92.33C99.53 93.11 100.72 94.36 101.97 95.48C102.32 95.79 102.68 96.09 103.03 96.41C103.17 96.54 103.29 96.69 103.41 96.82C103.39 96.85 103.36 96.87 103.34 96.9C103.05 96.7 102.75 96.51 102.46 96.31C101.56 95.69 100.7 95.01 99.73 94.48C96.48 92.69 92.54 92.52 89.23 94.24C87.62 95.08 86.36 96 85.09 97.29C84.32 98.07 83.71 98.7 82.72 99.19C82.48 99.31 82.24 99.42 82 99.53C81.98 99.5 81.96 99.47 81.94 99.45C82.07 99.35 82.19 99.24 82.33 99.14ZM77.61 96.43C77.72 96.22 77.71 95.96 77.82 95.74C77.93 95.53 78.07 95.36 78.26 95.23C78.62 94.98 79.16 94.86 79.6 94.96C79.99 95.05 80.54 95.51 80.74 95.98C80.9 96.34 80.68 97.17 80.13 96.95C79.88 96.85 80.01 96.52 79.88 96.27C79.78 96.07 79.54 95.84 79.32 95.76C78.69 95.53 78.08 96.07 77.61 96.42V96.43Z" fill="black"/>
<path d="M114.98 129.72V129.7C114.98 129.7 114.9 129.71 114.86 129.71C114.9 129.71 114.94 129.72 114.98 129.72Z" fill="black"/>
<path d="M114.75 129.72C114.75 129.72 114.83 129.71 114.87 129.71C114.83 129.71 114.79 129.71 114.75 129.7V129.72Z" fill="black"/>
<path d="M115 129.19C115.95 129.14 116.88 128.61 118.02 128.11C119.25 127.58 122.43 127.55 122.87 126.08C123.4 124.31 121.1 121.91 120.31 120.53C119.16 118.51 118.47 116.19 118.19 113.89C117.48 108.15 121.75 102.45 125.96 99.01C128.69 96.78 132.4 94.28 136.05 94.23C138.16 94.2 140.64 95.2 142.28 96.54C143.76 97.76 145.45 99.47 147.33 100.24C149.44 101.1 151.68 100.5 152.67 98.4C153.2 97.28 153.17 95.82 152.28 94.89C151.4 93.97 149.48 93.7 148.8 95.03C148.65 95.32 148.42 95.58 148.32 95.88C148.05 96.72 148.96 97.82 149.89 97.54C150.33 97.4 150.45 96.62 150.67 96.59C151.05 96.53 151.59 97.38 151.59 97.7C151.54 99.35 149.57 99.13 148.59 98.61C147.57 98.07 146.84 97.18 146.11 96.31C143.86 93.64 140.5 91.16 136.97 90.74C133.08 90.27 129.59 92.24 126.84 94.82C125.17 96.39 123.37 98.22 122.1 100.13C120.4 102.7 118.52 105.74 117.61 108.7C116.1 113.59 116.4 118.45 117.08 123.47C117.27 124.91 117.33 126.29 116.41 127.5C115.96 128.1 115.43 128.35 114.85 128.44C114.89 128.44 114.94 128.46 114.98 128.47V129.21L115 129.19ZM150.41 95.76C150.2 95.84 149.96 96.06 149.85 96.27C149.72 96.51 149.85 96.84 149.61 96.95C149.05 97.17 148.84 96.33 149 95.98C149.2 95.51 149.76 95.05 150.15 94.96C150.58 94.86 151.12 94.98 151.48 95.23C151.68 95.37 151.82 95.53 151.92 95.74C152.02 95.96 152.02 96.22 152.12 96.43C151.66 96.07 151.05 95.53 150.41 95.77V95.76ZM126.71 96.41C127.05 96.09 127.41 95.79 127.76 95.48C129.01 94.36 130.2 93.11 131.7 92.33C135.33 90.45 140.8 91.8 143.61 94.59C144.43 95.4 145.1 96.35 145.75 97.29C146.23 97.98 146.7 98.66 147.4 99.14C147.54 99.23 147.66 99.34 147.79 99.45C147.77 99.48 147.75 99.51 147.73 99.53C147.49 99.42 147.25 99.3 147.01 99.19C146.02 98.7 145.41 98.07 144.64 97.29C143.37 96 142.1 95.08 140.5 94.24C137.19 92.52 133.24 92.69 130 94.48C129.04 95.01 128.18 95.69 127.27 96.31C126.98 96.51 126.69 96.71 126.39 96.9C126.37 96.87 126.34 96.85 126.32 96.82C126.45 96.68 126.57 96.53 126.7 96.41H126.71ZM117.29 115.48C117.3 115.11 117.35 114.74 117.38 114.36C117.41 114.36 117.43 114.36 117.46 114.36C117.69 115.72 117.89 117.06 118.32 118.36C118.84 119.92 119.8 121.28 120.62 122.69C121.23 123.73 122.38 125.49 120.81 126.27C118.96 127.18 118.48 124.91 118.07 123.56C117.53 121.81 117.36 119.93 117.24 118.1C117.18 117.23 117.26 116.35 117.3 115.48H117.29Z" fill="black"/>
<path d="M114.75 129.7C114.75 129.7 114.83 129.71 114.87 129.71C114.91 129.71 114.95 129.71 114.99 129.7V129.07C114.99 129.07 114.91 129.05 114.87 129.05C114.83 129.05 114.79 129.07 114.75 129.07V129.7Z" fill="black"/>
<path d="M108.14 68.14C107.77 68.14 107.41 68 107.13 67.75C106.8 67.45 106.62 67.02 106.64 66.58C107.36 48.3 109.08 29.94 111.77 12.04L113.38 1.28C113.49 0.55 114.12 0 114.86 0C115.6 0 116.23 0.54 116.34 1.28L117.95 12.04C120.63 29.95 122.36 48.3 123.08 66.58C123.1 67.02 122.92 67.45 122.59 67.75C122.26 68.05 121.82 68.19 121.38 68.12C116.99 67.51 112.74 67.51 108.35 68.12C108.28 68.12 108.21 68.13 108.14 68.13V68.14ZM114.86 11.63L114.73 12.48C112.15 29.71 110.46 47.35 109.71 64.94C113.18 64.58 116.54 64.58 120.01 64.94C119.25 47.35 117.57 29.71 114.99 12.48L114.86 11.63Z" fill="black"/>
<path d="M114.87 229.71C114.13 229.71 113.5 229.17 113.39 228.43L111.78 217.67C109.1 199.76 107.37 181.41 106.65 163.13C106.63 162.69 106.81 162.26 107.14 161.96C107.47 161.66 107.91 161.53 108.35 161.59C112.74 162.2 116.99 162.2 121.38 161.59C121.82 161.53 122.26 161.67 122.59 161.96C122.92 162.26 123.1 162.69 123.08 163.13C122.36 181.43 120.63 199.78 117.95 217.67L116.34 228.43C116.23 229.16 115.6 229.71 114.86 229.71H114.87ZM109.71 164.77C110.47 182.36 112.16 200 114.74 217.23L114.87 218.08L115 217.23C117.58 200.02 119.27 182.38 120.02 164.77C116.55 165.13 113.19 165.13 109.72 164.77H109.71Z" fill="black"/>
<path d="M163.08 123.08C162.66 123.08 162.25 122.9 161.97 122.59C161.67 122.26 161.53 121.82 161.6 121.38C161.9 119.17 162.06 116.98 162.06 114.86C162.06 112.74 161.91 110.55 161.6 108.34C161.54 107.9 161.68 107.46 161.97 107.13C162.27 106.8 162.71 106.63 163.14 106.64C181.42 107.36 199.77 109.09 217.68 111.77L228.44 113.38C229.18 113.49 229.72 114.12 229.72 114.86C229.72 115.6 229.18 116.23 228.44 116.34L217.68 117.95C199.77 120.63 181.42 122.36 163.14 123.08C163.12 123.08 163.1 123.08 163.08 123.08ZM164.78 109.7C164.96 111.44 165.05 113.17 165.05 114.85C165.05 116.53 164.96 118.26 164.78 120C182.37 119.24 200.01 117.55 217.24 114.98L218.09 114.85L217.24 114.72C200.01 112.14 182.37 110.45 164.78 109.7Z" fill="black"/>
<path d="M66.65 123.08C66.65 123.08 66.61 123.08 66.59 123.08C48.3 122.36 29.95 120.63 12.04 117.95L1.28 116.34C0.55 116.23 0 115.6 0 114.86C0 114.12 0.54 113.49 1.28 113.38L12.04 111.77C29.95 109.09 48.3 107.36 66.59 106.64C67.04 106.62 67.46 106.8 67.76 107.13C68.06 107.46 68.2 107.9 68.13 108.34C67.83 110.54 67.67 112.73 67.67 114.86C67.67 116.99 67.82 119.18 68.13 121.38C68.19 121.82 68.05 122.26 67.76 122.59C67.47 122.9 67.07 123.08 66.65 123.08ZM11.64 114.86L12.49 114.99C29.72 117.57 47.36 119.26 64.95 120.01C64.77 118.27 64.68 116.55 64.68 114.86C64.68 113.17 64.77 111.45 64.95 109.71C47.36 110.46 29.72 112.15 12.49 114.73L11.64 114.86Z" fill="black"/>
<path d="M84.77 78.09C84.34 78.09 83.91 77.91 83.62 77.56C83.2 77.06 83.13 76.35 83.48 75.79C83.52 75.72 85.32 72.79 85.32 68.06C85.32 62.63 80.69 57.71 75.79 52.49C71.41 47.82 72.16 41.68 72.82 36.26C73.03 34.58 73.22 32.99 73.27 31.5C73.53 23.14 65.91 18.08 65.83 18.03C65.28 17.67 65.03 17 65.2 16.37C65.38 15.74 65.94 15.3 66.59 15.27C77.72 14.88 80.2 26.73 81.66 33.76C82.98 40.11 89.11 47.35 95.9 50.61C105.22 55.07 109.63 66.07 109.63 66.64C109.63 67.39 109.08 68.02 108.34 68.13C100.1 69.27 92.27 72.6 85.71 77.77C85.61 77.85 85.49 77.92 85.37 77.97C85.18 78.05 84.97 78.09 84.77 78.09ZM71.86 19.57C74.14 22.31 76.43 26.39 76.26 31.6C76.21 33.23 76 34.96 75.79 36.63C75.18 41.63 74.54 46.8 77.97 50.44C83.29 56.1 88.32 61.45 88.32 68.07C88.32 69.78 88.12 71.29 87.84 72.58C93.35 69.05 99.51 66.63 105.95 65.47C104.42 62.45 100.68 56.22 94.62 53.32C86.94 49.64 80.26 41.67 78.74 34.38C77.41 27.99 75.82 22.1 71.87 19.57H71.86Z" fill="black"/>
<path d="M144.98 78.1C144.78 78.1 144.58 78.06 144.39 77.98L144.35 77.96C144.23 77.91 144.12 77.84 144.01 77.76C137.45 72.59 129.62 69.26 121.38 68.12C120.64 68.02 120.09 67.38 120.09 66.63C120.09 66.06 124.5 55.07 133.82 50.6C140.62 47.34 146.74 40.1 148.06 33.75C149.53 26.72 152 14.87 163.13 15.26C163.78 15.28 164.35 15.73 164.52 16.36C164.7 16.99 164.44 17.66 163.89 18.02C163.82 18.07 156.2 23.18 156.46 31.5C156.51 33 156.7 34.58 156.91 36.26C157.57 41.68 158.33 47.82 153.94 52.49C149.04 57.71 144.41 62.64 144.41 68.06C144.41 72.27 145.8 75 146.16 75.64C146.37 75.9 146.5 76.23 146.5 76.59C146.5 77.42 145.83 78.09 145 78.09C145 78.09 144.99 78.09 144.98 78.09V78.1ZM123.78 65.47C130.22 66.63 136.38 69.05 141.89 72.58C141.61 71.3 141.41 69.78 141.41 68.07C141.41 61.46 146.44 56.11 151.76 50.44C155.18 46.8 154.55 41.63 153.94 36.63C153.74 34.96 153.52 33.23 153.47 31.6C153.31 26.39 155.59 22.31 157.87 19.57C153.92 22.1 152.33 27.99 151 34.38C149.48 41.67 142.8 49.64 135.12 53.32C129.06 56.22 125.32 62.45 123.79 65.47H123.78Z" fill="black"/>
<path d="M162.62 214.37C151.91 214.37 149.5 202.79 148.05 195.87C146.73 189.52 140.61 182.28 133.81 179.02C124.61 174.61 120.36 163.99 120.19 163.54C120.02 163.11 120.06 162.63 120.29 162.23C120.52 161.83 120.92 161.57 121.38 161.5C129.62 160.36 137.45 157.03 144.01 151.86C144.11 151.78 144.22 151.71 144.34 151.66C144.95 151.4 145.67 151.56 146.1 152.06C146.53 152.56 146.59 153.28 146.24 153.83C146.23 153.85 144.41 156.8 144.41 161.55C144.41 166.98 149.04 171.91 153.94 177.12C158.32 181.79 157.57 187.93 156.91 193.35C156.7 195.03 156.51 196.62 156.46 198.11C156.2 206.43 163.82 211.54 163.9 211.59C164.45 211.95 164.7 212.62 164.52 213.25C164.34 213.88 163.78 214.32 163.13 214.34C162.96 214.34 162.79 214.34 162.63 214.34L162.62 214.37ZM123.78 164.16C125.31 167.18 129.06 173.41 135.11 176.31C142.79 179.99 149.47 187.96 150.99 195.25C152.32 201.63 153.91 207.53 157.86 210.06C155.58 207.32 153.3 203.24 153.46 198.03C153.51 196.4 153.72 194.67 153.93 193C154.54 188 155.18 182.83 151.75 179.19C146.43 173.53 141.4 168.18 141.4 161.56C141.4 159.85 141.6 158.34 141.88 157.05C136.37 160.58 130.21 163 123.77 164.16H123.78Z" fill="black"/>
<path d="M67.1 214.37C66.93 214.37 66.77 214.37 66.6 214.37C65.95 214.35 65.38 213.9 65.21 213.27C65.03 212.64 65.29 211.97 65.84 211.61C65.91 211.56 73.53 206.45 73.27 198.13C73.22 196.63 73.03 195.05 72.82 193.37C72.16 187.95 71.4 181.81 75.79 177.14C80.69 171.92 85.32 166.99 85.32 161.57C85.32 156.75 83.51 153.88 83.49 153.85C83.13 153.29 83.18 152.57 83.61 152.06C84.04 151.56 84.75 151.4 85.36 151.66C85.48 151.71 85.62 151.79 85.72 151.87C92.28 157.04 100.11 160.37 108.35 161.51C109.13 161.62 109.7 162.31 109.64 163.1C109.63 163.27 109.59 163.44 109.52 163.59C109.01 164.85 104.76 174.78 95.91 179.02C89.11 182.28 82.99 189.52 81.67 195.87C80.23 202.79 77.82 214.37 67.11 214.37H67.1ZM87.83 157.05C88.11 158.33 88.31 159.85 88.31 161.56C88.31 168.17 83.29 173.52 77.97 179.19C74.55 182.83 75.18 188 75.79 193C75.99 194.67 76.21 196.4 76.26 198.03C76.42 203.24 74.14 207.32 71.86 210.06C75.81 207.53 77.4 201.64 78.73 195.25C80.25 187.96 86.93 179.99 94.61 176.31C100.68 173.4 104.42 167.19 105.94 164.16C99.5 163 93.34 160.58 87.83 157.05Z" fill="black"/>
<path d="M76.01 87.02C75.59 87.02 75.19 86.85 74.91 86.54C62.5 73.11 50.74 58.91 39.97 44.35L33.5 35.6C33.06 35 33.12 34.17 33.65 33.65C34.18 33.13 35.01 33.06 35.6 33.5L44.35 39.97C58.91 50.74 73.11 62.5 86.55 74.91C86.88 75.21 87.05 75.64 87.03 76.09C87.01 76.53 86.79 76.94 86.44 77.21C84.67 78.55 83.01 79.99 81.5 81.49C80 82.99 78.56 84.65 77.22 86.42C76.95 86.77 76.54 86.99 76.1 87.01C76.08 87.01 76.05 87.01 76.03 87.01L76.01 87.02ZM41.87 41.87L42.38 42.56C52.74 56.57 64.02 70.24 75.92 83.21C77.02 81.85 78.18 80.57 79.37 79.38C80.56 78.19 81.85 77.03 83.21 75.93C70.24 64.03 56.57 52.75 42.56 42.39L41.87 41.88V41.87Z" fill="black"/>
<path d="M195.02 196.51C194.71 196.51 194.4 196.41 194.13 196.22L185.38 189.75C170.81 178.97 156.61 167.22 143.19 154.81C142.86 154.51 142.69 154.08 142.71 153.63C142.73 153.19 142.95 152.78 143.3 152.51C145.08 151.17 146.74 149.72 148.24 148.23C149.74 146.73 151.18 145.06 152.52 143.3C152.79 142.95 153.2 142.73 153.64 142.71C154.09 142.68 154.51 142.86 154.82 143.19C167.23 156.62 178.99 170.82 189.76 185.38L196.23 194.13C196.67 194.73 196.61 195.56 196.08 196.08C195.79 196.37 195.41 196.52 195.02 196.52V196.51ZM146.52 153.79C159.48 165.69 173.15 176.96 187.17 187.33L187.87 187.84L187.36 187.14C177 173.13 165.72 159.46 153.82 146.49C152.72 147.85 151.56 149.13 150.37 150.33C149.18 151.52 147.89 152.68 146.53 153.78L146.52 153.79Z" fill="black"/>
<path d="M153.71 87.01C153.71 87.01 153.66 87.01 153.64 87.01C153.2 86.99 152.79 86.77 152.52 86.42C151.18 84.65 149.74 82.99 148.24 81.49C146.74 79.99 145.08 78.55 143.31 77.2C142.96 76.93 142.74 76.52 142.72 76.08C142.7 75.64 142.87 75.21 143.2 74.91C156.64 62.49 170.84 50.74 185.39 39.97L194.14 33.5C194.74 33.06 195.57 33.12 196.09 33.65C196.62 34.17 196.68 35.01 196.24 35.6L189.77 44.35C179.01 58.9 167.25 73.1 154.83 86.54C154.55 86.85 154.15 87.02 153.73 87.02L153.71 87.01ZM146.51 75.91C147.87 77.01 149.15 78.17 150.35 79.36C151.54 80.55 152.7 81.84 153.8 83.2C165.71 70.22 176.99 56.55 187.34 42.55L187.85 41.86L187.16 42.37C173.16 52.73 159.49 64.01 146.51 75.91Z" fill="black"/>
<path d="M34.71 196.51C34.32 196.51 33.94 196.36 33.65 196.07C33.12 195.55 33.06 194.71 33.5 194.12L39.97 185.38C50.73 170.83 62.49 156.63 74.91 143.18C75.21 142.85 75.65 142.68 76.08 142.7C76.52 142.72 76.93 142.94 77.2 143.29C78.54 145.06 79.98 146.72 81.49 148.22C82.99 149.72 84.65 151.16 86.42 152.5C86.77 152.77 86.99 153.18 87.01 153.62C87.03 154.06 86.86 154.49 86.53 154.79C73.09 167.21 58.89 178.97 44.33 189.73L35.58 196.2C35.31 196.4 35 196.49 34.69 196.49L34.71 196.51ZM75.92 146.51C64.01 159.49 52.73 173.16 42.38 187.16L41.87 187.85L42.56 187.34C56.57 176.98 70.23 165.7 83.21 153.8C81.85 152.7 80.57 151.54 79.38 150.35C78.19 149.16 77.03 147.87 75.93 146.51H75.92Z" fill="black"/>
<path d="M163.04 109.6C162.29 109.6 161.66 109.05 161.55 108.31C160.41 100.07 157.08 92.24 151.91 85.68C151.83 85.58 151.76 85.47 151.71 85.34C151.45 84.73 151.61 84.01 152.11 83.58C152.61 83.15 153.33 83.09 153.88 83.44C153.9 83.45 156.85 85.27 161.6 85.27C167.02 85.27 171.95 80.64 177.17 75.74C179.7 73.37 182.86 72.26 187.13 72.26C189.23 72.26 191.35 72.52 193.4 72.77C195.08 72.98 196.67 73.17 198.16 73.22C206.51 73.51 211.59 65.86 211.64 65.79C212 65.24 212.67 64.99 213.3 65.17C213.93 65.35 214.37 65.91 214.39 66.56C214.76 77.7 202.96 80.16 195.9 81.63C189.55 82.95 182.31 89.08 179.05 95.87C174.59 105.19 163.59 109.6 163.03 109.6H163.04ZM157.1 87.79C160.63 93.3 163.05 99.46 164.21 105.9C167.23 104.37 173.46 100.63 176.36 94.57C180.04 86.89 188.01 80.21 195.3 78.69C201.68 77.36 207.57 75.77 210.11 71.82C207.37 74.1 203.3 76.38 198.08 76.22C196.45 76.17 194.72 75.96 193.05 75.75C191.09 75.51 189.06 75.26 187.15 75.26C183.65 75.26 181.21 76.08 179.25 77.93C173.58 83.25 168.23 88.28 161.62 88.28C159.91 88.28 158.4 88.08 157.11 87.8L157.1 87.79Z" fill="black"/>
<path d="M212.9 164.53C212.4 164.53 211.93 164.28 211.65 163.85C211.6 163.77 206.5 156.15 198.17 156.41C196.67 156.46 195.09 156.65 193.41 156.86C191.36 157.11 189.24 157.37 187.14 157.37C182.87 157.37 179.71 156.26 177.18 153.89C171.96 148.99 167.03 144.36 161.61 144.36C156.85 144.36 153.91 146.18 153.88 146.2C153.32 146.55 152.59 146.5 152.09 146.07C151.59 145.64 151.43 144.93 151.7 144.33C151.75 144.22 151.83 144.07 151.91 143.98C157.08 137.42 160.41 129.59 161.55 121.35C161.65 120.61 162.29 120.06 163.04 120.06C163.61 120.06 174.6 124.47 179.06 133.79C182.32 140.59 189.56 146.71 195.91 148.03C202.97 149.5 214.78 151.96 214.4 163.1C214.38 163.75 213.93 164.32 213.3 164.49C213.17 164.53 213.03 164.55 212.9 164.55V164.53ZM198.59 153.41C203.55 153.41 207.45 155.61 210.1 157.82C207.57 153.87 201.68 152.28 195.3 150.95C188.01 149.43 180.04 142.75 176.36 135.07C173.46 129.01 167.23 125.27 164.21 123.74C163.05 130.18 160.63 136.34 157.1 141.85C158.38 141.57 159.9 141.37 161.61 141.37C168.23 141.37 173.57 146.4 179.24 151.72C181.2 153.56 183.64 154.39 187.14 154.39C189.06 154.39 191.09 154.14 193.05 153.9C194.72 153.7 196.45 153.48 198.08 153.43C198.25 153.43 198.42 153.43 198.59 153.43V153.41Z" fill="black"/>
<path d="M16.82 164.53C16.69 164.53 16.55 164.51 16.41 164.47C15.78 164.29 15.34 163.73 15.32 163.08C14.94 151.94 26.75 149.48 33.81 148.01C40.16 146.69 47.4 140.56 50.66 133.77C55.07 124.57 65.69 120.32 66.14 120.15C66.57 119.98 67.05 120.02 67.45 120.25C67.85 120.48 68.11 120.88 68.18 121.34C69.32 129.56 72.63 137.36 77.77 143.91C78.02 144.18 78.17 144.54 78.17 144.93C78.17 145.76 77.5 146.43 76.67 146.43C76.57 146.43 76.47 146.42 76.37 146.4C76.18 146.37 76 146.3 75.84 146.19C75.82 146.18 72.87 144.36 68.12 144.36C62.69 144.36 57.76 148.99 52.55 153.89C50.02 156.26 46.86 157.37 42.59 157.37C40.49 157.37 38.37 157.11 36.32 156.86C34.64 156.65 33.05 156.46 31.56 156.41C23.22 156.12 18.13 163.77 18.08 163.85C17.8 164.28 17.32 164.53 16.83 164.53H16.82ZM65.51 123.73C62.49 125.26 56.26 129.01 53.36 135.06C49.68 142.74 41.71 149.42 34.42 150.94C28.04 152.27 22.15 153.86 19.62 157.81C22.36 155.53 26.42 153.25 31.64 153.41C33.27 153.46 35 153.67 36.68 153.88C38.64 154.12 40.67 154.37 42.59 154.37C46.09 154.37 48.53 153.55 50.49 151.7C56.15 146.38 61.5 141.35 68.12 141.35C69.83 141.35 71.34 141.55 72.63 141.83C69.1 136.32 66.68 130.16 65.52 123.72L65.51 123.73Z" fill="black"/>
<path d="M66.68 109.59C66.49 109.59 66.31 109.56 66.13 109.49C65.68 109.31 55.06 105.07 50.65 95.87C47.39 89.07 40.15 82.95 33.8 81.63C26.74 80.16 14.93 77.7 15.31 66.56C15.33 65.91 15.78 65.34 16.41 65.17C17.04 65 17.71 65.25 18.07 65.8C18.12 65.87 23.22 73.48 31.54 73.23C33.04 73.18 34.62 72.99 36.3 72.78C38.35 72.53 40.47 72.27 42.57 72.27C46.84 72.27 50 73.38 52.53 75.75C57.75 80.65 62.68 85.28 68.1 85.28C72.86 85.28 75.8 83.46 75.83 83.44C76.39 83.09 77.12 83.14 77.62 83.57C78.12 84 78.28 84.71 78.01 85.31C77.96 85.42 77.88 85.57 77.8 85.66C72.63 92.22 69.3 100.05 68.16 108.29C68.1 108.74 67.83 109.15 67.43 109.38C67.2 109.52 66.93 109.59 66.67 109.59H66.68ZM19.62 71.82C22.15 75.77 28.04 77.36 34.42 78.69C41.72 80.21 49.68 86.89 53.36 94.57C56.27 100.64 62.49 104.38 65.51 105.9C66.67 99.46 69.09 93.3 72.62 87.79C71.34 88.07 69.82 88.27 68.11 88.27C61.5 88.27 56.15 83.25 50.48 77.93C48.52 76.09 46.08 75.26 42.57 75.26C40.65 75.26 38.63 75.51 36.67 75.75C35 75.95 33.27 76.17 31.64 76.22C26.43 76.38 22.36 74.1 19.62 71.82Z" fill="black"/>
<path d="M91.04 89.41C92.86 88.84 94.13 87.19 95.98 86.64C97.3 86.25 98.48 87.12 99.77 87.17C101.17 87.23 102.57 86.51 103.9 86.21C104.4 86.09 105.08 85.73 105.59 86C106.04 86.24 105.96 86.85 106.37 87.11C106.89 87.44 107.28 86.85 107.75 86.68C108.42 86.44 109.17 86.93 109.86 86.89C110.56 86.85 111.13 86.48 111.61 85.98C111.78 85.81 111.86 85.55 111.97 85.33C112.77 83.74 110.82 79 113.67 78.91C114.15 78.89 114.65 79.06 114.99 78.59C115.3 78.16 115.11 77.55 114.67 77.29C113.81 76.78 112.73 78.18 112.34 78.8C111.75 79.77 111.58 80.92 111.55 82.04C111.53 83.27 111.96 85.5 110.54 86.17C109.76 86.54 107.92 86.19 107.35 85.49C106.91 84.94 107.35 83.8 107.67 83.26C107.98 82.74 108.59 82.63 109.14 82.87C110.34 83.4 109.22 85.01 108.48 84.35C108.01 83.91 108.84 84.02 109.04 84.09C109.21 83.74 108.89 83.39 108.51 83.49C108.22 83.57 107.96 83.95 108.03 84.25C108.35 85.7 111.17 84.36 109.95 82.85C109.56 82.37 108.58 81.93 108.02 82.36C108 82.37 107.96 82.36 107.92 82.36C107.94 82.36 108.38 80.82 108.4 80.72C108.56 80.1 108.56 79.46 108.48 78.82C108.44 78.5 108.38 78.18 108.3 77.87C108.21 77.51 107.75 76.83 107.33 76.83C106.54 76.83 107.17 77.95 106.99 78.43C106.72 79.18 106.29 79.75 106.11 80.55C106.08 80.69 105.7 82.1 105.81 82.16C104.74 81.78 104.49 80.38 104.64 79.41C104.78 78.52 105.16 77.61 105.42 76.75C105.84 75.31 106.6 73.31 105.07 72.25C103.49 71.15 101.3 72.19 101.16 74.14C101.09 75.12 101.51 76.01 102.48 76.31C103.8 76.73 105.04 74.94 103.9 73.98C103.47 73.62 102.86 74.06 102.69 74.48C102.64 74.6 102.59 75.76 102.75 75.75C102.08 75.8 101.54 75.04 101.53 74.47C101.53 73.92 101.78 73.37 102.15 72.97C102.94 72.11 104.28 71.83 104.92 73.01C106.15 75.28 104.22 77.84 104.01 80.13C103.92 80.03 103.87 79.99 103.84 79.94C103.54 79.52 103.14 79.2 102.67 79.03C101.09 78.43 99.51 78 97.96 78.97C97.09 79.52 96.46 80.83 96.86 81.83C97.05 82.32 97.71 82.77 98.19 82.89C99.08 83.12 100.41 82.61 99.89 81.5C99.63 80.94 98.4 80.04 97.96 80.96C97.85 81.18 97.82 81.62 98.14 81.67C98.46 81.72 99.27 80.87 99.13 81.75C99.06 82.2 98.61 82.59 98.16 82.37C96.99 81.81 97.15 80.55 97.9 79.65C98.58 78.84 99.93 78.88 100.88 79.05C101.78 79.21 102.67 79.59 103.33 80.23C103.67 80.56 103.99 80.95 104.22 81.37C104.37 81.64 104.53 82.21 104.87 82.3C104.3 82.15 103.78 81.77 103.16 81.84C101.66 82.02 101.58 84.42 102.81 85.01C103.53 85.36 104.64 84.99 104.72 84.01C104.75 83.62 104.59 83.37 104.22 83.2C103.93 83.07 103.5 83.01 103.36 83.38C103.22 83.77 104.05 83.54 104.08 83.98C104.09 84.23 103.83 84.51 103.59 84.56C103.32 84.62 103.02 84.62 102.81 84.39C102.49 84.03 102.43 83.58 102.57 83.13C102.76 82.55 103.16 82.28 103.77 82.35C104.76 82.47 105.88 82.86 106.24 83.92C106.35 84.23 106.56 84.5 106.63 84.82C106.76 85.39 106.27 85.06 105.93 85.01C105.36 84.92 104.69 85.05 104.15 85.25C103.68 85.42 103.2 85.49 102.72 85.58C101.8 85.76 100.86 85.78 99.94 85.89C99.18 85.98 97.42 86.1 97.32 84.95C97.3 84.71 97.64 84.17 97.93 84.43C98.08 84.57 97.83 84.82 97.86 84.99C97.89 85.12 98.14 85.44 98.28 85.49C99.45 85.93 99.95 83.04 98.14 83.26C97.24 83.37 96.37 84.57 96.66 85.46C96.65 85.42 95.47 85.35 95.34 85.35C94.86 85.35 94.38 85.43 93.92 85.59C93.01 85.9 92.23 86.53 91.76 87.37C91.22 88.32 90.49 89.54 89.18 89C88.36 88.66 88.43 87.76 89.25 87.52C89.29 87.64 89.27 87.77 89.31 87.89C89.35 88 89.4 88.12 89.47 88.21C89.64 88.42 89.88 88.55 90.15 88.58C90.35 88.6 90.47 88.49 90.52 88.28C90.7 87.54 90.55 86.38 89.6 86.32C88.75 86.27 87.78 87.1 87.79 87.97C87.82 89.67 89.76 89.79 91 89.4L91.04 89.41ZM114.21 77.67C114.42 77.67 114.59 77.84 114.59 78.05C114.59 78.19 114.51 78.32 114.39 78.38C114.33 78.42 114.26 78.44 114.17 78.44C114.08 78.44 114.03 78.41 114 78.35C113.9 78.28 113.84 78.17 113.84 78.04C113.84 77.83 114.01 77.66 114.22 77.66L114.21 77.67ZM103.03 75.06C103.04 74.93 103.03 74.78 103.08 74.67C103.14 74.54 103.25 74.4 103.38 74.35C103.53 74.28 103.64 74.41 103.73 74.55C103.96 74.9 103.61 75.54 103.36 75.66C103.32 75.68 103.22 75.64 103.2 75.6C103.12 75.43 103.07 75.25 103 75.08C103.01 75.08 103.02 75.08 103.04 75.08L103.03 75.06ZM106.63 82.71C106.5 81.18 106.9 79.92 107.6 78.56C107.73 78.32 107.72 78.27 107.84 78.52C108.4 79.74 107.52 81.24 106.89 82.23C106.8 82.37 106.77 82.55 106.71 82.71C106.68 82.71 106.65 82.71 106.62 82.71H106.63ZM98.54 84.37C98.75 84.37 98.92 84.54 98.92 84.75C98.92 84.96 98.75 85.13 98.54 85.13C98.33 85.13 98.16 84.96 98.16 84.75C98.16 84.54 98.33 84.37 98.54 84.37ZM92.92 86.57C93.35 86.1 93.82 85.84 94.37 85.73C94.69 85.66 95.02 85.64 95.35 85.67C95.43 85.67 95.94 85.81 95.99 85.74C95.8 86.1 95.28 86.04 94.94 86.16C94.58 86.29 94.28 86.52 94 86.76C93.45 87.23 92.91 87.79 92.15 87.82C92.18 87.82 92.83 86.67 92.93 86.56L92.92 86.57ZM89.02 86.92C89.02 86.92 89.05 86.92 89.06 86.92C89.07 86.92 89.09 86.92 89.1 86.92C89.1 86.92 89.1 86.92 89.11 86.92C89.12 86.92 89.14 86.92 89.15 86.92C89.15 86.92 89.15 86.92 89.16 86.92C89.11 86.92 89.05 86.93 89 86.94C89 86.94 89 86.94 89.01 86.94L89.02 86.92Z" fill="black"/>
<path d="M115.49 78.58C115.83 79.05 116.33 78.88 116.81 78.9C119.67 79 117.71 83.74 118.51 85.32C118.62 85.54 118.71 85.8 118.87 85.97C119.35 86.47 119.91 86.84 120.62 86.88C121.32 86.92 122.06 86.43 122.74 86.67C123.21 86.84 123.59 87.43 124.12 87.1C124.53 86.84 124.45 86.23 124.9 85.99C125.41 85.72 126.09 86.09 126.59 86.2C127.92 86.51 129.32 87.22 130.72 87.16C132.01 87.11 133.19 86.23 134.51 86.63C136.36 87.18 137.63 88.83 139.45 89.4C140.7 89.79 142.64 89.67 142.67 87.97C142.68 87.1 141.71 86.27 140.86 86.32C139.91 86.38 139.77 87.54 139.94 88.28C139.99 88.49 140.11 88.6 140.31 88.58C140.58 88.55 140.81 88.42 140.98 88.21C141.05 88.12 141.11 88 141.14 87.89C141.18 87.77 141.17 87.64 141.2 87.52C142.02 87.76 142.09 88.66 141.27 89C139.97 89.53 139.23 88.31 138.7 87.37C138.23 86.53 137.45 85.9 136.54 85.59C136.09 85.43 135.6 85.35 135.12 85.35C134.99 85.35 133.81 85.42 133.8 85.46C134.1 84.58 133.23 83.38 132.33 83.26C130.52 83.04 131.03 85.93 132.19 85.49C132.32 85.44 132.58 85.12 132.61 84.99C132.64 84.82 132.39 84.57 132.55 84.43C132.83 84.18 133.18 84.71 133.16 84.95C133.06 86.1 131.3 85.98 130.54 85.89C129.61 85.78 128.67 85.76 127.76 85.58C127.27 85.48 126.8 85.42 126.33 85.25C125.8 85.05 125.12 84.92 124.55 85.01C124.22 85.06 123.73 85.4 123.85 84.82C123.92 84.5 124.14 84.23 124.25 83.92C124.61 82.86 125.72 82.47 126.72 82.35C127.33 82.28 127.74 82.55 127.92 83.13C128.06 83.58 128.01 84.03 127.68 84.39C127.48 84.62 127.17 84.62 126.9 84.56C126.66 84.51 126.39 84.23 126.41 83.98C126.44 83.54 127.27 83.77 127.13 83.38C127 83.01 126.56 83.07 126.28 83.2C125.92 83.37 125.76 83.62 125.78 84.01C125.86 84.99 126.97 85.36 127.69 85.01C128.92 84.42 128.84 82.02 127.34 81.84C126.72 81.76 126.2 82.15 125.63 82.3C125.98 82.21 126.14 81.65 126.28 81.37C126.51 80.95 126.82 80.57 127.17 80.23C127.83 79.59 128.72 79.21 129.62 79.05C130.57 78.89 131.92 78.84 132.6 79.65C133.35 80.55 133.51 81.81 132.34 82.37C131.89 82.59 131.44 82.2 131.37 81.75C131.24 80.88 132.05 81.72 132.37 81.67C132.69 81.62 132.65 81.18 132.55 80.96C132.11 80.05 130.88 80.95 130.62 81.5C130.11 82.61 131.43 83.12 132.33 82.89C132.81 82.76 133.47 82.31 133.66 81.83C134.06 80.82 133.43 79.52 132.56 78.97C131.01 78 129.43 78.43 127.85 79.03C127.38 79.21 126.98 79.53 126.67 79.94C126.63 79.99 126.58 80.03 126.5 80.13C126.28 77.84 124.36 75.28 125.59 73.01C126.23 71.83 127.57 72.11 128.36 72.97C128.73 73.37 128.98 73.91 128.98 74.47C128.98 75.04 128.43 75.8 127.76 75.75C127.91 75.76 127.87 74.6 127.82 74.48C127.65 74.07 127.05 73.62 126.61 73.98C125.46 74.94 126.7 76.72 128.03 76.31C129 76.01 129.43 75.12 129.35 74.14C129.21 72.19 127.02 71.15 125.44 72.25C123.92 73.31 124.67 75.31 125.09 76.75C125.34 77.61 125.73 78.52 125.86 79.41C126.01 80.38 125.76 81.78 124.69 82.16C124.8 82.1 124.42 80.69 124.39 80.55C124.21 79.75 123.78 79.19 123.51 78.43C123.34 77.95 123.97 76.83 123.17 76.83C122.75 76.83 122.29 77.51 122.19 77.87C122.11 78.18 122.05 78.5 122.01 78.82C121.94 79.46 121.94 80.09 122.09 80.72C122.12 80.82 122.55 82.36 122.57 82.36C122.52 82.36 122.48 82.38 122.47 82.36C121.9 81.93 120.93 82.38 120.54 82.85C119.31 84.35 122.13 85.7 122.46 84.25C122.53 83.95 122.27 83.57 121.98 83.49C121.6 83.39 121.28 83.74 121.45 84.09C121.65 84.03 122.48 83.91 122.01 84.35C121.28 85.01 120.14 83.4 121.35 82.87C121.9 82.63 122.52 82.74 122.82 83.26C123.13 83.8 123.58 84.94 123.14 85.49C122.57 86.2 120.74 86.54 119.95 86.17C118.53 85.5 118.96 83.27 118.94 82.04C118.92 80.92 118.75 79.77 118.16 78.8C117.78 78.17 116.7 76.78 115.83 77.29C115.39 77.55 115.2 78.16 115.51 78.59L115.49 78.58ZM141.32 86.91C141.32 86.91 141.32 86.91 141.33 86.91C141.34 86.91 141.35 86.91 141.37 86.91C141.37 86.91 141.37 86.91 141.38 86.91C141.39 86.91 141.41 86.91 141.42 86.91H141.46C141.46 86.91 141.46 86.91 141.47 86.91C141.42 86.91 141.36 86.9 141.31 86.89L141.32 86.91ZM135.15 85.67C135.48 85.64 135.81 85.66 136.13 85.73C136.67 85.84 137.15 86.1 137.57 86.57C137.67 86.68 138.32 87.83 138.35 87.83C137.59 87.79 137.05 87.23 136.5 86.77C136.21 86.53 135.91 86.29 135.56 86.17C135.22 86.05 134.7 86.11 134.51 85.75C134.55 85.82 135.07 85.69 135.15 85.68V85.67ZM131.96 85.13C131.75 85.13 131.58 84.96 131.58 84.75C131.58 84.54 131.75 84.37 131.96 84.37C132.17 84.37 132.34 84.54 132.34 84.75C132.34 84.96 132.17 85.13 131.96 85.13ZM127.3 75.59C127.3 75.59 127.18 75.67 127.14 75.65C126.89 75.52 126.53 74.88 126.77 74.54C126.86 74.41 126.97 74.27 127.12 74.34C127.24 74.4 127.35 74.53 127.42 74.66C127.48 74.77 127.46 74.92 127.47 75.05C127.48 75.05 127.5 75.05 127.51 75.05C127.45 75.23 127.39 75.41 127.31 75.57L127.3 75.59ZM122.65 78.52C122.77 78.26 122.76 78.31 122.89 78.56C123.59 79.92 123.99 81.18 123.86 82.71C123.83 82.71 123.8 82.71 123.77 82.71C123.71 82.55 123.69 82.37 123.6 82.23C122.97 81.24 122.09 79.74 122.65 78.52ZM116.28 77.67C116.49 77.67 116.66 77.84 116.66 78.05C116.66 78.18 116.59 78.29 116.5 78.36C116.47 78.41 116.42 78.45 116.33 78.45C116.24 78.45 116.17 78.43 116.11 78.39C115.99 78.33 115.91 78.2 115.91 78.06C115.91 77.85 116.08 77.68 116.29 77.68L116.28 77.67Z" fill="black"/>
<path d="M148.97 121.59C141.74 123.85 139 135.13 147.56 137.5C154.71 139.47 161.7 127.86 153.59 126.15C151.91 125.8 149.17 126.79 149.59 128.96C149.97 130.97 153.48 131.46 152.96 129.01C153.07 129.51 149.23 128.33 151.88 127.28C153.87 126.49 155.37 128.88 155.48 130.55C155.89 137.09 145.1 137.94 143.47 131.93C142.75 129.27 143.29 126.88 145.42 124.98C147.42 123.18 149.68 121.95 152.45 122.34C157.02 122.99 159.8 125.52 161.02 128.56C161.05 127.47 161.1 126.37 161.15 125.28C158.44 121.92 153.94 120.03 148.97 121.58V121.59Z" fill="black"/>
<path d="M81.53 121.59C88.76 123.85 91.5 135.13 82.94 137.5C75.79 139.47 68.8 127.86 76.91 126.15C78.59 125.8 81.33 126.79 80.91 128.96C80.53 130.97 77.02 131.46 77.54 129.01C77.43 129.51 81.27 128.33 78.62 127.28C76.63 126.49 75.13 128.88 75.02 130.55C74.61 137.09 85.4 137.94 87.03 131.93C87.75 129.27 87.21 126.88 85.08 124.98C83.08 123.18 80.82 121.95 78.05 122.34C73.48 122.99 70.7 125.52 69.48 128.56C69.45 127.47 69.4 126.37 69.35 125.28C72.06 121.92 76.56 120.03 81.53 121.58V121.59Z" fill="black"/>
<path d="M92.49 70.94C92.49 70.94 92.6 70.53 92.71 69.79C92.77 69.42 92.84 68.98 92.87 68.47C92.91 67.96 92.94 67.38 92.93 66.76C92.93 66.45 92.93 66.12 92.89 65.79C92.87 65.45 92.84 65.11 92.77 64.76C92.72 64.41 92.65 64.05 92.55 63.69C92.47 63.33 92.37 62.97 92.23 62.61C92.12 62.24 91.96 61.89 91.78 61.54C91.63 61.18 91.42 60.84 91.2 60.51C91.01 60.16 90.76 59.85 90.49 59.54L90.1 59.07L89.66 58.66L89.22 58.24L88.74 57.8C88.43 57.51 88.12 57.23 87.81 56.94C87.18 56.4 86.63 55.75 86.09 55.14C85.52 54.55 85.07 53.91 84.64 53.31C84.19 52.72 83.82 52.12 83.49 51.57C83.13 51.03 82.88 50.49 82.65 50.03C82.41 49.57 82.25 49.14 82.1 48.79C81.95 48.45 81.88 48.16 81.81 47.97C81.75 47.78 81.72 47.67 81.72 47.67C81.72 47.67 81.9 48.06 82.27 48.7C82.46 49.02 82.67 49.42 82.97 49.84C83.26 50.27 83.57 50.75 83.96 51.26C84.33 51.77 84.73 52.32 85.22 52.86C85.68 53.41 86.18 53.99 86.74 54.53C87.28 55.09 87.83 55.67 88.47 56.22C88.78 56.5 89.09 56.78 89.41 57.06L89.87 57.48L90.36 57.94L90.84 58.4L91.26 58.92C91.54 59.26 91.81 59.61 92.02 60C92.26 60.37 92.47 60.75 92.62 61.15C92.8 61.54 92.95 61.93 93.06 62.34C93.19 62.74 93.3 63.13 93.35 63.52C93.43 63.91 93.47 64.29 93.49 64.67C93.53 65.04 93.54 65.41 93.53 65.76C93.53 66.11 93.52 66.45 93.49 66.78C93.45 67.43 93.35 68.02 93.24 68.53C93.14 69.04 93.01 69.48 92.9 69.84C92.68 70.56 92.49 70.94 92.49 70.94Z" fill="black"/>
<path d="M98.35 68.14C98.35 68.14 98.38 67.89 98.43 67.44C98.49 67 98.53 66.36 98.57 65.62C98.59 65.25 98.6 64.84 98.6 64.42C98.6 63.99 98.57 63.55 98.54 63.1C98.51 62.88 98.48 62.65 98.45 62.42C98.4 62.2 98.35 61.97 98.3 61.75C98.17 61.31 98 60.89 97.75 60.54C97.62 60.37 97.51 60.18 97.33 60.06L97.09 59.85L96.78 59.62C96.37 59.33 95.99 59.03 95.61 58.74C95.22 58.47 94.87 58.15 94.54 57.85C94.21 57.55 93.9 57.27 93.62 57C93.36 56.71 93.13 56.44 92.93 56.19C92.72 55.96 92.56 55.73 92.45 55.53C92.21 55.14 92.1 54.92 92.1 54.92C92.1 54.92 92.3 55.1 92.61 55.41C92.76 55.57 92.95 55.75 93.21 55.93C93.46 56.12 93.73 56.33 94.01 56.56C94.32 56.77 94.65 57.01 95 57.25C95.34 57.5 95.71 57.76 96.12 58.01C96.52 58.27 96.94 58.53 97.34 58.82L97.64 59.03L97.98 59.31C98.23 59.48 98.38 59.73 98.57 59.96C98.9 60.44 99.09 60.98 99.23 61.5C99.35 62.03 99.4 62.55 99.42 63.04C99.44 64.04 99.3 64.94 99.14 65.7C98.98 66.46 98.76 67.07 98.62 67.49C98.47 67.91 98.35 68.14 98.35 68.14Z" fill="black"/>
<path d="M136.66 70.94C136.66 70.94 136.55 70.53 136.44 69.79C136.38 69.42 136.31 68.98 136.28 68.47C136.24 67.96 136.21 67.38 136.22 66.76C136.22 66.45 136.22 66.12 136.26 65.79C136.28 65.45 136.31 65.11 136.38 64.76C136.43 64.41 136.5 64.05 136.6 63.69C136.68 63.33 136.78 62.97 136.92 62.61C137.03 62.24 137.19 61.89 137.37 61.54C137.52 61.18 137.73 60.84 137.95 60.51C138.14 60.16 138.39 59.85 138.66 59.54L139.05 59.07L139.49 58.66L139.93 58.24L140.41 57.8C140.72 57.51 141.03 57.23 141.34 56.94C141.97 56.4 142.52 55.75 143.06 55.14C143.63 54.55 144.08 53.91 144.51 53.31C144.96 52.72 145.33 52.12 145.66 51.57C146.02 51.03 146.27 50.49 146.5 50.03C146.74 49.57 146.9 49.14 147.05 48.79C147.2 48.45 147.27 48.16 147.34 47.97C147.4 47.78 147.43 47.67 147.43 47.67C147.43 47.67 147.25 48.06 146.88 48.7C146.69 49.02 146.48 49.42 146.18 49.84C145.89 50.27 145.58 50.75 145.19 51.26C144.82 51.77 144.42 52.32 143.93 52.86C143.47 53.41 142.97 53.99 142.41 54.53C141.87 55.09 141.32 55.67 140.68 56.22C140.37 56.5 140.06 56.78 139.74 57.06L139.28 57.48L138.79 57.94L138.31 58.4L137.89 58.92C137.61 59.26 137.34 59.61 137.13 60C136.89 60.37 136.68 60.75 136.53 61.15C136.35 61.54 136.2 61.93 136.09 62.34C135.96 62.74 135.85 63.13 135.8 63.52C135.72 63.91 135.68 64.29 135.66 64.67C135.62 65.04 135.61 65.41 135.62 65.76C135.62 66.11 135.63 66.45 135.66 66.78C135.7 67.43 135.8 68.02 135.91 68.53C136.01 69.04 136.14 69.48 136.25 69.84C136.47 70.56 136.66 70.94 136.66 70.94Z" fill="black"/>
<path d="M130.8 68.14C130.8 68.14 130.77 67.89 130.72 67.44C130.66 67 130.62 66.36 130.58 65.62C130.56 65.25 130.55 64.84 130.55 64.42C130.55 63.99 130.58 63.55 130.61 63.1C130.64 62.88 130.67 62.65 130.7 62.42C130.75 62.2 130.8 61.97 130.85 61.75C130.98 61.31 131.15 60.89 131.4 60.54C131.53 60.37 131.64 60.18 131.82 60.06L132.06 59.85L132.37 59.62C132.78 59.33 133.16 59.03 133.54 58.74C133.93 58.47 134.28 58.15 134.61 57.85C134.94 57.55 135.25 57.27 135.53 57C135.79 56.71 136.02 56.44 136.22 56.19C136.43 55.96 136.59 55.73 136.7 55.53C136.94 55.14 137.05 54.92 137.05 54.92C137.05 54.92 136.85 55.1 136.54 55.41C136.4 55.57 136.2 55.75 135.94 55.93C135.69 56.12 135.42 56.33 135.14 56.56C134.83 56.77 134.5 57.01 134.15 57.25C133.81 57.5 133.44 57.76 133.03 58.01C132.63 58.27 132.21 58.53 131.81 58.82L131.51 59.03L131.17 59.31C130.92 59.48 130.77 59.73 130.58 59.96C130.25 60.44 130.06 60.98 129.92 61.5C129.8 62.03 129.75 62.55 129.73 63.04C129.71 64.04 129.85 64.94 130.01 65.7C130.17 66.46 130.39 67.07 130.53 67.49C130.68 67.91 130.8 68.14 130.8 68.14Z" fill="black"/>
<path d="M92.49 157.68C92.49 157.68 92.6 158.1 92.71 158.83C92.77 159.2 92.84 159.64 92.87 160.15C92.91 160.66 92.94 161.24 92.93 161.86C92.93 162.17 92.93 162.5 92.89 162.83C92.87 163.17 92.84 163.51 92.77 163.86C92.72 164.21 92.65 164.57 92.55 164.92C92.47 165.28 92.37 165.64 92.23 166C92.12 166.37 91.96 166.72 91.78 167.07C91.63 167.43 91.42 167.77 91.2 168.1C91.01 168.45 90.76 168.76 90.49 169.07L90.1 169.54L89.66 169.96L89.22 170.38L88.74 170.82C88.43 171.11 88.12 171.39 87.81 171.68C87.18 172.22 86.63 172.87 86.09 173.48C85.52 174.07 85.07 174.71 84.64 175.31C84.19 175.9 83.82 176.5 83.49 177.05C83.13 177.59 82.88 178.13 82.65 178.59C82.41 179.05 82.25 179.48 82.1 179.83C81.95 180.17 81.88 180.46 81.81 180.65C81.75 180.84 81.72 180.94 81.72 180.94C81.72 180.94 81.9 180.55 82.27 179.91C82.46 179.59 82.67 179.19 82.97 178.77C83.26 178.34 83.57 177.86 83.96 177.35C84.33 176.84 84.73 176.29 85.22 175.75C85.68 175.2 86.18 174.62 86.74 174.08C87.28 173.52 87.83 172.94 88.47 172.39C88.78 172.11 89.09 171.83 89.41 171.55L89.87 171.14L90.36 170.68L90.84 170.22L91.26 169.7C91.54 169.36 91.81 169.01 92.02 168.62C92.26 168.25 92.47 167.87 92.62 167.47C92.8 167.08 92.95 166.69 93.06 166.28C93.19 165.89 93.3 165.49 93.35 165.1C93.43 164.71 93.47 164.33 93.49 163.95C93.53 163.58 93.54 163.21 93.53 162.86C93.53 162.51 93.52 162.17 93.49 161.84C93.45 161.19 93.35 160.6 93.24 160.09C93.14 159.58 93.01 159.14 92.9 158.78C92.68 158.06 92.49 157.68 92.49 157.68Z" fill="black"/>
<path d="M98.35 160.48C98.35 160.48 98.38 160.73 98.43 161.18C98.49 161.62 98.53 162.26 98.57 163C98.59 163.37 98.6 163.78 98.6 164.21C98.6 164.64 98.57 165.08 98.54 165.53C98.51 165.75 98.48 165.98 98.45 166.21C98.4 166.43 98.35 166.66 98.3 166.88C98.17 167.31 98 167.74 97.75 168.09C97.62 168.26 97.51 168.45 97.33 168.57L97.09 168.78L96.78 169.01C96.37 169.3 95.99 169.6 95.61 169.89C95.22 170.16 94.87 170.48 94.54 170.78C94.21 171.08 93.9 171.36 93.62 171.63C93.36 171.92 93.13 172.19 92.93 172.44C92.72 172.67 92.56 172.9 92.45 173.1C92.21 173.49 92.1 173.71 92.1 173.71C92.1 173.71 92.3 173.53 92.61 173.22C92.76 173.06 92.95 172.88 93.21 172.7C93.46 172.51 93.73 172.3 94.01 172.07C94.32 171.86 94.65 171.62 95 171.38C95.34 171.13 95.71 170.87 96.12 170.62C96.52 170.36 96.94 170.1 97.34 169.81L97.64 169.6L97.98 169.32C98.23 169.15 98.38 168.9 98.57 168.67C98.9 168.19 99.09 167.65 99.23 167.13C99.35 166.6 99.4 166.08 99.42 165.59C99.44 164.59 99.3 163.69 99.14 162.93C98.98 162.17 98.76 161.56 98.62 161.14C98.47 160.72 98.35 160.49 98.35 160.49V160.48Z" fill="black"/>
<path d="M136.66 157.68C136.66 157.68 136.55 158.1 136.44 158.83C136.38 159.2 136.31 159.64 136.28 160.15C136.24 160.66 136.21 161.24 136.22 161.86C136.22 162.17 136.22 162.5 136.26 162.83C136.28 163.17 136.31 163.51 136.38 163.86C136.43 164.21 136.5 164.57 136.6 164.92C136.68 165.28 136.78 165.64 136.92 166C137.03 166.37 137.19 166.72 137.37 167.07C137.52 167.43 137.73 167.77 137.95 168.1C138.14 168.45 138.39 168.76 138.66 169.07L139.05 169.54L139.49 169.96L139.93 170.38L140.41 170.82C140.72 171.11 141.03 171.39 141.34 171.68C141.97 172.22 142.52 172.87 143.06 173.48C143.63 174.07 144.08 174.71 144.51 175.31C144.96 175.9 145.33 176.5 145.66 177.05C146.02 177.59 146.27 178.13 146.5 178.59C146.74 179.05 146.9 179.48 147.05 179.83C147.2 180.17 147.27 180.46 147.34 180.65C147.4 180.84 147.43 180.94 147.43 180.94C147.43 180.94 147.25 180.55 146.88 179.91C146.69 179.59 146.48 179.19 146.18 178.77C145.89 178.34 145.58 177.86 145.19 177.35C144.82 176.84 144.42 176.29 143.93 175.75C143.47 175.2 142.97 174.62 142.41 174.08C141.87 173.52 141.32 172.94 140.68 172.39C140.37 172.11 140.06 171.83 139.74 171.55L139.28 171.14L138.79 170.68L138.31 170.22L137.89 169.7C137.61 169.36 137.34 169.01 137.13 168.62C136.89 168.25 136.68 167.87 136.53 167.47C136.35 167.08 136.2 166.69 136.09 166.28C135.96 165.89 135.85 165.49 135.8 165.1C135.72 164.71 135.68 164.33 135.66 163.95C135.62 163.58 135.61 163.21 135.62 162.86C135.62 162.51 135.63 162.17 135.66 161.84C135.7 161.19 135.8 160.6 135.91 160.09C136.01 159.58 136.14 159.14 136.25 158.78C136.47 158.06 136.66 157.68 136.66 157.68Z" fill="black"/>
<path d="M130.8 160.48C130.8 160.48 130.77 160.73 130.72 161.18C130.66 161.62 130.62 162.26 130.58 163C130.56 163.37 130.55 163.78 130.55 164.21C130.55 164.64 130.58 165.08 130.61 165.53C130.64 165.75 130.67 165.98 130.7 166.21C130.75 166.43 130.8 166.66 130.85 166.88C130.98 167.31 131.15 167.74 131.4 168.09C131.53 168.26 131.64 168.45 131.82 168.57L132.06 168.78L132.37 169.01C132.78 169.3 133.16 169.6 133.54 169.89C133.93 170.16 134.28 170.48 134.61 170.78C134.94 171.08 135.25 171.36 135.53 171.63C135.79 171.92 136.02 172.19 136.22 172.44C136.43 172.67 136.59 172.9 136.7 173.1C136.94 173.49 137.05 173.71 137.05 173.71C137.05 173.71 136.85 173.53 136.54 173.22C136.4 173.06 136.2 172.88 135.94 172.7C135.69 172.51 135.42 172.3 135.14 172.07C134.83 171.86 134.5 171.62 134.15 171.38C133.81 171.13 133.44 170.87 133.03 170.62C132.63 170.36 132.21 170.1 131.81 169.81L131.51 169.6L131.17 169.32C130.92 169.15 130.77 168.9 130.58 168.67C130.25 168.19 130.06 167.65 129.92 167.13C129.8 166.6 129.75 166.08 129.73 165.59C129.71 164.59 129.85 163.69 130.01 162.93C130.17 162.17 130.39 161.56 130.53 161.14C130.68 160.72 130.8 160.49 130.8 160.49V160.48Z" fill="black"/>
<path d="M71.21 136.4C71.21 136.4 70.79 136.29 70.06 136.18C69.69 136.12 69.25 136.05 68.74 136.02C68.23 135.98 67.65 135.95 67.03 135.96C66.72 135.96 66.39 135.96 66.06 136C65.72 136.02 65.38 136.05 65.03 136.12C64.68 136.17 64.3199 136.24 63.9699 136.34C63.6099 136.42 63.25 136.52 62.89 136.66C62.52 136.77 62.1699 136.93 61.8199 137.11C61.4599 137.26 61.1199 137.47 60.7899 137.69C60.4399 137.88 60.1299 138.13 59.8199 138.4L59.35 138.79L58.9299 139.23L58.5099 139.67L58.07 140.15C57.78 140.46 57.4999 140.77 57.2099 141.08C56.6699 141.71 56.0199 142.26 55.41 142.8C54.82 143.37 54.1799 143.82 53.5799 144.25C52.9899 144.7 52.4 145.07 51.84 145.4C51.3 145.76 50.7599 146.01 50.2999 146.24C49.8399 146.48 49.41 146.64 49.06 146.79C48.72 146.94 48.4299 147.01 48.2399 147.08C48.0499 147.14 47.95 147.17 47.95 147.17C47.95 147.17 48.3399 146.99 48.9799 146.62C49.2999 146.43 49.6999 146.22 50.1199 145.92C50.5499 145.63 51.03 145.32 51.54 144.93C52.05 144.56 52.5999 144.16 53.1399 143.67C53.6899 143.21 54.27 142.71 54.81 142.15C55.37 141.61 55.95 141.06 56.5 140.42C56.78 140.11 57.06 139.8 57.34 139.48L57.7599 139.02L58.22 138.53L58.6799 138.05L59.2 137.63C59.54 137.35 59.89 137.08 60.28 136.87C60.65 136.63 61.0299 136.42 61.4299 136.27C61.8199 136.09 62.2099 135.94 62.6199 135.83C63.0199 135.7 63.4099 135.59 63.7999 135.54C64.1899 135.46 64.57 135.42 64.95 135.4C65.32 135.36 65.6899 135.35 66.0399 135.36C66.3899 135.36 66.73 135.37 67.06 135.4C67.71 135.44 68.3 135.54 68.81 135.65C69.32 135.75 69.7599 135.88 70.1199 135.99C70.8399 136.21 71.2199 136.4 71.2199 136.4H71.21Z" fill="black"/>
<path d="M68.41 130.53C68.41 130.53 68.16 130.5 67.71 130.45C67.27 130.39 66.63 130.35 65.89 130.31C65.52 130.29 65.11 130.28 64.69 130.28C64.26 130.28 63.82 130.31 63.37 130.34C63.15 130.37 62.92 130.4 62.69 130.43C62.47 130.48 62.24 130.53 62.02 130.58C61.59 130.71 61.16 130.88 60.81 131.13C60.64 131.26 60.45 131.37 60.33 131.55L60.12 131.79L59.89 132.1C59.6 132.51 59.3 132.89 59.01 133.27C58.74 133.66 58.42 134.01 58.12 134.34C57.82 134.67 57.54 134.98 57.27 135.26C56.98 135.52 56.71 135.75 56.46 135.95C56.23 136.16 56 136.32 55.8 136.43C55.41 136.67 55.19 136.79 55.19 136.79C55.19 136.79 55.37 136.59 55.68 136.28C55.84 136.13 56.02 135.94 56.2 135.68C56.39 135.43 56.6 135.16 56.83 134.88C57.04 134.57 57.28 134.24 57.52 133.89C57.77 133.55 58.03 133.18 58.28 132.77C58.54 132.37 58.8 131.95 59.09 131.55L59.3 131.25L59.58 130.91C59.75 130.66 60 130.51 60.23 130.32C60.71 129.99 61.25 129.8 61.77 129.66C62.3 129.54 62.82 129.49 63.31 129.47C64.31 129.45 65.21 129.59 65.97 129.75C66.73 129.91 67.34 130.13 67.76 130.27C68.18 130.42 68.41 130.54 68.41 130.54V130.53Z" fill="black"/>
<path d="M71.21 92.22C71.21 92.22 70.79 92.33 70.06 92.44C69.69 92.5 69.25 92.57 68.74 92.6C68.23 92.64 67.65 92.67 67.03 92.66C66.72 92.66 66.39 92.66 66.06 92.62C65.72 92.6 65.38 92.57 65.03 92.5C64.68 92.45 64.3199 92.38 63.9699 92.28C63.6099 92.2 63.25 92.1 62.89 91.96C62.52 91.85 62.1699 91.69 61.8199 91.51C61.4599 91.36 61.1199 91.15 60.7899 90.93C60.4399 90.74 60.1299 90.49 59.8199 90.22L59.35 89.83L58.9299 89.39L58.5099 88.95L58.07 88.47C57.78 88.16 57.4999 87.85 57.2099 87.54C56.6699 86.91 56.0199 86.36 55.41 85.82C54.82 85.25 54.1799 84.8 53.5799 84.37C52.9899 83.92 52.4 83.55 51.84 83.22C51.3 82.86 50.7599 82.61 50.2999 82.38C49.8399 82.14 49.41 81.98 49.06 81.83C48.72 81.68 48.4299 81.61 48.2399 81.54C48.0499 81.48 47.95 81.45 47.95 81.45C47.95 81.45 48.3399 81.63 48.9799 82C49.2999 82.19 49.6999 82.4 50.1199 82.7C50.5499 82.99 51.03 83.3 51.54 83.69C52.05 84.06 52.5999 84.46 53.1399 84.95C53.6899 85.41 54.27 85.91 54.81 86.47C55.37 87.01 55.95 87.56 56.5 88.2C56.78 88.51 57.06 88.82 57.34 89.14L57.7599 89.6L58.22 90.09L58.6799 90.57L59.2 90.99C59.54 91.27 59.89 91.54 60.28 91.75C60.65 91.99 61.0299 92.2 61.4299 92.35C61.8199 92.53 62.2099 92.69 62.6199 92.79C63.0199 92.92 63.4099 93.03 63.7999 93.08C64.1899 93.16 64.57 93.2 64.95 93.22C65.32 93.26 65.6899 93.27 66.0399 93.26C66.3899 93.26 66.73 93.25 67.06 93.22C67.71 93.18 68.3 93.08 68.81 92.97C69.32 92.87 69.7599 92.74 70.1199 92.63C70.8399 92.41 71.2199 92.22 71.2199 92.22H71.21Z" fill="black"/>
<path d="M68.41 98.08C68.41 98.08 68.16 98.11 67.71 98.16C67.27 98.22 66.63 98.26 65.89 98.3C65.52 98.32 65.11 98.33 64.69 98.33C64.26 98.33 63.82 98.3 63.37 98.27C63.15 98.24 62.92 98.21 62.69 98.18C62.47 98.13 62.24 98.08 62.02 98.03C61.59 97.9 61.16 97.73 60.81 97.48C60.64 97.35 60.45 97.24 60.33 97.06L60.12 96.82L59.89 96.51C59.6 96.1 59.3 95.72 59.01 95.34C58.74 94.95 58.42 94.6 58.12 94.27C57.82 93.94 57.54 93.63 57.27 93.35C56.98 93.09 56.71 92.86 56.46 92.66C56.23 92.45 56 92.29 55.8 92.18C55.41 91.94 55.19 91.83 55.19 91.83C55.19 91.83 55.37 92.03 55.68 92.34C55.84 92.49 56.02 92.68 56.2 92.94C56.39 93.19 56.6 93.46 56.83 93.74C57.04 94.05 57.28 94.38 57.52 94.73C57.77 95.07 58.03 95.44 58.28 95.85C58.54 96.25 58.8 96.67 59.09 97.07L59.3 97.37L59.58 97.71C59.75 97.96 60 98.11 60.23 98.3C60.71 98.63 61.25 98.82 61.77 98.96C62.3 99.08 62.82 99.13 63.31 99.15C64.31 99.17 65.21 99.03 65.97 98.87C66.73 98.71 67.34 98.49 67.76 98.35C68.18 98.2 68.41 98.08 68.41 98.08Z" fill="black"/>
<path d="M157.94 136.4C157.94 136.4 158.36 136.29 159.09 136.18C159.46 136.12 159.9 136.05 160.41 136.02C160.92 135.98 161.5 135.95 162.12 135.96C162.43 135.96 162.76 135.96 163.09 136C163.43 136.02 163.77 136.05 164.12 136.12C164.47 136.17 164.83 136.24 165.18 136.34C165.54 136.42 165.9 136.52 166.26 136.66C166.63 136.77 166.98 136.93 167.33 137.11C167.69 137.26 168.03 137.47 168.36 137.69C168.71 137.88 169.02 138.13 169.33 138.4L169.8 138.79L170.22 139.23L170.64 139.67L171.08 140.15C171.37 140.46 171.65 140.77 171.94 141.08C172.48 141.71 173.13 142.26 173.74 142.8C174.33 143.37 174.97 143.82 175.57 144.25C176.16 144.7 176.75 145.07 177.31 145.4C177.85 145.76 178.39 146.01 178.85 146.24C179.31 146.48 179.74 146.64 180.09 146.79C180.43 146.94 180.72 147.01 180.91 147.08C181.1 147.14 181.2 147.17 181.2 147.17C181.2 147.17 180.81 146.99 180.17 146.62C179.85 146.43 179.45 146.22 179.03 145.92C178.6 145.63 178.12 145.32 177.61 144.93C177.1 144.56 176.55 144.16 176.01 143.67C175.46 143.21 174.88 142.71 174.34 142.15C173.78 141.61 173.2 141.06 172.65 140.42C172.37 140.11 172.09 139.8 171.81 139.48L171.39 139.02L170.93 138.53L170.47 138.05L169.95 137.63C169.61 137.35 169.26 137.08 168.87 136.87C168.5 136.63 168.12 136.42 167.72 136.27C167.33 136.09 166.94 135.94 166.53 135.83C166.13 135.7 165.74 135.59 165.35 135.54C164.96 135.46 164.58 135.42 164.2 135.4C163.83 135.36 163.46 135.35 163.11 135.36C162.76 135.36 162.42 135.37 162.09 135.4C161.44 135.44 160.85 135.54 160.34 135.65C159.83 135.75 159.39 135.88 159.03 135.99C158.31 136.21 157.93 136.4 157.93 136.4H157.94Z" fill="black"/>
<path d="M160.74 130.53C160.74 130.53 160.99 130.5 161.44 130.45C161.88 130.39 162.52 130.35 163.26 130.31C163.63 130.29 164.04 130.28 164.46 130.28C164.89 130.28 165.33 130.31 165.78 130.34C166 130.37 166.23 130.4 166.46 130.43C166.68 130.48 166.91 130.53 167.13 130.58C167.56 130.71 167.99 130.88 168.34 131.13C168.51 131.26 168.7 131.37 168.82 131.55L169.03 131.79L169.26 132.1C169.55 132.51 169.85 132.89 170.14 133.27C170.41 133.66 170.73 134.01 171.03 134.34C171.33 134.67 171.61 134.98 171.88 135.26C172.17 135.52 172.44 135.75 172.69 135.95C172.92 136.16 173.15 136.32 173.35 136.43C173.74 136.67 173.96 136.79 173.96 136.79C173.96 136.79 173.78 136.59 173.47 136.28C173.31 136.13 173.13 135.94 172.95 135.68C172.76 135.43 172.55 135.16 172.32 134.88C172.11 134.57 171.87 134.24 171.63 133.89C171.38 133.55 171.12 133.18 170.87 132.77C170.61 132.37 170.35 131.95 170.06 131.55L169.85 131.25L169.57 130.91C169.4 130.66 169.15 130.51 168.92 130.32C168.44 129.99 167.9 129.8 167.38 129.66C166.85 129.54 166.33 129.49 165.84 129.47C164.84 129.45 163.94 129.59 163.18 129.75C162.42 129.91 161.81 130.13 161.39 130.27C160.97 130.42 160.74 130.54 160.74 130.54V130.53Z" fill="black"/>
<path d="M157.94 92.22C157.94 92.22 158.36 92.33 159.09 92.44C159.46 92.5 159.9 92.57 160.41 92.6C160.92 92.64 161.5 92.67 162.12 92.66C162.43 92.66 162.76 92.66 163.09 92.62C163.43 92.6 163.77 92.57 164.12 92.5C164.47 92.45 164.83 92.38 165.18 92.28C165.54 92.2 165.9 92.1 166.26 91.96C166.63 91.85 166.98 91.69 167.33 91.51C167.69 91.36 168.03 91.15 168.36 90.93C168.71 90.74 169.02 90.49 169.33 90.22L169.8 89.83L170.22 89.39L170.64 88.95L171.08 88.47C171.37 88.16 171.65 87.85 171.94 87.54C172.48 86.91 173.13 86.36 173.74 85.82C174.33 85.25 174.97 84.8 175.57 84.37C176.16 83.92 176.75 83.55 177.31 83.22C177.85 82.86 178.39 82.61 178.85 82.38C179.31 82.14 179.74 81.98 180.09 81.83C180.43 81.68 180.72 81.61 180.91 81.54C181.1 81.48 181.2 81.45 181.2 81.45C181.2 81.45 180.81 81.63 180.17 82C179.85 82.19 179.45 82.4 179.03 82.7C178.6 82.99 178.12 83.3 177.61 83.69C177.1 84.06 176.55 84.46 176.01 84.95C175.46 85.41 174.88 85.91 174.34 86.47C173.78 87.01 173.2 87.56 172.65 88.2C172.37 88.51 172.09 88.82 171.81 89.14L171.39 89.6L170.93 90.09L170.47 90.57L169.95 90.99C169.61 91.27 169.26 91.54 168.87 91.75C168.5 91.99 168.12 92.2 167.72 92.35C167.33 92.53 166.94 92.69 166.53 92.79C166.13 92.92 165.74 93.03 165.35 93.08C164.96 93.16 164.58 93.2 164.2 93.22C163.83 93.26 163.46 93.27 163.11 93.26C162.76 93.26 162.42 93.25 162.09 93.22C161.44 93.18 160.85 93.08 160.34 92.97C159.83 92.87 159.39 92.74 159.03 92.63C158.31 92.41 157.93 92.22 157.93 92.22H157.94Z" fill="black"/>
<path d="M160.74 98.08C160.74 98.08 160.99 98.11 161.44 98.16C161.88 98.22 162.52 98.26 163.26 98.3C163.63 98.32 164.04 98.33 164.46 98.33C164.89 98.33 165.33 98.3 165.78 98.27C166 98.24 166.23 98.21 166.46 98.18C166.68 98.13 166.91 98.08 167.13 98.03C167.56 97.9 167.99 97.73 168.34 97.48C168.51 97.35 168.7 97.24 168.82 97.06L169.03 96.82L169.26 96.51C169.55 96.1 169.85 95.72 170.14 95.34C170.41 94.95 170.73 94.6 171.03 94.27C171.33 93.94 171.61 93.63 171.88 93.35C172.17 93.09 172.44 92.86 172.69 92.66C172.92 92.45 173.15 92.29 173.35 92.18C173.74 91.94 173.96 91.83 173.96 91.83C173.96 91.83 173.78 92.03 173.47 92.34C173.31 92.49 173.13 92.68 172.95 92.94C172.76 93.19 172.55 93.46 172.32 93.74C172.11 94.05 171.87 94.38 171.63 94.73C171.38 95.07 171.12 95.44 170.87 95.85C170.61 96.25 170.35 96.67 170.06 97.07L169.85 97.37L169.57 97.71C169.4 97.96 169.15 98.11 168.92 98.3C168.44 98.63 167.9 98.82 167.38 98.96C166.85 99.08 166.33 99.13 165.84 99.15C164.84 99.17 163.94 99.03 163.18 98.87C162.42 98.71 161.81 98.49 161.39 98.35C160.97 98.2 160.74 98.08 160.74 98.08Z" fill="black"/>
<path d="M112.85 64.66L114.86 35.05L117.02 64.66H112.85Z" fill="black"/>
<path d="M112.85 164.66L114.86 194.27L117.02 164.66H112.85Z" fill="black"/>
<path d="M164.35 112.58L193.96 114.59L164.35 116.74V112.58Z" fill="black"/>
<path d="M65.35 112.58L35.74 114.59L65.35 116.74V112.58Z" fill="black"/>
<path d="M152.18 148.54L171.7 170.9L149.23 151.49L152.18 148.54Z" fill="black"/>
<path d="M81.47 77.83L59.11 58.31L78.52 80.78L81.47 77.83Z" fill="black"/>
<path d="M148.23 77.83L170.59 58.31L151.18 80.78L148.23 77.83Z" fill="black"/>
<path d="M77.52 148.54L58 170.9L80.47 151.49L77.52 148.54Z" fill="black"/>
</svg>
